<svg version="1.0" xmlns="http://www.w3.org/2000/svg" width="360.000000pt" height="270.000000pt" viewBox="0 0 360.000000 270.000000" preserveAspectRatio="xMidYMid meet">

<g transform="translate(0.000000,270.000000) scale(0.100000,-0.100000)" fill="#000000" stroke="none">
<path d="M476 1898 c-122 -23 -255 -108 -336 -217 -55 -72 -59 -85 -32 -102
17 -11 17 -14 -5 -79 -66 -196 -21 -397 123 -550 279 -295 769 -187 905 200
28 78 33 253 10 335 -80 287 -373 469 -665 413z m234 -100 c134 -33 248 -126
312 -254 38 -77 41 -91 46 -182 7 -153 -28 -251 -125 -353 -155 -163 -412
-180 -556 -36 -115 115 -122 303 -13 406 19 19 38 32 41 29 3 -3 -7 -29 -22
-59 -23 -44 -28 -66 -28 -124 1 -80 16 -115 71 -169 69 -67 206 -86 299 -41
54 26 115 89 145 150 21 43 25 64 25 150 0 93 -2 105 -32 166 -105 212 -356
284 -582 168 -41 -22 -76 -39 -78 -39 -9 0 19 39 54 74 114 115 272 156 443
114z m-90 -205 c87 -31 161 -99 190 -177 16 -44 5 -43 -45 7 -25 25 -71 58
-103 74 -49 24 -69 28 -142 28 -70 0 -93 -5 -130 -24 -103 -53 -161 -138 -184
-268 -13 -76 -14 -77 -26 -48 -20 50 -9 181 20 240 75 154 255 226 420 168z
m40 -228 c55 -28 75 -101 44 -160 -14 -27 -14 -31 0 -41 23 -16 20 -29 -11
-49 -65 -43 -144 -36 -199 19 -87 87 -23 246 99 246 21 0 51 -7 67 -15z" data-index="0" style="opacity: 1;"></path>
<path d="M1300 1613 c0 -123 4 -155 19 -189 26 -57 77 -87 150 -88 66 0 110
20 143 66 21 31 23 44 26 196 l3 163 -43 -3 -43 -3 -3 -145 c-2 -132 -4 -146
-24 -167 -31 -33 -90 -32 -117 3 -19 24 -21 40 -21 170 l0 144 -45 0 -45 0 0
-147z" data-index="1"></path>
<path d="M2224 1744 c-35 -17 -64 -61 -64 -99 0 -53 27 -84 108 -123 86 -42
103 -68 59 -97 -31 -20 -71 -11 -97 22 l-19 25 -31 -22 c-16 -12 -30 -27 -30
-33 0 -46 91 -94 162 -84 52 7 88 33 112 81 37 74 2 132 -106 176 -71 29 -91
51 -66 76 23 23 65 21 92 -5 l23 -21 29 22 c16 12 31 23 33 25 7 5 -33 45 -61
59 -35 18 -105 17 -144 -2z" data-index="2"></path>
<path d="M2599 1750 c-37 -11 -80 -41 -73 -51 3 -5 -6 -24 -20 -42 -59 -77
-51 -191 17 -262 84 -87 219 -88 302 -1 135 140 41 367 -150 365 -27 0 -62 -4
-76 -9z m148 -95 c28 -18 53 -71 53 -110 0 -39 -26 -92 -54 -110 -14 -9 -45
-17 -70 -17 -103 0 -147 91 -97 195 32 67 103 84 168 42z" data-index="3"></path>
<path d="M1690 1545 l0 -205 95 0 c65 0 105 5 125 15 77 40 94 123 37 180
l-33 33 23 22 c15 15 23 34 23 57 0 79 -40 103 -175 103 l-95 0 0 -205z m171
116 c21 -16 22 -22 11 -45 -10 -22 -18 -26 -52 -26 l-40 0 0 45 c0 43 1 45 29
45 16 0 39 -8 52 -19z m17 -153 c7 -7 12 -24 12 -38 0 -37 -18 -50 -67 -50
l-43 0 0 50 0 50 43 0 c24 0 48 -5 55 -12z" data-index="4"></path>
<path d="M2020 1545 l0 -205 45 0 45 0 0 205 0 205 -45 0 -45 0 0 -205z" data-index="5"></path>
<path d="M2930 1545 l0 -205 45 0 45 0 0 80 0 79 88 3 87 3 3 33 3 32 -90 0
-91 0 0 50 0 50 95 0 95 0 0 40 0 40 -140 0 -140 0 0 -205z" data-index="6"></path>
<path d="M3250 1710 l0 -40 60 0 60 0 0 -165 0 -165 45 0 45 0 0 165 0 165 60
0 60 0 0 40 0 40 -165 0 -165 0 0 -40z" data-index="7"></path>
<path d="M1341 1113 c53 -211 47 -195 77 -191 25 3 28 9 53 113 14 61 28 117
31 125 2 8 14 -26 27 -75 42 -172 40 -165 66 -165 20 0 26 7 34 38 31 121 62
239 67 255 5 15 1 18 -17 15 -21 -3 -26 -15 -54 -132 l-30 -129 -34 132 c-31
119 -36 131 -56 131 -21 0 -26 -12 -56 -132 l-32 -132 -31 129 c-28 113 -34
130 -53 133 -21 3 -21 2 8 -115z" data-index="8"></path>
<path d="M1740 1074 c0 -143 1 -155 18 -152 15 3 17 20 20 156 2 147 2 152
-18 152 -19 0 -20 -6 -20 -156z" data-index="9"></path>
<path d="M1830 1075 c0 -144 1 -156 18 -153 15 3 18 19 22 128 l5 124 70 -124
c60 -108 74 -125 95 -125 l25 0 3 153 c2 146 2 152 -17 152 -19 0 -21 -8 -23
-127 l-3 -128 -71 125 c-60 106 -75 125 -98 128 l-26 3 0 -156z" data-index="10"></path>
<path d="M2120 1076 c0 -149 1 -156 20 -156 18 0 20 8 22 128 l3 127 70 -125
c61 -107 75 -125 98 -128 l27 -3 0 155 c0 149 -1 156 -20 156 -18 0 -20 -8
-22 -127 l-3 -128 -70 125 c-61 108 -74 125 -98 128 l-27 3 0 -155z" data-index="11"></path>
<path d="M2412 1078 c3 -136 5 -153 21 -156 16 -3 17 9 17 152 0 150 -1 156
-20 156 -20 0 -20 -5 -18 -152z" data-index="12"></path>
<path d="M2502 1078 c3 -136 5 -153 21 -156 15 -3 17 5 17 62 l0 66 49 0 c81
0 123 52 99 123 -14 37 -59 57 -133 57 l-56 0 3 -152z m143 92 c37 -41 -3 -90
-76 -90 -29 0 -29 1 -29 55 l0 55 43 0 c31 0 49 -6 62 -20z" data-index="13"></path>
<path d="M2740 1075 l0 -155 95 0 c88 0 95 1 95 20 0 18 -7 20 -75 20 l-75 0
0 50 0 50 70 0 c56 0 70 3 70 15 0 12 -14 15 -70 15 l-70 0 0 50 0 50 75 0
c68 0 75 2 75 20 0 19 -7 20 -95 20 l-95 0 0 -155z" data-index="14"></path>
<path d="M3050 1211 c-40 -21 -80 -89 -80 -135 0 -48 40 -117 80 -138 43 -24
122 -20 163 6 24 17 27 24 27 77 l0 59 -50 0 c-38 0 -50 -4 -50 -15 0 -10 11
-15 35 -15 32 0 35 -3 35 -28 0 -40 -29 -63 -82 -64 -53 -1 -83 16 -103 58
-31 66 -8 141 52 169 30 14 42 15 74 6 21 -6 44 -20 52 -31 8 -12 18 -16 26
-10 36 22 -39 80 -104 80 -22 0 -56 -8 -75 -19z" data-index="15"></path>
</g>
</svg>