<svg version="1.1" id="Layer_1" xmlns="http://www.w3.org/2000/svg" xmlns:xlink="http://www.w3.org/1999/xlink" x="0px" y="0px"
	 width="100%" viewBox="0 0 1024 178" enable-background="new 0 0 1024 178" xml:space="preserve">
<path fill="#000000" opacity="1.000000" stroke="none" 
	d="
M1025.000000,115.000000 
	C1025.000000,136.324081 1025.000000,157.648178 1025.000000,179.000000 
	C719.308411,179.000000 413.616852,179.000000 107.165916,178.661987 
	C106.743469,177.959442 107.025215,177.357559 107.425247,177.264587 
	C124.331390,173.335602 138.475693,164.840866 150.382568,152.205582 
	C165.511093,136.151550 172.883698,116.944458 173.847427,95.251610 
	C174.155975,88.306305 173.024094,81.224571 171.929474,74.303612 
	C169.184830,56.950203 161.503723,41.846737 149.516907,29.105167 
	C136.910492,15.705009 121.489594,6.975313 103.468498,2.924862 
	C102.865265,2.789277 102.484482,1.663970 102.000000,0.999999 
	C409.666656,1.000000 717.333313,1.000000 1025.000000,1.000000 
	C1025.000000,23.093622 1025.000000,45.084171 1024.746460,67.821030 
	C1024.032837,68.363449 1023.572693,68.159561 1023.056946,67.575470 
	C1020.934753,65.123070 1018.985535,62.915386 1016.778809,61.005241 
	C1011.188354,56.166351 1004.026123,55.189541 997.327026,55.535393 
	C988.354004,55.998642 980.214783,58.731285 973.542664,66.356125 
	C968.538208,72.075073 965.771973,77.819557 964.511780,85.169189 
	C964.497437,90.440361 964.014771,95.736214 965.355957,100.520790 
	C972.395874,125.634239 999.695251,130.936691 1017.767212,119.720497 
	C1020.212769,118.202744 1022.590759,116.576172 1025.000000,115.000000 
M783.988098,100.077003 
	C783.936584,95.051353 783.885010,90.025703 783.987061,84.339272 
	C783.935852,83.892876 783.884644,83.446480 783.987305,82.339058 
	C783.936035,81.892471 783.884705,81.445885 783.987915,80.126419 
	C783.821350,77.129463 783.654846,74.132500 783.467712,70.764664 
	C785.033813,72.042252 786.901855,72.903755 787.715576,74.355995 
	C790.024841,78.477272 791.903320,82.839943 794.001831,87.833717 
	C800.838806,99.808205 807.675781,111.782692 814.513000,123.757698 
	C818.841675,123.757698 823.271423,123.757698 827.787598,123.757698 
	C827.787598,101.462372 827.787598,79.409676 827.787598,57.208443 
	C824.504272,57.208443 821.436096,57.208443 818.019470,57.208443 
	C818.019470,74.770615 818.019470,92.129265 818.019470,110.937477 
	C816.205383,107.675514 815.138062,105.634560 813.959656,103.659882 
	C810.032776,97.079720 806.066040,90.523323 802.004211,83.220604 
	C797.353516,74.922745 792.748413,66.598396 787.973328,58.372799 
	C787.549011,57.641914 786.017700,57.553661 784.096863,57.012196 
	C781.344055,57.009365 778.582520,56.889740 775.845215,57.094582 
	C775.241516,57.139763 774.723816,58.334908 774.011719,59.926414 
	C774.063354,68.617424 774.114990,77.308441 774.011719,86.925461 
	C774.063354,94.616753 774.114990,102.308052 774.011841,110.920723 
	C774.011841,115.168030 774.011841,119.415337 774.011841,123.815445 
	C777.482971,123.815445 780.534546,123.815445 783.833496,123.815445 
	C783.833496,116.089943 783.833496,108.544678 783.988098,100.077003 
M330.012177,77.785072 
	C331.099457,85.826660 336.444427,90.113052 343.399200,93.000183 
	C347.386597,94.655472 351.458313,96.152748 355.299591,98.100716 
	C358.367157,99.656319 360.313232,102.792618 358.743927,105.867111 
	C357.737732,107.838364 354.633362,109.272598 352.204132,109.872070 
	C347.196167,111.107925 344.724396,106.838196 341.498627,104.137367 
	C340.177094,103.030914 337.543701,101.821999 336.457703,102.411369 
	C332.966034,104.306328 329.917633,107.018044 326.830414,109.316345 
	C330.925140,120.181831 339.377380,124.252464 349.402649,124.835136 
	C358.408600,125.358566 367.477905,123.449921 371.944489,114.468849 
	C379.778198,98.717300 373.472717,87.167145 355.731262,82.215775 
	C353.063232,81.134171 350.124573,80.442238 347.817780,78.840401 
	C346.148712,77.681412 343.938782,74.713646 344.416046,73.618378 
	C345.271149,71.656006 347.793213,69.590836 349.929840,69.177444 
	C355.492279,68.101212 359.336182,71.141426 362.032745,76.767235 
	C366.184235,73.944756 370.080505,71.295807 374.932068,67.997360 
	C371.762421,64.626656 369.222321,61.379753 366.100708,58.850609 
	C364.674469,57.695068 361.909058,58.365578 360.079834,57.507160 
	C344.451172,50.172951 329.280365,60.002834 330.012177,77.785072 
M378.011780,88.907593 
	C376.912933,108.117203 385.999756,118.061699 401.901611,123.184349 
	C406.731476,124.740257 412.445160,124.658005 417.550415,123.919167 
	C421.982880,123.277710 426.171265,120.744781 430.373596,118.840446 
	C431.671753,118.252159 432.692596,117.017433 433.786407,116.019478 
	C436.457733,113.582291 439.768829,111.529526 441.616516,108.569336 
	C446.086853,101.407471 446.625977,93.256081 445.987396,84.196518 
	C445.660156,82.963173 445.278564,81.741348 445.014313,80.494659 
	C442.966187,70.832588 437.403076,63.907082 428.745728,59.294250 
	C419.000397,54.101685 408.790619,53.991615 398.665863,57.312305 
	C394.547211,58.663139 388.865234,61.214294 387.823029,64.474976 
	C386.506500,68.593750 383.461517,71.151405 382.100067,74.785324 
	C380.491516,79.078804 379.452484,83.585632 378.011780,88.907593 
M598.570190,56.999973 
	C597.441284,57.067894 596.312439,57.135815 594.361511,57.253197 
	C600.156006,79.772232 605.849976,101.900681 611.516541,123.922363 
	C616.021484,123.922363 620.174438,123.922363 624.900208,123.922363 
	C629.075439,106.477066 633.265686,88.969017 637.461365,71.438545 
	C641.744202,88.972176 646.004639,106.414307 650.299988,123.999214 
	C653.194519,123.999214 655.886047,123.709366 658.488525,124.066986 
	C662.416626,124.606758 664.081116,122.770393 664.959778,119.274567 
	C668.912231,103.549614 673.000671,87.858788 676.943848,72.131561 
	C678.169006,67.245125 679.091553,62.282814 680.204407,57.114780 
	C676.175537,57.114780 672.875793,57.114780 669.411011,57.114780 
	C665.315552,74.382141 661.229675,91.609047 656.938904,109.699997 
	C653.017761,94.530197 649.579041,80.379082 645.660706,66.362030 
	C642.989319,56.805599 642.689575,56.887096 632.316040,57.031918 
	C632.003235,57.036282 631.692627,57.202225 631.468079,57.267513 
	C627.095093,74.400131 622.736084,91.478233 618.332886,108.729172 
	C617.852722,108.222954 617.312439,107.921013 617.218750,107.515785 
	C613.777039,92.631332 610.421875,77.726746 606.939636,62.851891 
	C606.051453,59.058197 604.583313,55.604633 598.570190,56.999973 
M300.000610,70.840530 
	C299.089813,63.878357 294.840302,59.043724 288.350586,58.225357 
	C277.797211,56.894547 267.058563,57.032803 256.365387,56.549538 
	C256.365387,79.595535 256.365387,101.768669 256.365387,123.999733 
	C261.558746,123.999733 266.403015,124.253716 271.209534,123.936119 
	C277.364746,123.529396 283.656189,123.321785 289.584442,121.823540 
	C296.682343,120.029709 301.736603,115.016663 302.854156,107.575340 
	C303.842163,100.996864 303.464142,94.311340 297.242523,89.756905 
	C296.118652,88.934196 294.953766,88.167465 293.438416,87.119392 
	C298.484528,82.881615 300.527039,77.798607 300.000610,70.840530 
M214.503952,123.058960 
	C218.400284,123.372452 222.329895,124.171547 226.186600,123.907074 
	C237.132614,123.156471 248.206039,114.436981 248.906906,103.041122 
	C249.657379,90.838753 249.687149,78.591309 249.987579,66.362465 
	C250.071518,62.945545 250.000381,59.524815 250.000381,56.332443 
	C244.256927,56.332443 239.184845,56.332443 233.999924,56.332443 
	C233.999924,69.975288 234.045746,83.286125 233.979980,96.596397 
	C233.948608,102.946808 229.968658,108.384995 225.189392,109.001923 
	C214.899948,110.330116 209.690033,104.832909 209.918243,95.591240 
	C210.241470,82.502121 210.000244,69.399063 210.000244,56.241150 
	C204.443436,56.241150 199.374527,56.241150 194.000916,56.241150 
	C194.000916,70.932281 193.256378,85.434448 194.232513,99.819855 
	C195.038040,111.690948 201.084610,120.910004 214.503952,123.058960 
M753.000061,95.484421 
	C753.000061,99.838280 753.000061,104.192146 753.000061,108.546005 
	C743.742859,93.734985 735.424866,78.750809 726.924438,63.870831 
	C725.485901,61.352695 723.663757,58.079578 721.305847,57.293301 
	C717.926514,56.166409 713.891418,57.006031 710.309326,57.006031 
	C710.309326,79.714462 710.309326,101.784302 710.309326,123.684525 
	C713.702087,123.684525 716.774719,123.684525 719.507080,123.684525 
	C719.507080,105.701805 719.507080,88.036980 719.507080,70.083855 
	C723.723145,77.566437 727.842834,84.953712 732.034973,92.299660 
	C737.614075,102.076164 743.209045,111.844337 748.918701,121.544571 
	C749.541992,122.603592 750.914673,123.794525 752.026428,123.887390 
	C755.600769,124.185944 759.215820,123.998497 762.717896,123.998497 
	C762.717896,101.343903 762.717896,79.274826 762.717896,57.286945 
	C759.354614,57.286945 756.282837,57.286945 753.000061,57.286945 
	C753.000061,69.878288 753.000061,82.184052 753.000061,95.484421 
M466.999756,111.493286 
	C466.999756,106.728226 466.999756,101.963165 466.999756,96.819679 
	C476.651428,96.819679 485.729828,96.819679 494.708160,96.819679 
	C494.708160,92.678238 494.708160,88.938011 494.708160,84.815521 
	C485.344788,84.815521 476.267487,84.815521 467.294373,84.815521 
	C467.294373,80.007050 467.294373,75.601486 467.294373,70.810074 
	C477.326874,70.810074 487.069916,70.810074 496.704285,70.810074 
	C496.704285,66.002747 496.704285,61.597076 496.704285,57.293591 
	C481.337738,57.293591 466.269226,57.293591 451.288269,57.293591 
	C451.288269,79.655472 451.288269,101.721939 451.288269,123.709015 
	C456.652924,123.709015 461.724213,123.709015 466.999664,123.709015 
	C466.999664,119.775200 466.999664,116.130692 466.999756,111.493286 
M534.499634,56.999710 
	C523.737183,56.999710 512.974731,56.999710 502.285278,56.999710 
	C502.285278,61.977596 502.285278,66.383469 502.285278,71.177055 
	C508.309296,71.177055 514.054321,71.177055 520.175293,71.177055 
	C520.175293,88.976784 520.175293,106.380989 520.175293,123.712700 
	C525.646606,123.712700 530.718262,123.712700 536.174072,123.712700 
	C536.174072,106.024986 536.174072,88.621033 536.174072,70.828018 
	C542.306519,70.828018 548.052185,70.828018 553.713013,70.828018 
	C553.713013,66.019485 553.713013,61.613739 553.713013,56.999649 
	C547.451111,56.999649 541.475281,56.999649 534.499634,56.999710 
M911.999573,76.500420 
	C911.999573,92.260445 911.999573,108.020462 911.999573,123.721405 
	C926.977722,123.721405 941.385498,123.721405 955.717529,123.721405 
	C955.717529,120.697296 955.717529,117.958755 955.717529,114.835068 
	C944.365051,114.835068 933.289795,114.835068 922.284668,114.835068 
	C922.284668,107.692635 922.284668,100.955124 922.284668,93.833755 
	C932.315002,93.833755 942.065369,93.833755 951.716675,93.833755 
	C951.716675,91.026848 951.716675,88.622734 951.716675,85.831093 
	C941.695496,85.831093 931.951843,85.831093 922.287720,85.831093 
	C922.287720,79.020851 922.287720,72.615517 922.287720,65.826630 
	C933.317932,65.826630 944.065308,65.826630 954.713013,65.826630 
	C954.713013,62.688419 954.713013,59.949596 954.713013,57.286819 
	C940.354553,57.286819 926.285339,57.286819 911.999695,57.286819 
	C911.999695,63.548389 911.999695,69.524513 911.999573,76.500420 
M892.381287,58.886066 
	C881.691162,57.975006 871.001038,57.063946 860.277466,56.150036 
	C860.277466,79.644501 860.277466,101.713882 860.277466,123.717918 
	C863.635681,123.717918 866.709534,123.717918 870.165039,123.717918 
	C870.165039,114.699112 870.165039,105.955536 870.165039,96.999817 
	C875.037476,96.999817 879.515808,97.108810 883.987000,96.976837 
	C892.940491,96.712578 900.677979,90.703827 902.819458,82.510735 
	C905.347900,72.837692 901.616455,63.754272 892.381287,58.886066 
M322.999634,115.455948 
	C322.999634,96.031990 322.999634,76.608040 322.999634,57.303024 
	C317.656281,57.303024 312.917053,57.303024 308.302612,57.303024 
	C308.302612,79.678093 308.302612,101.748375 308.302612,123.693268 
	C313.351654,123.693268 318.089813,123.693268 322.999756,123.693268 
	C322.999756,121.073212 322.999756,118.756371 322.999634,115.455948 
M849.000427,77.500160 
	C849.000427,70.730629 849.000427,63.961098 849.000427,57.288181 
	C845.352539,57.288181 842.277771,57.288181 839.282776,57.288181 
	C839.282776,79.650520 839.282776,101.723412 839.282776,123.711617 
	C842.647339,123.711617 845.722107,123.711617 849.000305,123.711617 
	C849.000305,108.449707 849.000305,93.474915 849.000427,77.500160 
M698.999817,108.496689 
	C698.999817,91.398788 698.999817,74.300888 698.999817,57.286884 
	C695.354797,57.286884 692.280090,57.286884 689.281982,57.286884 
	C689.281982,79.648071 689.281982,101.721085 689.281982,123.712616 
	C692.645813,123.712616 695.720520,123.712616 698.999756,123.712616 
	C698.999756,118.783401 698.999756,114.139328 698.999817,108.496689 
z"/>
<path fill="#FFFFFF" opacity="1.000000" stroke="none" 
	d="
M101.531342,0.999999 
	C102.484482,1.663970 102.865265,2.789277 103.468498,2.924862 
	C121.489594,6.975313 136.910492,15.705009 149.516907,29.105167 
	C161.503723,41.846737 169.184830,56.950203 171.929474,74.303612 
	C173.024094,81.224571 174.155975,88.306305 173.847427,95.251610 
	C172.883698,116.944458 165.511093,136.151550 150.382568,152.205582 
	C138.475693,164.840866 124.331390,173.335602 107.425247,177.264587 
	C107.025215,177.357559 106.743469,177.959442 106.703278,178.661987 
	C93.979103,179.000000 80.958214,179.000000 67.764305,178.666565 
	C66.780960,177.884384 66.020988,177.246979 65.152733,177.015167 
	C52.037876,173.513657 40.175648,167.542892 30.052967,158.498642 
	C16.417427,146.315750 6.793188,131.608734 2.923794,113.467407 
	C2.796099,112.868729 1.663938,112.484299 1.000001,112.000000 
	C1.000000,99.979103 1.000000,87.958214 1.346895,75.767471 
	C3.944776,68.876976 6.195760,62.156330 8.575376,55.051636 
	C6.299143,53.834209 3.649572,52.417103 1.000000,51.000000 
	C1.000000,50.555553 1.000000,50.111111 1.298613,49.621738 
	C7.523275,41.763092 12.699508,33.204933 19.547956,26.306995 
	C30.303463,15.473760 43.009609,7.234956 58.328316,3.824306 
	C59.694115,3.520217 60.782681,1.970960 62.000000,1.000000 
	C75.020897,1.000000 88.041786,1.000000 101.531342,0.999999 
M116.802567,82.220413 
	C117.137848,82.352318 117.473137,82.484230 117.808418,82.616135 
	C117.565536,82.052528 117.322662,81.488914 117.005447,80.160980 
	C116.900352,79.525406 116.922234,78.834251 116.671822,78.262299 
	C107.461609,57.225872 82.324234,44.105370 59.275089,49.044765 
	C48.649216,51.321877 39.169979,56.286423 31.670855,64.017998 
	C20.201471,75.842896 15.461483,90.412453 17.096405,106.824532 
	C17.459082,110.465240 19.032026,113.985382 20.047710,117.561043 
	C21.164797,99.531555 25.628534,83.670425 39.881519,71.485741 
	C54.932625,58.618748 76.550781,57.019768 93.681221,64.275650 
	C102.780136,68.129646 109.669937,74.863846 116.802567,82.220413 
M105.950302,20.436069 
	C69.245422,8.841109 36.643406,26.416719 25.071983,46.990410 
	C26.445456,46.195110 27.502085,45.612907 28.529919,44.983669 
	C43.951653,35.542522 60.224144,30.274090 78.711082,32.888950 
	C96.626450,35.422958 111.156700,43.241962 122.145317,57.633720 
	C136.217361,76.063828 138.530380,96.145630 130.023376,117.424179 
	C120.774948,140.557236 94.711227,153.031693 70.319809,143.972687 
	C52.039093,137.183197 42.364914,118.824585 47.006615,99.617615 
	C48.540596,93.270126 51.648281,87.302948 53.924110,81.450699 
	C43.757294,88.349083 37.618492,98.517044 37.160702,111.247261 
	C36.567982,127.729805 42.955891,141.274872 56.162304,151.808212 
	C75.921967,167.568375 103.531364,165.534927 123.648209,153.844254 
	C133.880585,147.897812 141.878220,139.724258 147.916245,129.579895 
	C157.860794,112.872269 160.529922,94.877922 156.472595,76.063881 
	C152.742386,58.766804 144.185242,43.960480 129.722504,33.507542 
	C122.671661,28.411552 114.343414,25.082989 105.950302,20.436069 
M65.400604,118.922997 
	C71.961243,130.140991 86.478600,133.428391 97.335930,126.154625 
	C103.758102,121.852165 103.758850,121.362053 97.415627,116.849945 
	C97.196342,116.693954 97.153931,116.289314 97.032738,115.987930 
	C97.158249,115.695442 97.209518,115.326797 97.420082,115.121559 
	C103.655510,109.043816 103.806984,100.196701 99.831001,93.581825 
	C95.387093,86.188438 86.631912,83.225769 78.120331,85.950783 
	C64.129250,90.430077 58.402020,104.550484 65.400604,118.922997 
z"/>
<path fill="#000000" opacity="1.000000" stroke="none" 
	d="
M1025.000000,73.000000 
	C1025.000000,78.022095 1025.000000,83.044182 1024.545410,88.532791 
	C1021.060669,89.055092 1018.030457,89.110886 1014.629028,89.089462 
	C1013.505127,89.063652 1012.752258,89.115067 1011.599854,89.089294 
	C1009.320068,89.063591 1007.440002,89.115067 1005.230469,89.089661 
	C1001.142334,88.396965 1001.952698,90.907120 1002.116821,93.276398 
	C1002.372742,93.639938 1002.678589,93.736465 1003.307861,93.910500 
	C1004.071838,94.028313 1004.512390,94.068619 1005.114563,94.449287 
	C1008.085327,95.526733 1010.928223,96.160461 1013.685181,97.058121 
	C1014.623657,97.363693 1015.345703,98.333778 1016.089478,99.439087 
	C1015.322144,103.097923 1015.625549,107.136711 1013.765991,109.392952 
	C1006.555359,118.142082 991.230225,118.144379 982.805359,110.154259 
	C974.620667,102.391945 972.699768,92.575569 975.782959,81.446045 
	C977.882751,75.385300 981.314270,70.786240 986.648499,67.897369 
	C995.799805,62.941257 1004.562256,64.181053 1013.010376,70.355515 
	C1014.072388,71.813705 1015.012329,72.961159 1016.106323,74.441811 
	C1018.506714,74.127777 1020.753052,73.480560 1023.326782,72.910660 
	C1024.102783,72.991982 1024.551392,72.995987 1025.000000,73.000000 
z"/>
<path fill="#000000" opacity="1.000000" stroke="none" 
	d="
M1.000001,112.468658 
	C1.663938,112.484299 2.796099,112.868729 2.923794,113.467407 
	C6.793188,131.608734 16.417427,146.315750 30.052967,158.498642 
	C40.175648,167.542892 52.037876,173.513657 65.152733,177.015167 
	C66.020988,177.246979 66.780960,177.884384 67.295647,178.666565 
	C45.072605,179.000000 23.145210,179.000000 1.000000,179.000000 
	C1.000000,156.979584 1.000000,134.958450 1.000001,112.468658 
z"/>
<path fill="#000000" opacity="1.000000" stroke="none" 
	d="
M61.531342,1.000000 
	C60.782681,1.970960 59.694115,3.520217 58.328316,3.824306 
	C43.009609,7.234956 30.303463,15.473760 19.547956,26.306995 
	C12.699508,33.204933 7.523275,41.763092 1.298613,49.288406 
	C1.000000,33.064491 1.000000,17.128979 1.000000,1.000000 
	C21.020479,1.000000 41.041580,1.000000 61.531342,1.000000 
z"/>
<path fill="#FEFEFE" opacity="1.000000" stroke="none" 
	d="
M975.589111,81.763969 
	C972.699768,92.575569 974.620667,102.391945 982.805359,110.154259 
	C991.230225,118.144379 1006.555359,118.142082 1013.765991,109.392952 
	C1015.625549,107.136711 1015.322144,103.097923 1016.501831,99.439018 
	C1019.660950,99.333389 1022.330505,99.666695 1025.000000,100.000000 
	C1025.000000,104.689255 1025.000000,109.378510 1025.000000,114.533882 
	C1022.590759,116.576172 1020.212769,118.202744 1017.767212,119.720497 
	C999.695251,130.936691 972.395874,125.634239 965.355957,100.520790 
	C964.014771,95.736214 964.497437,90.440361 964.878235,85.149002 
	C967.631226,84.766769 969.644531,84.615944 971.997498,84.439674 
	C971.402710,82.794189 970.911926,81.436691 970.421204,80.079201 
	C970.738464,79.721443 971.055664,79.363693 971.372925,79.005936 
	C972.778320,79.925278 974.183716,80.844620 975.589111,81.763969 
z"/>
<path fill="#FEFEFE" opacity="1.000000" stroke="none" 
	d="
M1025.000000,99.541931 
	C1022.330505,99.666695 1019.660950,99.333389 1016.579041,99.000153 
	C1015.345703,98.333778 1014.623657,97.363693 1013.685181,97.058121 
	C1010.928223,96.160461 1008.085327,95.526733 1005.224731,94.175613 
	C1005.448914,93.041054 1005.724487,92.520531 1006.250000,92.000000 
	C1006.500000,92.000000 1007.000000,92.000000 1007.108032,92.219284 
	C1007.415466,92.712090 1007.676758,92.899231 1008.250000,93.000000 
	C1008.500000,93.000000 1009.000000,93.000000 1009.365967,92.995499 
	C1011.487976,91.716232 1013.244080,90.441460 1015.000183,89.166687 
	C1018.030457,89.110886 1021.060669,89.055092 1024.545410,88.999649 
	C1025.000000,92.361290 1025.000000,95.722572 1025.000000,99.541931 
M1020.097717,95.732239 
	C1020.042725,95.232498 1019.987671,94.732765 1019.932678,94.233032 
	C1019.485168,94.347984 1019.037659,94.462944 1018.590149,94.577888 
	C1018.893066,95.004517 1019.195923,95.431145 1020.097717,95.732239 
z"/>
<path fill="#000000" opacity="1.000000" stroke="none" 
	d="
M1.000000,51.468636 
	C3.649572,52.417103 6.299143,53.834209 8.575376,55.051636 
	C6.195760,62.156330 3.944776,68.876976 1.346895,75.298813 
	C1.000000,67.312424 1.000000,59.624847 1.000000,51.468636 
z"/>
<path fill="#FFFFFF" opacity="1.000000" stroke="none" 
	d="
M1025.000000,72.583328 
	C1024.551392,72.995987 1024.102783,72.991982 1023.273193,72.600693 
	C1021.799927,70.733810 1020.053040,69.220299 1023.112610,67.955666 
	C1023.572693,68.159561 1024.032837,68.363449 1024.746460,68.283676 
	C1025.000000,69.388893 1025.000000,70.777779 1025.000000,72.583328 
z"/>
<path fill="#FFFFFF" opacity="1.000000" stroke="none" 
	d="
M599.023926,56.999989 
	C604.583313,55.604633 606.051453,59.058197 606.939636,62.851891 
	C610.421875,77.726746 613.777039,92.631332 617.218750,107.515785 
	C617.312439,107.921013 617.852722,108.222954 618.332886,108.729172 
	C622.736084,91.478233 627.095093,74.400131 631.468079,57.267513 
	C631.692627,57.202225 632.003235,57.036282 632.316040,57.031918 
	C642.689575,56.887096 642.989319,56.805599 645.660706,66.362030 
	C649.579041,80.379082 653.017761,94.530197 656.938904,109.699997 
	C661.229675,91.609047 665.315552,74.382141 669.411011,57.114780 
	C672.875793,57.114780 676.175537,57.114780 680.204407,57.114780 
	C679.091553,62.282814 678.169006,67.245125 676.943848,72.131561 
	C673.000671,87.858788 668.912231,103.549614 664.959778,119.274567 
	C664.081116,122.770393 662.416626,124.606758 658.488525,124.066986 
	C655.886047,123.709366 653.194519,123.999214 650.299988,123.999214 
	C646.004639,106.414307 641.744202,88.972176 637.461365,71.438545 
	C633.265686,88.969017 629.075439,106.477066 624.900208,123.922363 
	C620.174438,123.922363 616.021484,123.922363 611.516541,123.922363 
	C605.849976,101.900681 600.156006,79.772232 594.361511,57.253197 
	C596.312439,57.135815 597.441284,57.067894 599.023926,56.999989 
z"/>
<path fill="#FFFFFF" opacity="1.000000" stroke="none" 
	d="
M300.000549,71.278534 
	C300.527039,77.798607 298.484528,82.881615 293.438416,87.119392 
	C294.953766,88.167465 296.118652,88.934196 297.242523,89.756905 
	C303.464142,94.311340 303.842163,100.996864 302.854156,107.575340 
	C301.736603,115.016663 296.682343,120.029709 289.584442,121.823540 
	C283.656189,123.321785 277.364746,123.529396 271.209534,123.936119 
	C266.403015,124.253716 261.558746,123.999733 256.365387,123.999733 
	C256.365387,101.768669 256.365387,79.595535 256.365387,56.549538 
	C267.058563,57.032803 277.797211,56.894547 288.350586,58.225357 
	C294.840302,59.043724 299.089813,63.878357 300.000549,71.278534 
M273.537598,94.000809 
	C272.692474,94.653740 271.148132,95.273483 271.115326,95.964958 
	C270.897064,100.563065 271.002197,105.176521 271.002197,109.999573 
	C273.999481,109.999573 276.491150,110.188461 278.942932,109.956505 
	C282.888336,109.583252 286.485992,107.860947 287.390259,103.879951 
	C287.859222,101.815460 286.827911,98.057961 285.272400,97.169319 
	C282.102539,95.358414 278.118225,94.973099 273.537598,94.000809 
M281.937866,71.422195 
	C278.401215,70.797180 274.864532,70.172157 271.000122,69.489220 
	C271.000122,72.609856 271.000092,74.585426 271.000092,76.560997 
	C271.000092,78.652870 271.000122,80.744743 271.000122,82.999489 
	C273.886108,82.999489 276.353790,83.515587 278.453583,82.857651 
	C280.654266,82.168106 283.138885,80.767776 284.343384,78.923218 
	C285.863861,76.594749 285.550995,73.682610 281.937866,71.422195 
z"/>
<path fill="#FFFFFF" opacity="1.000000" stroke="none" 
	d="
M214.066986,123.031723 
	C201.084610,120.910004 195.038040,111.690948 194.232513,99.819855 
	C193.256378,85.434448 194.000916,70.932281 194.000916,56.241150 
	C199.374527,56.241150 204.443436,56.241150 210.000244,56.241150 
	C210.000244,69.399063 210.241470,82.502121 209.918243,95.591240 
	C209.690033,104.832909 214.899948,110.330116 225.189392,109.001923 
	C229.968658,108.384995 233.948608,102.946808 233.979980,96.596397 
	C234.045746,83.286125 233.999924,69.975288 233.999924,56.332443 
	C239.184845,56.332443 244.256927,56.332443 250.000381,56.332443 
	C250.000381,59.524815 250.071518,62.945545 249.987579,66.362465 
	C249.687149,78.591309 249.657379,90.838753 248.906906,103.041122 
	C248.206039,114.436981 237.132614,123.156471 226.186600,123.907074 
	C222.329895,124.171547 218.400284,123.372452 214.066986,123.031723 
z"/>
<path fill="#FFFFFF" opacity="1.000000" stroke="none" 
	d="
M753.000061,94.987122 
	C753.000061,82.184052 753.000061,69.878288 753.000061,57.286945 
	C756.282837,57.286945 759.354614,57.286945 762.717896,57.286945 
	C762.717896,79.274826 762.717896,101.343903 762.717896,123.998497 
	C759.215820,123.998497 755.600769,124.185944 752.026428,123.887390 
	C750.914673,123.794525 749.541992,122.603592 748.918701,121.544571 
	C743.209045,111.844337 737.614075,102.076164 732.034973,92.299660 
	C727.842834,84.953712 723.723145,77.566437 719.507080,70.083855 
	C719.507080,88.036980 719.507080,105.701805 719.507080,123.684525 
	C716.774719,123.684525 713.702087,123.684525 710.309326,123.684525 
	C710.309326,101.784302 710.309326,79.714462 710.309326,57.006031 
	C713.891418,57.006031 717.926514,56.166409 721.305847,57.293301 
	C723.663757,58.079578 725.485901,61.352695 726.924438,63.870831 
	C735.424866,78.750809 743.742859,93.734985 753.000061,108.546005 
	C753.000061,104.192146 753.000061,99.838280 753.000061,94.987122 
z"/>
<path fill="#FFFFFF" opacity="1.000000" stroke="none" 
	d="
M466.999695,111.989738 
	C466.999664,116.130692 466.999664,119.775200 466.999664,123.709015 
	C461.724213,123.709015 456.652924,123.709015 451.288269,123.709015 
	C451.288269,101.721939 451.288269,79.655472 451.288269,57.293591 
	C466.269226,57.293591 481.337738,57.293591 496.704285,57.293591 
	C496.704285,61.597076 496.704285,66.002747 496.704285,70.810074 
	C487.069916,70.810074 477.326874,70.810074 467.294373,70.810074 
	C467.294373,75.601486 467.294373,80.007050 467.294373,84.815521 
	C476.267487,84.815521 485.344788,84.815521 494.708160,84.815521 
	C494.708160,88.938011 494.708160,92.678238 494.708160,96.819679 
	C485.729828,96.819679 476.651428,96.819679 466.999756,96.819679 
	C466.999756,101.963165 466.999756,106.728226 466.999695,111.989738 
z"/>
<path fill="#FFFFFF" opacity="1.000000" stroke="none" 
	d="
M534.999512,56.999680 
	C541.475281,56.999649 547.451111,56.999649 553.713013,56.999649 
	C553.713013,61.613739 553.713013,66.019485 553.713013,70.828018 
	C548.052185,70.828018 542.306519,70.828018 536.174072,70.828018 
	C536.174072,88.621033 536.174072,106.024986 536.174072,123.712700 
	C530.718262,123.712700 525.646606,123.712700 520.175293,123.712700 
	C520.175293,106.380989 520.175293,88.976784 520.175293,71.177055 
	C514.054321,71.177055 508.309296,71.177055 502.285278,71.177055 
	C502.285278,66.383469 502.285278,61.977596 502.285278,56.999710 
	C512.974731,56.999710 523.737183,56.999710 534.999512,56.999680 
z"/>
<path fill="#FFFFFF" opacity="1.000000" stroke="none" 
	d="
M911.999634,76.000526 
	C911.999695,69.524513 911.999695,63.548389 911.999695,57.286819 
	C926.285339,57.286819 940.354553,57.286819 954.713013,57.286819 
	C954.713013,59.949596 954.713013,62.688419 954.713013,65.826630 
	C944.065308,65.826630 933.317932,65.826630 922.287720,65.826630 
	C922.287720,72.615517 922.287720,79.020851 922.287720,85.831093 
	C931.951843,85.831093 941.695496,85.831093 951.716675,85.831093 
	C951.716675,88.622734 951.716675,91.026848 951.716675,93.833755 
	C942.065369,93.833755 932.315002,93.833755 922.284668,93.833755 
	C922.284668,100.955124 922.284668,107.692635 922.284668,114.835068 
	C933.289795,114.835068 944.365051,114.835068 955.717529,114.835068 
	C955.717529,117.958755 955.717529,120.697296 955.717529,123.721405 
	C941.385498,123.721405 926.977722,123.721405 911.999573,123.721405 
	C911.999573,108.020462 911.999573,92.260445 911.999634,76.000526 
z"/>
<path fill="#FFFFFF" opacity="1.000000" stroke="none" 
	d="
M892.774048,58.949642 
	C901.616455,63.754272 905.347900,72.837692 902.819458,82.510735 
	C900.677979,90.703827 892.940491,96.712578 883.987000,96.976837 
	C879.515808,97.108810 875.037476,96.999817 870.165039,96.999817 
	C870.165039,105.955536 870.165039,114.699112 870.165039,123.717918 
	C866.709534,123.717918 863.635681,123.717918 860.277466,123.717918 
	C860.277466,101.713882 860.277466,79.644501 860.277466,56.150036 
	C871.001038,57.063946 881.691162,57.975006 892.774048,58.949642 
M891.095215,83.357018 
	C896.020569,74.067505 891.952515,67.815231 883.871887,66.174835 
	C879.472656,65.281769 874.743225,66.015472 870.291260,66.015472 
	C870.291260,73.684814 870.291260,80.747490 870.291260,88.043343 
	C877.459900,87.639572 884.712891,89.433456 891.095215,83.357018 
z"/>
<path fill="#FEFEFE" opacity="1.000000" stroke="none" 
	d="
M445.833282,85.000069 
	C446.625977,93.256081 446.086853,101.407471 441.616516,108.569336 
	C439.768829,111.529526 436.457733,113.582291 433.786407,116.019478 
	C432.692596,117.017433 431.671753,118.252159 430.373596,118.840446 
	C426.171265,120.744781 421.982880,123.277710 417.550415,123.919167 
	C412.445160,124.658005 406.731476,124.740257 401.901611,123.184349 
	C385.999756,118.061699 376.912933,108.117203 378.459778,88.398148 
	C383.977539,87.272675 389.047302,86.656639 394.062927,86.435104 
	C393.950317,87.886375 393.891876,88.943153 393.409027,89.999947 
	C389.470306,90.481941 385.955963,90.963913 382.441620,91.445877 
	C382.465515,91.884079 382.489380,92.322281 382.513245,92.760483 
	C385.167511,93.372360 387.821808,93.984230 390.476074,94.596107 
	C390.287842,95.004265 390.099609,95.412422 389.911377,95.820580 
	C391.552002,96.880486 393.192657,97.940399 394.974792,99.323486 
	C398.839294,105.090607 403.183197,109.673134 410.349487,109.986198 
	C419.906067,110.403687 425.989563,105.515594 429.880432,97.498657 
	C432.812378,98.349876 435.546692,98.794235 438.280975,99.238594 
	C438.407166,98.803627 438.533386,98.368660 438.659576,97.933701 
	C437.504211,96.956223 436.348846,95.978745 435.349731,95.133476 
	C435.971802,93.507797 436.469940,92.206055 437.096161,90.569519 
	C434.726593,90.000374 432.830627,89.544975 430.940796,89.097366 
	C430.946930,89.105148 430.960632,89.118027 431.238647,88.743805 
	C436.288879,87.246407 441.061096,86.123238 445.833282,85.000069 
z"/>
<path fill="#FEFEFE" opacity="1.000000" stroke="none" 
	d="
M356.040436,82.882767 
	C373.472717,87.167145 379.778198,98.717300 371.944489,114.468849 
	C367.477905,123.449921 358.408600,125.358566 349.402649,124.835136 
	C339.377380,124.252464 330.925140,120.181831 326.830414,109.316345 
	C329.917633,107.018044 332.966034,104.306328 336.457703,102.411369 
	C337.543701,101.821999 340.177094,103.030914 341.498627,104.137367 
	C344.724396,106.838196 347.196167,111.107925 352.204132,109.872070 
	C354.633362,109.272598 357.737732,107.838364 358.743927,105.867111 
	C360.313232,102.792618 358.367157,99.656319 355.299591,98.100716 
	C351.458313,96.152748 347.386597,94.655472 343.399200,93.000183 
	C336.444427,90.113052 331.099457,85.826660 330.457855,77.447510 
	C333.797852,78.038399 336.692200,78.966843 339.905029,79.997452 
	C339.406006,81.415054 338.895813,82.864311 338.170380,84.925064 
	C343.833282,84.925064 349.046692,84.992645 354.253296,84.835106 
	C354.868134,84.816513 355.445648,83.563530 356.040436,82.882767 
z"/>
<path fill="#FFFFFF" opacity="1.000000" stroke="none" 
	d="
M445.910339,84.598297 
	C441.061096,86.123238 436.288879,87.246407 430.871155,88.547157 
	C429.974274,73.119469 413.506439,63.951706 399.841278,74.110413 
	C399.471741,76.381302 399.605957,78.165108 398.877167,79.465141 
	C397.562866,81.809647 395.732117,83.864677 394.117065,86.040611 
	C389.047302,86.656639 383.977539,87.272675 378.537170,87.944336 
	C379.452484,83.585632 380.491516,79.078804 382.100067,74.785324 
	C383.461517,71.151405 386.506500,68.593750 387.823029,64.474976 
	C388.865234,61.214294 394.547211,58.663139 398.665863,57.312305 
	C408.790619,53.991615 419.000397,54.101685 428.745728,59.294250 
	C437.403076,63.907082 442.966187,70.832588 445.014313,80.494659 
	C445.278564,81.741348 445.660156,82.963173 445.910339,84.598297 
z"/>
<path fill="#FEFEFE" opacity="1.000000" stroke="none" 
	d="
M802.114502,83.957825 
	C806.066040,90.523323 810.032776,97.079720 813.959656,103.659882 
	C815.138062,105.634560 816.205383,107.675514 818.019470,110.937477 
	C818.019470,92.129265 818.019470,74.770615 818.019470,57.208443 
	C821.436096,57.208443 824.504272,57.208443 827.787598,57.208443 
	C827.787598,79.409676 827.787598,101.462372 827.787598,123.757698 
	C823.271423,123.757698 818.841675,123.757698 814.513000,123.757698 
	C807.675781,111.782692 800.838806,99.808205 794.182007,87.172966 
	C796.946350,85.660751 799.530457,84.809280 802.114502,83.957825 
z"/>
<path fill="#FFFFFF" opacity="1.000000" stroke="none" 
	d="
M322.999695,115.947739 
	C322.999756,118.756371 322.999756,121.073212 322.999756,123.693268 
	C318.089813,123.693268 313.351654,123.693268 308.302612,123.693268 
	C308.302612,101.748375 308.302612,79.678093 308.302612,57.303024 
	C312.917053,57.303024 317.656281,57.303024 322.999634,57.303024 
	C322.999634,76.608040 322.999634,96.031990 322.999695,115.947739 
z"/>
<path fill="#FFFFFF" opacity="1.000000" stroke="none" 
	d="
M355.885864,82.549271 
	C355.445648,83.563530 354.868134,84.816513 354.253296,84.835106 
	C349.046692,84.992645 343.833282,84.925064 338.170380,84.925064 
	C338.895813,82.864311 339.406006,81.415054 339.905029,79.997452 
	C336.692200,78.966843 333.797852,78.038399 330.535156,77.055054 
	C329.280365,60.002834 344.451172,50.172951 360.079834,57.507160 
	C361.909058,58.365578 364.674469,57.695068 366.100708,58.850609 
	C369.222321,61.379753 371.762421,64.626656 374.932068,67.997360 
	C370.080505,71.295807 366.184235,73.944756 362.032745,76.767235 
	C359.336182,71.141426 355.492279,68.101212 349.929840,69.177444 
	C347.793213,69.590836 345.271149,71.656006 344.416046,73.618378 
	C343.938782,74.713646 346.148712,77.681412 347.817780,78.840401 
	C350.124573,80.442238 353.063232,81.134171 355.885864,82.549271 
M338.472046,73.685432 
	C339.020172,74.024719 339.568268,74.364014 340.116425,74.703308 
	C340.251495,74.428566 340.386597,74.153831 340.521667,73.879082 
	C339.984924,73.673683 339.448181,73.468285 338.472046,73.685432 
z"/>
<path fill="#FFFFFF" opacity="1.000000" stroke="none" 
	d="
M849.000366,78.000137 
	C849.000305,93.474915 849.000305,108.449707 849.000305,123.711617 
	C845.722107,123.711617 842.647339,123.711617 839.282776,123.711617 
	C839.282776,101.723412 839.282776,79.650520 839.282776,57.288181 
	C842.277771,57.288181 845.352539,57.288181 849.000427,57.288181 
	C849.000427,63.961098 849.000427,70.730629 849.000366,78.000137 
z"/>
<path fill="#FFFFFF" opacity="1.000000" stroke="none" 
	d="
M698.999756,108.995972 
	C698.999756,114.139328 698.999756,118.783401 698.999756,123.712616 
	C695.720520,123.712616 692.645813,123.712616 689.281982,123.712616 
	C689.281982,101.721085 689.281982,79.648071 689.281982,57.286884 
	C692.280090,57.286884 695.354797,57.286884 698.999817,57.286884 
	C698.999817,74.300888 698.999817,91.398788 698.999756,108.995972 
z"/>
<path fill="#FFFFFF" opacity="1.000000" stroke="none" 
	d="
M1023.056946,67.575470 
	C1020.053040,69.220299 1021.799927,70.733810 1022.945740,72.523376 
	C1020.753052,73.480560 1018.506714,74.127777 1016.250183,74.132721 
	C1016.612854,72.344887 1016.985718,71.199333 1017.358582,70.053772 
	C1015.868469,70.050766 1014.378296,70.047768 1012.888184,70.044769 
	C1004.562256,64.181053 995.799805,62.941257 986.648499,67.897369 
	C981.314270,70.786240 977.882751,75.385300 975.782959,81.446030 
	C974.183716,80.844620 972.778320,79.925278 971.372925,79.005936 
	C971.055664,79.363693 970.738464,79.721443 970.421204,80.079201 
	C970.911926,81.436691 971.402710,82.794189 971.997498,84.439674 
	C969.644531,84.615944 967.631226,84.766769 965.251465,84.937782 
	C965.771973,77.819557 968.538208,72.075073 973.542664,66.356125 
	C980.214783,58.731285 988.354004,55.998642 997.327026,55.535393 
	C1004.026123,55.189541 1011.188354,56.166351 1016.778809,61.005241 
	C1018.985535,62.915386 1020.934753,65.123070 1023.056946,67.575470 
z"/>
<path fill="#FFFFFF" opacity="1.000000" stroke="none" 
	d="
M802.059387,83.589211 
	C799.530457,84.809280 796.946350,85.660751 794.156860,86.809898 
	C791.903320,82.839943 790.024841,78.477272 787.715576,74.355995 
	C786.901855,72.903755 785.033813,72.042252 783.467712,70.764664 
	C783.654846,74.132500 783.821350,77.129463 783.576294,80.498016 
	C780.004700,77.878235 778.297974,79.204010 776.951050,82.729134 
	C776.469360,83.989815 775.119995,84.918976 774.166626,85.999458 
	C774.114990,77.308441 774.063354,68.617424 774.499878,59.463432 
	C776.737549,59.294899 778.576111,60.061783 780.211914,59.753399 
	C781.910278,59.433224 783.412537,58.072582 785.000488,57.166965 
	C786.017700,57.553661 787.549011,57.641914 787.973328,58.372799 
	C792.748413,66.598396 797.353516,74.922745 802.059387,83.589211 
z"/>
<path fill="#FFFFFF" opacity="1.000000" stroke="none" 
	d="
M774.089172,86.462463 
	C775.119995,84.918976 776.469360,83.989815 776.951050,82.729134 
	C778.297974,79.204010 780.004700,77.878235 783.499023,80.934456 
	C783.884705,81.445885 783.936035,81.892471 783.629517,82.713013 
	C782.977417,83.405357 782.683167,83.723732 782.388916,84.042099 
	C782.870422,84.361412 783.351929,84.680740 783.833435,85.000061 
	C783.885010,90.025703 783.936584,95.051353 783.536621,100.485626 
	C779.009338,99.137283 776.946716,100.026062 776.853210,104.913490 
	C776.820435,106.625282 775.110596,108.304977 774.166626,109.999336 
	C774.114990,102.308052 774.063354,94.616753 774.089172,86.462463 
z"/>
<path fill="#FEFEFE" opacity="1.000000" stroke="none" 
	d="
M774.089233,110.460022 
	C775.110596,108.304977 776.820435,106.625282 776.853210,104.913490 
	C776.946716,100.026062 779.009338,99.137283 783.459351,100.946823 
	C783.833496,108.544678 783.833496,116.089943 783.833496,123.815445 
	C780.534546,123.815445 777.482971,123.815445 774.011841,123.815445 
	C774.011841,119.415337 774.011841,115.168030 774.089233,110.460022 
z"/>
<path fill="#FEFEFE" opacity="1.000000" stroke="none" 
	d="
M784.548706,57.089581 
	C783.412537,58.072582 781.910278,59.433224 780.211914,59.753399 
	C778.576111,60.061783 776.737549,59.294899 774.577332,59.000481 
	C774.723816,58.334908 775.241516,57.139763 775.845215,57.094582 
	C778.582520,56.889740 781.344055,57.009365 784.548706,57.089581 
z"/>
<path fill="#FFFFFF" opacity="1.000000" stroke="none" 
	d="
M783.910278,84.669662 
	C783.351929,84.680740 782.870422,84.361412 782.388916,84.042099 
	C782.683167,83.723732 782.977417,83.405357 783.552551,83.043533 
	C783.884644,83.446480 783.935852,83.892876 783.910278,84.669662 
z"/>
<path fill="#000000" opacity="1.000000" stroke="none" 
	d="
M106.271851,20.695230 
	C114.343414,25.082989 122.671661,28.411552 129.722504,33.507542 
	C144.185242,43.960480 152.742386,58.766804 156.472595,76.063881 
	C160.529922,94.877922 157.860794,112.872269 147.916245,129.579895 
	C141.878220,139.724258 133.880585,147.897812 123.648209,153.844254 
	C103.531364,165.534927 75.921967,167.568375 56.162304,151.808212 
	C42.955891,141.274872 36.567982,127.729805 37.160702,111.247261 
	C37.618492,98.517044 43.757294,88.349083 53.924110,81.450699 
	C51.648281,87.302948 48.540596,93.270126 47.006615,99.617615 
	C42.364914,118.824585 52.039093,137.183197 70.319809,143.972687 
	C94.711227,153.031693 120.774948,140.557236 130.023376,117.424179 
	C138.530380,96.145630 136.217361,76.063828 122.145317,57.633720 
	C111.156700,43.241962 96.626450,35.422958 78.711082,32.888950 
	C60.224144,30.274090 43.951653,35.542522 28.529919,44.983669 
	C27.502085,45.612907 26.445456,46.195110 25.071983,46.990410 
	C36.643406,26.416719 69.245422,8.841109 106.271851,20.695230 
z"/>
<path fill="#000000" opacity="1.000000" stroke="none" 
	d="
M65.211243,118.583923 
	C58.402020,104.550484 64.129250,90.430077 78.120331,85.950783 
	C86.631912,83.225769 95.387093,86.188438 99.831001,93.581825 
	C103.806984,100.196701 103.655510,109.043816 97.420082,115.121559 
	C97.209518,115.326797 97.158249,115.695442 97.030907,115.994247 
	C97.153931,116.289314 97.196342,116.693954 97.415627,116.849945 
	C103.758850,121.362053 103.758102,121.852165 97.335930,126.154625 
	C86.478600,133.428391 71.961243,130.140991 65.211243,118.583923 
z"/>
<path fill="#000000" opacity="1.000000" stroke="none" 
	d="
M116.419937,81.775078 
	C109.669937,74.863846 102.780136,68.129646 93.681221,64.275650 
	C76.550781,57.019768 54.932625,58.618748 39.881519,71.485741 
	C25.628534,83.670425 21.164797,99.531555 20.047710,117.561043 
	C19.032026,113.985382 17.459082,110.465240 17.096405,106.824532 
	C15.461483,90.412453 20.201471,75.842896 31.670855,64.017998 
	C39.169979,56.286423 48.649216,51.321877 59.275089,49.044765 
	C82.324234,44.105370 107.461609,57.225872 116.671822,78.262299 
	C116.922234,78.834251 116.900352,79.525406 116.868118,80.748177 
	C116.627174,81.481934 116.523560,81.628502 116.419937,81.775078 
z"/>
<path fill="#000000" opacity="1.000000" stroke="none" 
	d="
M116.905289,81.130341 
	C117.322662,81.488914 117.565536,82.052528 117.808418,82.616135 
	C117.473137,82.484230 117.137848,82.352318 116.611252,81.997742 
	C116.523560,81.628502 116.627174,81.481934 116.905289,81.130341 
z"/>
<path fill="#FFFFFF" opacity="1.000000" stroke="none" 
	d="
M1007.000000,92.000000 
	C1007.000000,92.000000 1006.500000,92.000000 1006.218811,91.521629 
	C1005.811707,90.417686 1005.685791,89.792114 1005.559875,89.166542 
	C1007.440002,89.115067 1009.320068,89.063591 1011.537842,89.415787 
	C1010.916992,90.879639 1009.958496,91.939812 1009.000000,92.999992 
	C1009.000000,93.000000 1008.500000,93.000000 1008.141968,92.780716 
	C1007.584534,92.287910 1007.323242,92.100769 1007.000000,92.000000 
z"/>
<path fill="#FFFFFF" opacity="1.000000" stroke="none" 
	d="
M1005.230469,89.089661 
	C1005.685791,89.792114 1005.811707,90.417686 1005.968811,91.521637 
	C1005.724487,92.520531 1005.448914,93.041054 1005.063171,93.835251 
	C1004.512390,94.068619 1004.071838,94.028313 1003.215637,93.733719 
	C1002.635864,93.259613 1002.424805,93.102936 1002.166870,93.009392 
	C1001.952698,90.907120 1001.142334,88.396965 1005.230469,89.089661 
z"/>
<path fill="#FFFFFF" opacity="1.000000" stroke="none" 
	d="
M1013.010376,70.355515 
	C1014.378296,70.047768 1015.868469,70.050766 1017.358582,70.053772 
	C1016.985718,71.199333 1016.612854,72.344887 1016.096069,73.799530 
	C1015.012329,72.961159 1014.072388,71.813705 1013.010376,70.355515 
z"/>
<path fill="#FFFFFF" opacity="1.000000" stroke="none" 
	d="
M1009.365967,92.995499 
	C1009.958496,91.939812 1010.916992,90.879639 1011.937500,89.492966 
	C1012.752258,89.115067 1013.505127,89.063652 1014.629028,89.089462 
	C1013.244080,90.441460 1011.487976,91.716232 1009.365967,92.995499 
z"/>
<path fill="#FEFEFE" opacity="1.000000" stroke="none" 
	d="
M1002.116821,93.276398 
	C1002.424805,93.102936 1002.635864,93.259613 1002.892273,93.656219 
	C1002.678589,93.736465 1002.372742,93.639938 1002.116821,93.276398 
z"/>
<path fill="#FEFEFE" opacity="1.000000" stroke="none" 
	d="
M1019.798279,95.794998 
	C1019.195923,95.431145 1018.893066,95.004517 1018.590149,94.577896 
	C1019.037659,94.462944 1019.485168,94.347984 1019.932678,94.233032 
	C1019.987671,94.732765 1020.042725,95.232498 1019.798279,95.794998 
z"/>
<path fill="#FFFFFF" opacity="1.000000" stroke="none" 
	d="
M1007.108032,92.219284 
	C1007.323242,92.100769 1007.584534,92.287910 1007.891968,92.780716 
	C1007.676758,92.899231 1007.415466,92.712090 1007.108032,92.219284 
z"/>
<path fill="#000000" opacity="1.000000" stroke="none" 
	d="
M274.003540,94.000626 
	C278.118225,94.973099 282.102539,95.358414 285.272400,97.169319 
	C286.827911,98.057961 287.859222,101.815460 287.390259,103.879951 
	C286.485992,107.860947 282.888336,109.583252 278.942932,109.956505 
	C276.491150,110.188461 273.999481,109.999573 271.002197,109.999573 
	C271.002197,105.176521 270.897064,100.563065 271.115326,95.964958 
	C271.148132,95.273483 272.692474,94.653740 274.003540,94.000626 
z"/>
<path fill="#000000" opacity="1.000000" stroke="none" 
	d="
M282.261353,71.689606 
	C285.550995,73.682610 285.863861,76.594749 284.343384,78.923218 
	C283.138885,80.767776 280.654266,82.168106 278.453583,82.857651 
	C276.353790,83.515587 273.886108,82.999489 271.000122,82.999489 
	C271.000122,80.744743 271.000092,78.652870 271.000092,76.560997 
	C271.000092,74.585426 271.000122,72.609856 271.000122,69.489220 
	C274.864532,70.172157 278.401215,70.797180 282.261353,71.689606 
z"/>
<path fill="#000000" opacity="1.000000" stroke="none" 
	d="
M890.831421,83.656555 
	C884.712891,89.433456 877.459900,87.639572 870.291260,88.043343 
	C870.291260,80.747490 870.291260,73.684814 870.291260,66.015472 
	C874.743225,66.015472 879.472656,65.281769 883.871887,66.174835 
	C891.952515,67.815231 896.020569,74.067505 890.831421,83.656555 
z"/>
<path fill="#000000" opacity="1.000000" stroke="none" 
	d="
M394.062927,86.435112 
	C395.732117,83.864677 397.562866,81.809647 398.877167,79.465141 
	C399.605957,78.165108 399.471741,76.381302 399.841278,74.110413 
	C413.506439,63.951706 429.974274,73.119469 430.593140,88.921387 
	C430.960632,89.118027 430.946930,89.105148 430.971313,89.435272 
	C430.558075,92.207535 430.120422,94.649666 429.682800,97.091805 
	C425.989563,105.515594 419.906067,110.403687 410.349487,109.986198 
	C403.183197,109.673134 398.839294,105.090607 394.914551,98.918304 
	C394.419739,95.459946 394.126587,92.729935 393.833435,89.999924 
	C393.891876,88.943153 393.950317,87.886375 394.062927,86.435112 
z"/>
<path fill="#FFFFFF" opacity="1.000000" stroke="none" 
	d="
M429.880432,97.498657 
	C430.120422,94.649666 430.558075,92.207535 430.965179,89.427490 
	C432.830627,89.544975 434.726593,90.000374 437.096161,90.569519 
	C436.469940,92.206055 435.971802,93.507797 435.349731,95.133476 
	C436.348846,95.978745 437.504211,96.956223 438.659576,97.933701 
	C438.533386,98.368660 438.407166,98.803627 438.280975,99.238594 
	C435.546692,98.794235 432.812378,98.349876 429.880432,97.498657 
z"/>
<path fill="#FFFFFF" opacity="1.000000" stroke="none" 
	d="
M393.409058,89.999947 
	C394.126587,92.729935 394.419739,95.459946 394.773102,98.595131 
	C393.192657,97.940399 391.552002,96.880486 389.911377,95.820580 
	C390.099609,95.412422 390.287842,95.004265 390.476074,94.596107 
	C387.821808,93.984230 385.167511,93.372360 382.513245,92.760483 
	C382.489380,92.322281 382.465515,91.884079 382.441620,91.445877 
	C385.955963,90.963913 389.470306,90.481941 393.409058,89.999947 
z"/>
<path fill="#FEFEFE" opacity="1.000000" stroke="none" 
	d="
M338.691742,73.474159 
	C339.448181,73.468285 339.984924,73.673683 340.521667,73.879089 
	C340.386597,74.153831 340.251495,74.428566 340.116394,74.703308 
	C339.568268,74.364014 339.020172,74.024719 338.691742,73.474159 
z"/>
</svg>