<svg version="1.1" id="Layer_1" xmlns="http://www.w3.org/2000/svg" xmlns:xlink="http://www.w3.org/1999/xlink" x="0px" y="0px"
	 width="100%" viewBox="0 0 1300 450" enable-background="new 0 0 1300 450" xml:space="preserve">
<path fill="#000000" opacity="1.000000" stroke="none" 
	d="
M849.000000,451.000000 
	C566.000000,451.000000 283.500031,451.000000 1.000038,451.000000 
	C1.000025,301.000031 1.000025,151.000046 1.000013,1.000058 
	C434.333282,1.000039 867.666565,1.000039 1301.000000,1.000019 
	C1301.000000,150.999939 1301.000000,300.999878 1301.000000,450.999908 
	C1150.500000,451.000000 1000.000000,451.000000 849.000000,451.000000 
M1244.000000,146.203217 
	C1239.946777,137.976074 1235.893677,129.748932 1231.925049,120.774055 
	C1226.653320,113.833786 1221.381470,106.893524 1215.840454,99.334358 
	C1214.438599,97.935211 1213.146118,96.400993 1211.615967,95.160057 
	C1204.461182,89.358025 1197.240967,83.636780 1189.761841,77.249870 
	C1187.985840,76.149986 1186.302124,74.848846 1184.418213,73.984062 
	C1174.973633,69.648788 1165.476807,65.427742 1155.301270,60.822693 
	C1143.879761,56.766651 1132.082153,54.705559 1119.070435,54.023182 
	C1109.879150,54.349548 1100.622925,54.118416 1091.517212,55.178890 
	C1084.249634,56.025291 1077.165161,58.445335 1069.231689,60.034611 
	C1063.500122,62.176395 1057.613525,63.979420 1052.064209,66.519432 
	C1029.748047,76.733910 1011.282959,91.894150 996.957642,111.732986 
	C987.938354,124.223572 980.683289,137.809677 976.204895,153.353134 
	C976.038696,154.483124 976.007324,155.653137 975.685730,156.737000 
	C971.781982,169.891541 970.280273,183.309082 971.019592,197.912872 
	C971.346375,202.971817 971.062744,208.163666 972.129211,213.061554 
	C974.240295,222.756836 977.097290,232.289703 979.953674,242.523315 
	C983.859985,254.318848 989.486511,265.202606 997.211975,275.680603 
	C1006.250183,287.654236 1016.619202,298.269897 1029.636108,307.135193 
	C1031.050781,308.214233 1032.332764,309.567047 1033.901733,310.328339 
	C1044.887207,315.658783 1055.932251,320.867004 1067.348755,326.786255 
	C1080.658447,330.335693 1093.989502,333.748871 1108.403809,333.817535 
	C1117.386963,333.158478 1126.432983,332.944611 1135.332153,331.689697 
	C1141.657227,330.797821 1147.784180,328.502380 1154.766602,326.963959 
	C1177.172485,320.143951 1196.463501,308.053711 1212.821655,291.501862 
	C1222.681519,281.525085 1231.176514,270.289154 1237.072388,257.437897 
	C1240.415039,250.151978 1242.940063,242.491028 1246.178833,234.303360 
	C1249.993774,223.530273 1251.997070,212.449570 1251.978027,200.073288 
	C1251.596558,191.049240 1251.215088,182.025177 1250.956665,172.188477 
	C1250.638062,170.959320 1250.332642,169.726608 1249.998779,168.501633 
	C1248.041992,161.320190 1246.078613,154.140533 1244.000000,146.203217 
M514.503479,287.987427 
	C517.268494,282.996643 520.033447,278.005829 523.360413,272.000641 
	C513.164917,272.000641 504.209015,272.175293 495.265472,271.919678 
	C491.368256,271.808289 489.222992,273.149933 487.574707,276.691803 
	C480.621948,291.632080 473.424408,306.458588 466.284790,321.311554 
	C465.651459,322.629089 464.789398,323.836700 463.408569,326.136292 
	C463.158813,323.980621 463.031006,323.330322 463.015533,322.677338 
	C462.669098,308.044891 462.321808,293.412445 462.004883,278.779358 
	C461.870911,272.594025 461.328278,272.025177 455.011292,272.003815 
	C449.845306,271.986359 444.643219,272.379700 439.523224,271.894073 
	C434.328613,271.401367 431.555817,273.692017 429.436951,278.033691 
	C423.591492,290.011566 417.557434,301.897400 411.593079,313.817230 
	C409.762390,317.475830 407.915985,321.126617 406.076782,324.780975 
	C405.000000,313.460327 405.068634,302.392883 404.968872,291.326965 
	C404.924011,286.351685 404.487000,281.381165 404.332062,276.405243 
	C404.214508,272.629852 402.113647,271.912659 398.749298,271.942200 
	C383.419037,272.076935 368.085083,272.129669 352.756744,271.910767 
	C348.854919,271.855072 346.806213,273.148285 345.072174,276.635132 
	C335.802643,295.274445 326.281158,313.788513 316.826050,332.335327 
	C316.225189,333.513885 315.449158,334.603149 314.457886,336.217102 
	C313.920258,330.583588 313.285278,325.809235 313.040375,321.014954 
	C312.277802,306.085785 311.606873,291.151184 311.039795,276.213409 
	C310.930267,273.328430 310.054840,271.940155 306.977783,271.975983 
	C298.313385,272.076874 289.646179,272.080902 280.981903,271.976196 
	C277.452698,271.933594 276.732727,273.696411 277.172699,276.726929 
	C281.082336,303.656616 284.940125,330.593903 288.861267,357.521912 
	C290.554413,369.149384 285.398865,377.215027 272.610657,378.049408 
	C268.639557,378.308563 264.640778,378.474030 260.727783,379.123260 
	C259.250183,379.368378 257.113525,380.606079 256.756378,381.824799 
	C254.618469,389.119904 252.911957,396.541412 251.045441,403.981689 
	C260.700226,407.692108 269.975067,405.546143 279.042847,404.354950 
	C297.295807,401.957153 310.640503,391.347137 320.213898,376.355103 
	C332.471863,357.159058 343.846588,337.398376 355.566132,317.859528 
	C361.089447,308.651031 366.529297,299.392487 372.006958,290.156586 
	C373.428223,296.306580 373.679016,302.209717 374.113464,308.099335 
	C375.370392,325.139038 376.830109,342.165222 377.901886,359.216064 
	C378.136047,362.941162 379.340515,364.130249 382.946808,364.054718 
	C391.442047,363.876709 399.948090,363.836395 408.440338,364.075287 
	C412.102509,364.178345 414.142670,362.963013 415.787445,359.631958 
	C421.831757,347.390564 428.174744,335.296478 434.433746,323.161652 
	C434.950500,322.159790 435.681091,321.268250 436.312317,320.325470 
	C436.875275,320.441559 437.438232,320.557648 438.001190,320.673737 
	C438.001190,333.300751 438.125244,345.929657 437.929260,358.553619 
	C437.866486,362.596558 439.053162,364.247040 443.294708,364.073456 
	C450.115753,363.794342 456.974701,363.694733 463.783203,364.098999 
	C468.981140,364.407623 472.626282,363.388031 474.751251,358.045685 
	C476.332703,354.069885 478.970428,350.517151 481.108337,346.759277 
	C492.129120,327.387634 503.140411,308.010590 514.503479,287.987427 
M77.928062,307.410034 
	C73.637840,324.164398 69.323471,340.912628 65.069954,357.676300 
	C63.490574,363.900818 63.600491,363.983215 70.279449,363.996704 
	C77.275444,364.010834 84.294098,363.655243 91.260147,364.112244 
	C96.556892,364.459717 98.958328,362.769897 100.051636,357.424438 
	C102.415695,345.865875 105.544739,334.465912 108.152855,322.953918 
	C108.984314,319.283936 110.589760,317.874603 114.554535,317.886536 
	C124.465675,317.916412 134.459000,318.058014 144.274429,316.912750 
	C166.424332,314.328339 183.934158,299.286835 186.767471,276.047852 
	C188.481964,261.985596 183.191437,245.984909 167.908493,240.704041 
	C160.633408,238.190201 152.770248,236.578918 145.092758,236.201721 
	C130.802063,235.499649 116.447762,236.204529 102.129570,235.887878 
	C97.205734,235.778976 95.182648,237.357986 94.038841,242.188187 
	C88.942200,263.710846 83.432304,285.135620 77.928062,307.410034 
M747.996033,289.504059 
	C743.284790,293.759399 738.573486,298.014771 733.862244,302.270111 
	C733.537598,302.056091 733.213013,301.842041 732.888428,301.628021 
	C738.236755,280.105286 743.585144,258.582550 749.091431,236.424210 
	C746.791992,236.246689 745.200195,236.025909 743.607361,236.017624 
	C736.276917,235.979492 728.935547,236.238602 721.619629,235.911072 
	C717.245728,235.715271 715.573669,237.361984 714.546021,241.545303 
	C705.141663,279.830078 695.507263,318.058319 685.957581,356.307434 
	C685.377258,358.631775 684.945435,360.993134 684.315063,363.943024 
	C694.899780,363.943024 704.700195,364.083374 714.486328,363.771332 
	C715.756409,363.730835 717.617432,361.552460 718.066833,360.028748 
	C719.994446,353.492920 721.475891,346.826324 723.160400,340.217682 
	C724.441589,335.191162 725.783813,330.180176 727.332397,324.271301 
	C734.564331,337.136749 741.126343,349.064301 748.029541,360.790985 
	C748.962830,362.376404 751.576172,363.776123 753.469421,363.853973 
	C761.619324,364.188995 769.790833,363.998962 777.954468,363.999939 
	C780.705078,364.000275 783.455750,364.000000 787.404724,364.000000 
	C777.126160,347.027008 767.539734,331.196991 757.782654,315.085175 
	C774.261230,300.831818 790.283691,286.972961 806.306152,273.114105 
	C792.974365,272.036133 780.327942,271.930298 767.687744,272.161621 
	C765.987976,272.192749 764.045044,273.633240 762.685791,274.919067 
	C757.846436,279.497131 753.210693,284.290344 747.996033,289.504059 
M513.484070,304.128540 
	C512.110107,309.252289 510.243958,314.301422 509.454102,319.513672 
	C507.036560,335.468384 512.989258,354.124878 530.043701,360.867615 
	C535.659729,363.087982 541.818909,364.109009 547.822205,365.140076 
	C562.034851,367.581055 575.625183,364.915283 587.368164,356.873230 
	C606.358154,343.868134 613.887573,324.927948 611.701416,302.350464 
	C610.460083,289.531311 603.480957,280.230713 591.541870,274.739136 
	C578.370422,268.680725 564.683777,268.686157 551.014099,271.620209 
	C533.081238,275.469299 521.246887,287.019440 513.484070,304.128540 
M195.531464,301.000000 
	C199.863602,300.999817 204.200226,300.879272 208.526382,301.040192 
	C211.594284,301.154327 213.670441,300.443665 215.471558,297.520325 
	C218.684875,292.304840 226.419647,290.574524 231.950409,293.171295 
	C235.302429,294.745117 236.939911,297.632416 235.730865,300.882202 
	C234.978470,302.904572 232.581665,305.040436 230.481384,305.683563 
	C226.233643,306.984283 221.637222,307.088867 217.270050,308.067841 
	C204.328842,310.968903 191.051910,312.815582 179.875122,321.017731 
	C168.527771,329.345062 167.918610,349.736694 178.986725,358.330261 
	C191.264084,367.862732 209.981812,368.084198 222.754608,358.893524 
	C223.490555,358.364014 224.476425,358.181824 225.815842,357.652161 
	C225.140961,363.465973 228.154465,364.515930 232.703583,364.052826 
	C235.507095,363.767426 238.363312,364.000000 241.195877,364.000000 
	C246.268280,364.000031 251.340683,364.000000 255.096771,364.000000 
	C256.525055,354.853546 257.453094,346.836975 259.080688,338.965027 
	C261.637604,326.598145 265.080994,314.405762 267.381927,301.997223 
	C269.848328,288.696289 264.726715,276.905823 250.522827,272.750092 
	C234.714798,268.125061 218.871033,268.313507 203.660049,274.849457 
	C192.763260,279.531677 186.373795,288.285034 184.082123,301.000000 
	C187.996048,301.000000 191.271408,301.000000 195.531464,301.000000 
M791.101379,348.203064 
	C793.999573,351.541290 796.475220,355.415253 799.885254,358.104401 
	C806.647949,363.437378 814.966003,364.434387 823.318542,365.394867 
	C835.834961,366.834198 847.909729,365.668182 859.309570,360.270874 
	C872.597046,353.979950 877.795044,338.468842 871.618774,325.162384 
	C867.642517,316.595856 860.026794,312.676331 852.020386,309.167786 
	C845.780884,306.433563 839.395508,304.005371 833.286316,301.010193 
	C829.056274,298.936279 828.891907,294.786407 832.505127,292.350769 
	C837.987183,288.655365 847.100647,291.401306 850.070068,297.234802 
	C850.913269,298.891266 853.239685,300.713623 854.989197,300.824066 
	C861.622864,301.242889 868.300293,300.912384 874.958557,301.024384 
	C878.007385,301.075684 879.149841,299.755219 879.007446,296.821564 
	C878.619629,288.831848 875.099915,282.737457 868.771423,277.791595 
	C854.296936,266.479370 820.652649,267.459595 806.066162,279.510437 
	C796.399719,287.496490 794.875854,306.076355 803.602966,315.106201 
	C810.318970,322.054993 819.229797,324.973419 827.847778,328.488037 
	C831.807190,330.102783 835.955566,331.646790 839.355530,334.130157 
	C842.754700,336.612976 842.194763,339.919983 838.865784,342.421600 
	C831.096985,348.259644 819.083801,343.811066 816.888794,334.489441 
	C816.567017,333.123016 814.559387,331.230072 813.259338,331.170868 
	C806.114502,330.845428 798.946594,331.063843 791.787659,330.989868 
	C788.986450,330.960907 787.601196,332.269440 788.063843,334.924011 
	C788.799866,339.147552 789.864258,343.313904 791.101379,348.203064 
M656.827820,313.371124 
	C657.502319,312.033997 658.069641,310.628784 658.868286,309.370483 
	C665.810730,298.432709 674.152527,293.987488 686.367310,301.161011 
	C687.888062,302.054108 689.498596,302.794434 691.419189,303.787415 
	C693.922791,294.345917 696.304871,285.380096 698.676025,276.411438 
	C699.492249,273.324127 697.573303,272.293304 695.100037,271.543335 
	C685.873535,268.745575 677.325012,269.995453 669.687195,275.960266 
	C666.145386,278.726257 662.881653,281.848236 659.148438,285.108704 
	C659.464355,282.407990 659.683960,280.132202 660.004822,277.870758 
	C660.654541,273.292236 658.773254,271.602081 654.147278,271.922668 
	C649.177429,272.267090 644.165222,271.999908 639.171509,272.000031 
	C630.913208,272.000244 630.924561,272.001862 629.900635,280.035004 
	C629.775330,281.017487 629.457031,281.976257 629.216003,282.942932 
	C625.275879,298.740784 621.324951,314.535889 617.395325,330.336334 
	C614.678772,341.259186 611.991089,352.189209 609.072021,364.000000 
	C616.768005,364.000000 623.704468,364.082458 630.638306,363.982697 
	C644.746094,363.779816 641.323853,365.957977 645.085510,352.698639 
	C648.752319,339.773346 652.672424,326.919952 656.827820,313.371124 
z"/>
<path fill="#231F20" opacity="1.000000" stroke="none" 
	d="
M514.329224,288.311432 
	C503.140411,308.010590 492.129120,327.387634 481.108337,346.759277 
	C478.970428,350.517151 476.332703,354.069885 474.751251,358.045685 
	C472.626282,363.388031 468.981140,364.407623 463.783203,364.098999 
	C456.974701,363.694733 450.115753,363.794342 443.294708,364.073456 
	C439.053162,364.247040 437.866486,362.596558 437.929260,358.553619 
	C438.125244,345.929657 438.001190,333.300751 438.001190,320.673737 
	C437.438232,320.557648 436.875275,320.441559 436.312317,320.325470 
	C435.681091,321.268250 434.950500,322.159790 434.433746,323.161652 
	C428.174744,335.296478 421.831757,347.390564 415.787445,359.631958 
	C414.142670,362.963013 412.102509,364.178345 408.440338,364.075287 
	C399.948090,363.836395 391.442047,363.876709 382.946808,364.054718 
	C379.340515,364.130249 378.136047,362.941162 377.901886,359.216064 
	C376.830109,342.165222 375.370392,325.139038 374.113464,308.099335 
	C373.679016,302.209717 373.428223,296.306580 372.006958,290.156586 
	C366.529297,299.392487 361.089447,308.651031 355.566132,317.859528 
	C343.846588,337.398376 332.471863,357.159058 320.213898,376.355103 
	C310.640503,391.347137 297.295807,401.957153 279.042847,404.354950 
	C269.975067,405.546143 260.700226,407.692108 251.045441,403.981689 
	C252.911957,396.541412 254.618469,389.119904 256.756378,381.824799 
	C257.113525,380.606079 259.250183,379.368378 260.727783,379.123260 
	C264.640778,378.474030 268.639557,378.308563 272.610657,378.049408 
	C285.398865,377.215027 290.554413,369.149384 288.861267,357.521912 
	C284.940125,330.593903 281.082336,303.656616 277.172699,276.726929 
	C276.732727,273.696411 277.452698,271.933594 280.981903,271.976196 
	C289.646179,272.080902 298.313385,272.076874 306.977783,271.975983 
	C310.054840,271.940155 310.930267,273.328430 311.039795,276.213409 
	C311.606873,291.151184 312.277802,306.085785 313.040375,321.014954 
	C313.285278,325.809235 313.920258,330.583588 314.457886,336.217102 
	C315.449158,334.603149 316.225189,333.513885 316.826050,332.335327 
	C326.281158,313.788513 335.802643,295.274445 345.072174,276.635132 
	C346.806213,273.148285 348.854919,271.855072 352.756744,271.910767 
	C368.085083,272.129669 383.419037,272.076935 398.749298,271.942200 
	C402.113647,271.912659 404.214508,272.629852 404.332062,276.405243 
	C404.487000,281.381165 404.924011,286.351685 404.968872,291.326965 
	C405.068634,302.392883 405.000000,313.460327 406.076782,324.780975 
	C407.915985,321.126617 409.762390,317.475830 411.593079,313.817230 
	C417.557434,301.897400 423.591492,290.011566 429.436951,278.033691 
	C431.555817,273.692017 434.328613,271.401367 439.523224,271.894073 
	C444.643219,272.379700 449.845306,271.986359 455.011292,272.003815 
	C461.328278,272.025177 461.870911,272.594025 462.004883,278.779358 
	C462.321808,293.412445 462.669098,308.044891 463.015533,322.677338 
	C463.031006,323.330322 463.158813,323.980621 463.408569,326.136292 
	C464.789398,323.836700 465.651459,322.629089 466.284790,321.311554 
	C473.424408,306.458588 480.621948,291.632080 487.574707,276.691803 
	C489.222992,273.149933 491.368256,271.808289 495.265472,271.919678 
	C504.209015,272.175293 513.164917,272.000641 523.360413,272.000641 
	C520.033447,278.005829 517.268494,282.996643 514.329224,288.311432 
z"/>
<path fill="#231F20" opacity="1.000000" stroke="none" 
	d="
M77.999908,307.002899 
	C83.432304,285.135620 88.942200,263.710846 94.038841,242.188187 
	C95.182648,237.357986 97.205734,235.778976 102.129570,235.887878 
	C116.447762,236.204529 130.802063,235.499649 145.092758,236.201721 
	C152.770248,236.578918 160.633408,238.190201 167.908493,240.704041 
	C183.191437,245.984909 188.481964,261.985596 186.767471,276.047852 
	C183.934158,299.286835 166.424332,314.328339 144.274429,316.912750 
	C134.459000,318.058014 124.465675,317.916412 114.554535,317.886536 
	C110.589760,317.874603 108.984314,319.283936 108.152855,322.953918 
	C105.544739,334.465912 102.415695,345.865875 100.051636,357.424438 
	C98.958328,362.769897 96.556892,364.459717 91.260147,364.112244 
	C84.294098,363.655243 77.275444,364.010834 70.279449,363.996704 
	C63.600491,363.983215 63.490574,363.900818 65.069954,357.676300 
	C69.323471,340.912628 73.637840,324.164398 77.999908,307.002899 
M142.515488,263.684509 
	C137.063232,263.467346 131.605453,263.045929 126.163101,263.193604 
	C124.977859,263.225769 123.194847,265.105011 122.802887,266.457031 
	C120.865425,273.140106 119.398598,279.958038 117.565140,286.673615 
	C116.711143,289.801605 117.679390,291.041321 120.824471,291.003143 
	C125.306961,290.948669 129.791214,291.040833 134.273758,290.989044 
	C143.945786,290.877350 148.836472,286.900513 151.116165,277.376953 
	C152.802841,270.330750 150.198441,265.815613 142.515488,263.684509 
z"/>
<path fill="#231F20" opacity="1.000000" stroke="none" 
	d="
M748.246948,289.253052 
	C753.210693,284.290344 757.846436,279.497131 762.685791,274.919067 
	C764.045044,273.633240 765.987976,272.192749 767.687744,272.161621 
	C780.327942,271.930298 792.974365,272.036133 806.306152,273.114105 
	C790.283691,286.972961 774.261230,300.831818 757.782654,315.085175 
	C767.539734,331.196991 777.126160,347.027008 787.404724,364.000000 
	C783.455750,364.000000 780.705078,364.000275 777.954468,363.999939 
	C769.790833,363.998962 761.619324,364.188995 753.469421,363.853973 
	C751.576172,363.776123 748.962830,362.376404 748.029541,360.790985 
	C741.126343,349.064301 734.564331,337.136749 727.332397,324.271301 
	C725.783813,330.180176 724.441589,335.191162 723.160400,340.217682 
	C721.475891,346.826324 719.994446,353.492920 718.066833,360.028748 
	C717.617432,361.552460 715.756409,363.730835 714.486328,363.771332 
	C704.700195,364.083374 694.899780,363.943024 684.315063,363.943024 
	C684.945435,360.993134 685.377258,358.631775 685.957581,356.307434 
	C695.507263,318.058319 705.141663,279.830078 714.546021,241.545303 
	C715.573669,237.361984 717.245728,235.715271 721.619629,235.911072 
	C728.935547,236.238602 736.276917,235.979492 743.607361,236.017624 
	C745.200195,236.025909 746.791992,236.246689 749.091431,236.424210 
	C743.585144,258.582550 738.236755,280.105286 732.888428,301.628021 
	C733.213013,301.842041 733.537598,302.056091 733.862244,302.270111 
	C738.573486,298.014771 743.284790,293.759399 748.246948,289.253052 
z"/>
<path fill="#231F20" opacity="1.000000" stroke="none" 
	d="
M513.649048,303.782471 
	C521.246887,287.019440 533.081238,275.469299 551.014099,271.620209 
	C564.683777,268.686157 578.370422,268.680725 591.541870,274.739136 
	C603.480957,280.230713 610.460083,289.531311 611.701416,302.350464 
	C613.887573,324.927948 606.358154,343.868134 587.368164,356.873230 
	C575.625183,364.915283 562.034851,367.581055 547.822205,365.140076 
	C541.818909,364.109009 535.659729,363.087982 530.043701,360.867615 
	C512.989258,354.124878 507.036560,335.468384 509.454102,319.513672 
	C510.243958,314.301422 512.110107,309.252289 513.649048,303.782471 
M550.998718,301.580048 
	C545.932495,309.213715 542.643494,317.457977 543.064514,326.765900 
	C543.341492,332.888580 545.403320,338.155029 551.658936,340.724548 
	C558.110352,343.374420 563.412659,341.092255 567.880371,336.549896 
	C576.556946,327.728394 579.210999,316.702789 577.585388,304.885925 
	C576.289673,295.467438 565.799377,291.109253 557.617554,296.018494 
	C555.374878,297.364136 553.516785,299.350616 550.998718,301.580048 
z"/>
<path fill="#231F20" opacity="1.000000" stroke="none" 
	d="
M195.039124,301.000000 
	C191.271408,301.000000 187.996048,301.000000 184.082123,301.000000 
	C186.373795,288.285034 192.763260,279.531677 203.660049,274.849457 
	C218.871033,268.313507 234.714798,268.125061 250.522827,272.750092 
	C264.726715,276.905823 269.848328,288.696289 267.381927,301.997223 
	C265.080994,314.405762 261.637604,326.598145 259.080688,338.965027 
	C257.453094,346.836975 256.525055,354.853546 255.096771,364.000000 
	C251.340683,364.000000 246.268280,364.000031 241.195877,364.000000 
	C238.363312,364.000000 235.507095,363.767426 232.703583,364.052826 
	C228.154465,364.515930 225.140961,363.465973 225.815842,357.652161 
	C224.476425,358.181824 223.490555,358.364014 222.754608,358.893524 
	C209.981812,368.084198 191.264084,367.862732 178.986725,358.330261 
	C167.918610,349.736694 168.527771,329.345062 179.875122,321.017731 
	C191.051910,312.815582 204.328842,310.968903 217.270050,308.067841 
	C221.637222,307.088867 226.233643,306.984283 230.481384,305.683563 
	C232.581665,305.040436 234.978470,302.904572 235.730865,300.882202 
	C236.939911,297.632416 235.302429,294.745117 231.950409,293.171295 
	C226.419647,290.574524 218.684875,292.304840 215.471558,297.520325 
	C213.670441,300.443665 211.594284,301.154327 208.526382,301.040192 
	C204.200226,300.879272 199.863602,300.999817 195.039124,301.000000 
M216.008255,343.781067 
	C226.146149,340.504120 231.231064,333.158203 229.907242,322.633636 
	C223.314545,324.549286 216.763580,326.155426 210.438782,328.399078 
	C206.472687,329.806000 203.622086,332.832031 204.193756,337.538239 
	C204.750153,342.118713 208.688812,342.841766 212.230713,343.785065 
	C213.167267,344.034515 214.212112,343.877319 216.008255,343.781067 
z"/>
<path fill="#231F20" opacity="1.000000" stroke="none" 
	d="
M790.945618,347.853760 
	C789.864258,343.313904 788.799866,339.147552 788.063843,334.924011 
	C787.601196,332.269440 788.986450,330.960907 791.787659,330.989868 
	C798.946594,331.063843 806.114502,330.845428 813.259338,331.170868 
	C814.559387,331.230072 816.567017,333.123016 816.888794,334.489441 
	C819.083801,343.811066 831.096985,348.259644 838.865784,342.421600 
	C842.194763,339.919983 842.754700,336.612976 839.355530,334.130157 
	C835.955566,331.646790 831.807190,330.102783 827.847778,328.488037 
	C819.229797,324.973419 810.318970,322.054993 803.602966,315.106201 
	C794.875854,306.076355 796.399719,287.496490 806.066162,279.510437 
	C820.652649,267.459595 854.296936,266.479370 868.771423,277.791595 
	C875.099915,282.737457 878.619629,288.831848 879.007446,296.821564 
	C879.149841,299.755219 878.007385,301.075684 874.958557,301.024384 
	C868.300293,300.912384 861.622864,301.242889 854.989197,300.824066 
	C853.239685,300.713623 850.913269,298.891266 850.070068,297.234802 
	C847.100647,291.401306 837.987183,288.655365 832.505127,292.350769 
	C828.891907,294.786407 829.056274,298.936279 833.286316,301.010193 
	C839.395508,304.005371 845.780884,306.433563 852.020386,309.167786 
	C860.026794,312.676331 867.642517,316.595856 871.618774,325.162384 
	C877.795044,338.468842 872.597046,353.979950 859.309570,360.270874 
	C847.909729,365.668182 835.834961,366.834198 823.318542,365.394867 
	C814.966003,364.434387 806.647949,363.437378 799.885254,358.104401 
	C796.475220,355.415253 793.999573,351.541290 790.945618,347.853760 
z"/>
<path fill="#231F20" opacity="1.000000" stroke="none" 
	d="
M656.654541,313.703064 
	C652.672424,326.919952 648.752319,339.773346 645.085510,352.698639 
	C641.323853,365.957977 644.746094,363.779816 630.638306,363.982697 
	C623.704468,364.082458 616.768005,364.000000 609.072021,364.000000 
	C611.991089,352.189209 614.678772,341.259186 617.395325,330.336334 
	C621.324951,314.535889 625.275879,298.740784 629.216003,282.942932 
	C629.457031,281.976257 629.775330,281.017487 629.900635,280.035004 
	C630.924561,272.001862 630.913208,272.000244 639.171509,272.000031 
	C644.165222,271.999908 649.177429,272.267090 654.147278,271.922668 
	C658.773254,271.602081 660.654541,273.292236 660.004822,277.870758 
	C659.683960,280.132202 659.464355,282.407990 659.148438,285.108704 
	C662.881653,281.848236 666.145386,278.726257 669.687195,275.960266 
	C677.325012,269.995453 685.873535,268.745575 695.100037,271.543335 
	C697.573303,272.293304 699.492249,273.324127 698.676025,276.411438 
	C696.304871,285.380096 693.922791,294.345917 691.419189,303.787415 
	C689.498596,302.794434 687.888062,302.054108 686.367310,301.161011 
	C674.152527,293.987488 665.810730,298.432709 658.868286,309.370483 
	C658.069641,310.628784 657.502319,312.033997 656.654541,313.703064 
z"/>
<path fill="#FFA551" opacity="1.000000" stroke="none" 
	d="
M971.166626,196.997971 
	C970.280273,183.309082 971.781982,169.891541 975.685730,156.737000 
	C976.007324,155.653137 976.038696,154.483124 976.889160,153.099533 
	C979.014160,151.765305 980.610657,150.840698 981.872864,149.581146 
	C1010.126526,121.387123 1038.352661,93.165512 1066.538940,64.904053 
	C1067.903687,63.535618 1068.855469,61.755383 1069.999512,60.166885 
	C1077.165161,58.445335 1084.249634,56.025291 1091.517212,55.178890 
	C1100.622925,54.118416 1109.879150,54.349548 1119.462402,54.430016 
	C1116.364990,58.928677 1112.846802,62.996262 1109.396973,67.121101 
	C1107.219849,69.724197 1105.145020,72.412804 1102.687500,75.283157 
	C1098.228760,76.032730 1094.107056,76.562187 1089.595947,77.100403 
	C1058.855835,83.377319 1033.628540,97.921700 1015.282654,123.314758 
	C1004.727722,137.924118 996.734619,153.705353 994.593140,172.264389 
	C993.915710,174.358704 993.431946,176.173096 992.615723,178.063766 
	C991.100891,179.230576 989.935059,180.339752 988.733215,181.408478 
	C982.882935,186.610886 977.023071,191.802505 971.166626,196.997971 
z"/>
<path fill="#FF7670" opacity="1.000000" stroke="none" 
	d="
M1153.999634,326.833374 
	C1147.784180,328.502380 1141.657227,330.797821 1135.332153,331.689697 
	C1126.432983,332.944611 1117.386963,333.158478 1108.348877,333.169159 
	C1112.105835,328.603882 1115.995117,324.758423 1119.704956,320.747070 
	C1122.590942,317.626495 1125.253540,314.299225 1128.417236,311.023193 
	C1148.961304,307.653046 1167.588867,300.697479 1183.887085,288.097717 
	C1205.646118,271.276184 1220.460449,249.862854 1227.415527,222.930878 
	C1232.904663,217.995804 1238.019165,213.086945 1243.242065,208.296204 
	C1246.008911,205.758499 1248.963745,203.426086 1251.833740,201.000977 
	C1251.997070,212.449570 1249.993774,223.530273 1245.682373,234.729202 
	C1243.892822,236.167786 1242.478516,237.058975 1241.324585,238.211105 
	C1213.224609,266.265533 1185.143799,294.339172 1157.103516,322.453125 
	C1155.857544,323.702362 1155.024780,325.363861 1153.999634,326.833374 
z"/>
<path fill="#FFA84E" opacity="1.000000" stroke="none" 
	d="
M1069.615601,60.100754 
	C1068.855469,61.755383 1067.903687,63.535618 1066.538940,64.904053 
	C1038.352661,93.165512 1010.126526,121.387123 981.872864,149.581146 
	C980.610657,150.840698 979.014160,151.765305 977.229187,152.902100 
	C980.683289,137.809677 987.938354,124.223572 996.957642,111.732986 
	C1011.282959,91.894150 1029.748047,76.733910 1052.064209,66.519432 
	C1057.613525,63.979420 1063.500122,62.176395 1069.615601,60.100754 
z"/>
<path fill="#FF7472" opacity="1.000000" stroke="none" 
	d="
M1154.383057,326.898651 
	C1155.024780,325.363861 1155.857544,323.702362 1157.103516,322.453125 
	C1185.143799,294.339172 1213.224609,266.265533 1241.324585,238.211105 
	C1242.478516,237.058975 1243.892822,236.167786 1245.509521,235.077011 
	C1242.940063,242.491028 1240.415039,250.151978 1237.072388,257.437897 
	C1231.176514,270.289154 1222.681519,281.525085 1212.821655,291.501862 
	C1196.463501,308.053711 1177.172485,320.143951 1154.383057,326.898651 
z"/>
<path fill="#FF8E60" opacity="1.000000" stroke="none" 
	d="
M1028.999634,306.833130 
	C1016.619202,298.269897 1006.250183,287.654236 997.513184,275.261749 
	C1001.100586,271.837341 1004.705872,269.101196 1007.555054,265.726654 
	C1009.304138,263.655029 1009.895752,260.606140 1011.290405,258.184875 
	C1016.686401,264.318939 1018.078918,264.354584 1023.680176,258.843964 
	C1025.078857,257.467896 1026.629150,256.245850 1028.422852,255.089020 
	C1032.644409,259.477814 1036.311279,263.989594 1040.524048,267.915771 
	C1045.472168,272.527252 1050.894287,276.630157 1055.816895,281.124146 
	C1052.260620,285.080963 1045.944336,287.059601 1047.660156,293.849121 
	C1045.249512,293.800720 1042.447754,293.075745 1041.249268,294.146057 
	C1036.876587,298.050934 1033.038940,302.554932 1028.999634,306.833130 
z"/>
<path fill="#FF8E60" opacity="1.000000" stroke="none" 
	d="
M1190.044067,77.886673 
	C1197.240967,83.636780 1204.461182,89.358025 1211.615967,95.160057 
	C1213.146118,96.400993 1214.438599,97.935211 1215.681641,99.814697 
	C1212.301270,103.415833 1209.102295,106.560204 1205.851562,109.650284 
	C1203.018677,112.343391 1202.663452,115.203346 1204.748291,118.566017 
	C1207.275391,122.641731 1209.595337,126.845856 1211.670044,130.939056 
	C1209.468750,131.510544 1207.372070,131.790176 1205.787231,132.841599 
	C1203.077881,134.639313 1200.689453,136.920609 1198.016357,138.682373 
	C1192.502808,132.002228 1187.370605,125.421646 1181.691650,119.352745 
	C1178.046265,115.457184 1173.595581,112.315308 1169.702148,108.490829 
	C1170.971802,106.891167 1171.979126,105.572205 1173.129272,104.392258 
	C1179.025146,98.343315 1179.037964,98.355797 1174.272095,91.814873 
	C1179.708862,87.026924 1184.876465,82.456795 1190.044067,77.886673 
z"/>
<path fill="#FF9D56" opacity="1.000000" stroke="none" 
	d="
M971.093140,197.455414 
	C977.023071,191.802505 982.882935,186.610886 988.733215,181.408478 
	C989.935059,180.339752 991.100891,179.230576 992.632568,178.513214 
	C992.998474,187.921585 993.015137,196.956757 993.020752,206.421936 
	C994.014404,212.901535 995.019104,218.951172 995.736694,225.170288 
	C990.181702,230.856430 984.913818,236.373062 979.645935,241.889709 
	C977.097290,232.289703 974.240295,222.756836 972.129211,213.061554 
	C971.062744,208.163666 971.346375,202.971817 971.093140,197.455414 
z"/>
<path fill="#FF7F6B" opacity="1.000000" stroke="none" 
	d="
M1128.015503,311.063843 
	C1125.253540,314.299225 1122.590942,317.626495 1119.704956,320.747070 
	C1115.995117,324.758423 1112.105835,328.603882 1108.122803,332.814209 
	C1093.989502,333.748871 1080.658447,330.335693 1067.226440,326.107178 
	C1068.430176,323.757874 1069.657959,321.996796 1071.101685,320.435242 
	C1074.681396,316.563324 1078.359741,312.782562 1082.253052,308.962219 
	C1082.677124,308.954926 1082.846802,308.950592 1083.422119,308.988678 
	C1089.520996,309.979584 1095.191895,311.515594 1100.912720,311.732330 
	C1108.588379,312.023071 1116.302734,311.293793 1124.401855,310.996460 
	C1125.874023,311.014954 1126.944824,311.039429 1128.015503,311.063843 
z"/>
<path fill="#FF8566" opacity="1.000000" stroke="none" 
	d="
M1081.998535,308.965210 
	C1078.359741,312.782562 1074.681396,316.563324 1071.101685,320.435242 
	C1069.657959,321.996796 1068.430176,323.757874 1067.031128,325.771240 
	C1055.932251,320.867004 1044.887207,315.658783 1033.901733,310.328339 
	C1032.332764,309.567047 1031.050781,308.214233 1029.317871,306.984192 
	C1033.038940,302.554932 1036.876587,298.050934 1041.249268,294.146057 
	C1042.447754,293.075745 1045.249512,293.800720 1047.968994,294.000763 
	C1053.130371,296.703400 1057.502319,299.423309 1062.179199,301.434357 
	C1068.665649,304.223633 1075.381104,306.480438 1081.998535,308.965210 
z"/>
<path fill="#FF975A" opacity="1.000000" stroke="none" 
	d="
M979.799805,242.206512 
	C984.913818,236.373062 990.181702,230.856430 995.958496,225.444611 
	C997.656799,229.027634 998.846069,232.505829 1000.181946,236.307587 
	C1003.888062,243.752808 1007.447632,250.874466 1011.007141,257.996124 
	C1009.895752,260.606140 1009.304138,263.655029 1007.555054,265.726654 
	C1004.705872,269.101196 1001.100586,271.837341 997.490479,274.920349 
	C989.486511,265.202606 983.859985,254.318848 979.799805,242.206512 
z"/>
<path fill="#FF975A" opacity="1.000000" stroke="none" 
	d="
M1189.902954,77.568268 
	C1184.876465,82.456795 1179.708862,87.026924 1173.917725,91.740379 
	C1161.866455,87.253731 1150.438843,82.623764 1139.314575,77.845917 
	C1145.078125,72.187553 1150.538208,66.677055 1155.998291,61.166542 
	C1165.476807,65.427742 1174.973633,69.648788 1184.418213,73.984062 
	C1186.302124,74.848846 1187.985840,76.149986 1189.902954,77.568268 
z"/>
<path fill="#FF9D56" opacity="1.000000" stroke="none" 
	d="
M1155.649780,60.994625 
	C1150.538208,66.677055 1145.078125,72.187553 1138.921143,77.821655 
	C1136.144653,77.641693 1134.065063,77.338120 1131.580566,76.952606 
	C1121.791870,76.268135 1112.408081,75.665604 1103.024292,75.063057 
	C1105.145020,72.412804 1107.219849,69.724197 1109.396973,67.121101 
	C1112.846802,62.996262 1116.364990,58.928677 1119.926025,54.502052 
	C1132.082153,54.705559 1143.879761,56.766651 1155.649780,60.994625 
z"/>
<path fill="#FF796E" opacity="1.000000" stroke="none" 
	d="
M1251.905884,200.537140 
	C1248.963745,203.426086 1246.008911,205.758499 1243.242065,208.296204 
	C1238.019165,213.086945 1232.904663,217.995804 1227.452759,222.545624 
	C1228.401367,215.167847 1229.642334,208.100006 1230.917725,200.568863 
	C1230.979980,196.406418 1231.007812,192.707291 1231.368774,188.935181 
	C1234.974487,185.901779 1238.158447,182.834915 1241.546265,180.012955 
	C1244.523315,177.533188 1247.729004,175.327744 1250.833618,173.001144 
	C1251.215088,182.025177 1251.596558,191.049240 1251.905884,200.537140 
z"/>
<path fill="#FF8566" opacity="1.000000" stroke="none" 
	d="
M1231.840576,121.521805 
	C1235.893677,129.748932 1239.946777,137.976074 1243.715332,146.654144 
	C1237.946899,152.403473 1232.463257,157.701843 1226.782837,162.794525 
	C1226.383667,162.062317 1226.181152,161.535797 1225.916504,160.638672 
	C1222.902710,152.845779 1219.951416,145.423508 1217.149902,137.691101 
	C1222.146729,132.094589 1226.993652,126.808212 1231.840576,121.521805 
z"/>
<path fill="#FF7F6B" opacity="1.000000" stroke="none" 
	d="
M1226.979614,163.000244 
	C1232.463257,157.701843 1237.946899,152.403473 1243.774048,147.032684 
	C1246.078613,154.140533 1248.041992,161.320190 1249.998779,168.501633 
	C1250.332642,169.726608 1250.638062,170.959320 1250.895142,172.594818 
	C1247.729004,175.327744 1244.523315,177.533188 1241.546265,180.012955 
	C1238.158447,182.834915 1234.974487,185.901779 1231.353027,188.499725 
	C1229.662598,179.758240 1228.321045,171.379257 1226.979614,163.000244 
z"/>
<path fill="#FF8A63" opacity="1.000000" stroke="none" 
	d="
M1231.882812,121.147934 
	C1226.993652,126.808212 1222.146729,132.094589 1216.913574,137.458801 
	C1215.019653,135.355896 1213.512207,133.175171 1212.004883,130.994415 
	C1209.595337,126.845856 1207.275391,122.641731 1204.748291,118.566017 
	C1202.663452,115.203346 1203.018677,112.343391 1205.851562,109.650284 
	C1209.102295,106.560204 1212.301270,103.415833 1215.816162,100.124153 
	C1221.381470,106.893524 1226.653320,113.833786 1231.882812,121.147934 
z"/>
<path fill="#000000" opacity="1.000000" stroke="none" 
	d="
M142.921936,263.780090 
	C150.198441,265.815613 152.802841,270.330750 151.116165,277.376953 
	C148.836472,286.900513 143.945786,290.877350 134.273758,290.989044 
	C129.791214,291.040833 125.306961,290.948669 120.824471,291.003143 
	C117.679390,291.041321 116.711143,289.801605 117.565140,286.673615 
	C119.398598,279.958038 120.865425,273.140106 122.802887,266.457031 
	C123.194847,265.105011 124.977859,263.225769 126.163101,263.193604 
	C131.605453,263.045929 137.063232,263.467346 142.921936,263.780090 
z"/>
<path fill="#000000" opacity="1.000000" stroke="none" 
	d="
M551.240479,301.311523 
	C553.516785,299.350616 555.374878,297.364136 557.617554,296.018494 
	C565.799377,291.109253 576.289673,295.467438 577.585388,304.885925 
	C579.210999,316.702789 576.556946,327.728394 567.880371,336.549896 
	C563.412659,341.092255 558.110352,343.374420 551.658936,340.724548 
	C545.403320,338.155029 543.341492,332.888580 543.064514,326.765900 
	C542.643494,317.457977 545.932495,309.213715 551.240479,301.311523 
z"/>
<path fill="#000000" opacity="1.000000" stroke="none" 
	d="
M215.607758,343.843964 
	C214.212112,343.877319 213.167267,344.034515 212.230713,343.785065 
	C208.688812,342.841766 204.750153,342.118713 204.193756,337.538239 
	C203.622086,332.832031 206.472687,329.806000 210.438782,328.399078 
	C216.763580,326.155426 223.314545,324.549286 229.907242,322.633636 
	C231.231064,333.158203 226.146149,340.504120 215.607758,343.843964 
z"/>
<path fill="#FF7472" opacity="1.000000" stroke="none" 
	d="
M994.786804,171.984436 
	C996.734619,153.705353 1004.727722,137.924118 1015.282654,123.314758 
	C1033.628540,97.921700 1058.855835,83.377319 1089.578369,77.451241 
	C1085.885010,82.443909 1081.738281,87.026718 1077.796753,91.779610 
	C1076.289429,93.597214 1075.251221,95.803902 1073.666504,97.994217 
	C1068.894165,100.435959 1064.429321,102.669479 1060.019409,105.006676 
	C1047.987549,111.383568 1038.237427,120.593903 1030.146484,131.253052 
	C1024.336304,138.907532 1020.071533,147.735214 1014.749756,156.049973 
	C1012.273193,157.521820 1010.042603,158.837234 1008.080078,160.474045 
	C1003.579529,164.227539 999.209717,168.137833 994.786804,171.984436 
z"/>
<path fill="#FF796E" opacity="1.000000" stroke="none" 
	d="
M1073.999268,97.833298 
	C1075.251221,95.803902 1076.289429,93.597214 1077.796753,91.779610 
	C1081.738281,87.026718 1085.885010,82.443909 1089.967529,77.442482 
	C1094.107056,76.562187 1098.228760,76.032730 1102.687500,75.283173 
	C1112.408081,75.665604 1121.791870,76.268135 1131.564209,77.309418 
	C1130.601440,79.699051 1129.310059,81.694901 1127.884277,83.589684 
	C1125.964722,86.140701 1123.941406,88.613808 1121.498901,91.068573 
	C1114.569702,91.070747 1107.978149,90.343895 1101.668457,91.362640 
	C1092.340332,92.868690 1083.212402,95.615051 1073.999268,97.833298 
z"/>
<path fill="#FF796E" opacity="1.000000" stroke="none" 
	d="
M994.593140,172.264374 
	C999.209717,168.137833 1003.579529,164.227539 1008.080078,160.474045 
	C1010.042603,158.837234 1012.273193,157.521820 1014.697815,156.444992 
	C1010.976624,169.244064 1008.079224,181.872879 1007.509705,195.078293 
	C1004.857544,197.203781 1002.625122,199.376251 1000.172729,201.262680 
	C997.915405,202.998962 995.421448,204.427689 993.031799,205.991943 
	C993.015137,196.956757 992.998474,187.921585 992.964966,178.436951 
	C993.431946,176.173096 993.915710,174.358704 994.593140,172.264374 
z"/>
<path fill="#FFA650" opacity="1.000000" stroke="none" 
	d="
M1230.883301,201.032166 
	C1229.642334,208.100006 1228.401367,215.167847 1227.123291,222.620941 
	C1220.460449,249.862854 1205.646118,271.276184 1183.887085,288.097717 
	C1167.588867,300.697479 1148.961304,307.653046 1128.417236,311.023193 
	C1126.944824,311.039429 1125.874023,311.014954 1124.204102,310.744629 
	C1124.509888,308.725464 1125.147705,306.737091 1126.370483,305.220123 
	C1129.769043,301.003540 1133.410889,296.982941 1137.140869,292.554993 
	C1152.541504,288.284821 1165.978271,280.823547 1177.741699,270.615723 
	C1189.477905,260.431702 1198.765625,248.209839 1204.676514,233.691910 
	C1207.043579,227.877777 1209.014771,221.902435 1211.516235,215.977203 
	C1216.165894,212.213821 1220.391968,208.383713 1224.800537,204.776825 
	C1226.626831,203.282639 1228.843994,202.266022 1230.883301,201.032166 
z"/>
<path fill="#000000" opacity="1.000000" stroke="none" 
	d="
M1211.166260,216.000519 
	C1209.014771,221.902435 1207.043579,227.877777 1204.676514,233.691910 
	C1198.765625,248.209839 1189.477905,260.431702 1177.741699,270.615723 
	C1165.978271,280.823547 1152.541504,288.284821 1136.722900,292.604126 
	C1121.548096,296.405365 1106.847168,296.854401 1091.837646,294.540436 
	C1090.038086,293.929108 1088.336060,293.930695 1086.864746,293.348846 
	C1076.586670,289.284729 1066.356445,285.099854 1056.110840,280.953613 
	C1050.894287,276.630157 1045.472168,272.527252 1040.524048,267.915771 
	C1036.311279,263.989594 1032.644409,259.477814 1028.280029,254.766541 
	C1022.919739,244.856903 1018.015503,235.405762 1013.062622,225.556335 
	C1011.287231,215.105560 1009.560364,205.053024 1007.833496,195.000504 
	C1008.079224,181.872879 1010.976624,169.244064 1015.065552,156.434570 
	C1020.071533,147.735214 1024.336304,138.907532 1030.146484,131.253052 
	C1038.237427,120.593903 1047.987549,111.383568 1060.019409,105.006676 
	C1064.429321,102.669479 1068.894165,100.435959 1073.666504,97.994217 
	C1083.212402,95.615051 1092.340332,92.868690 1101.668457,91.362640 
	C1107.978149,90.343895 1114.569702,91.070747 1121.719360,91.417404 
	C1128.699219,93.106285 1135.303101,93.592293 1141.220825,95.864830 
	C1150.884399,99.575821 1160.100830,104.451385 1169.505859,108.835632 
	C1173.595581,112.315308 1178.046265,115.457184 1181.691650,119.352745 
	C1187.370605,125.421646 1192.502808,132.002228 1198.048584,139.034637 
	C1204.359497,149.384262 1208.260498,159.986160 1211.094849,171.414841 
	C1211.682373,177.618561 1212.927002,183.413315 1212.864258,189.193924 
	C1212.767456,198.134537 1211.777466,207.065475 1211.166260,216.000519 
z"/>
<path fill="#FF975A" opacity="1.000000" stroke="none" 
	d="
M1055.816895,281.124146 
	C1066.356445,285.099854 1076.586670,289.284729 1086.864746,293.348846 
	C1088.336060,293.930695 1090.038086,293.929108 1091.768555,294.894348 
	C1090.061890,298.100952 1088.144043,300.559509 1086.403442,303.137665 
	C1085.151978,304.991211 1084.136963,307.004364 1083.016357,308.946289 
	C1082.846802,308.950592 1082.677124,308.954926 1082.253052,308.962219 
	C1075.381104,306.480438 1068.665649,304.223633 1062.179199,301.434357 
	C1057.502319,299.423309 1053.130371,296.703400 1048.313721,294.148010 
	C1045.944336,287.059601 1052.260620,285.080963 1055.816895,281.124146 
z"/>
<path fill="#FF8566" opacity="1.000000" stroke="none" 
	d="
M1013.111328,225.954605 
	C1018.015503,235.405762 1022.919739,244.856903 1027.966797,254.630524 
	C1026.629150,256.245850 1025.078857,257.467896 1023.680176,258.843964 
	C1018.078918,264.354584 1016.686401,264.318939 1011.290405,258.184875 
	C1007.447632,250.874466 1003.888062,243.752808 1000.524780,236.245911 
	C1004.851135,232.558640 1008.981201,229.256622 1013.111328,225.954605 
z"/>
<path fill="#FF8268" opacity="1.000000" stroke="none" 
	d="
M1169.702148,108.490829 
	C1160.100830,104.451385 1150.884399,99.575821 1141.220825,95.864830 
	C1135.303101,93.592293 1128.699219,93.106285 1122.183105,91.469147 
	C1123.941406,88.613808 1125.964722,86.140701 1127.884277,83.589684 
	C1129.310059,81.694901 1130.601440,79.699051 1131.968994,77.391357 
	C1134.065063,77.338120 1136.144653,77.641693 1138.617676,77.969528 
	C1150.438843,82.623764 1161.866455,87.253731 1173.648560,91.958199 
	C1179.037964,98.355797 1179.025146,98.343315 1173.129272,104.392258 
	C1171.979126,105.572205 1170.971802,106.891167 1169.702148,108.490829 
z"/>
<path fill="#FF975A" opacity="1.000000" stroke="none" 
	d="
M1211.166016,170.999512 
	C1208.260498,159.986160 1204.359497,149.384262 1198.198242,139.351028 
	C1200.689453,136.920609 1203.077881,134.639313 1205.787231,132.841599 
	C1207.372070,131.790176 1209.468750,131.510544 1211.670044,130.939056 
	C1213.512207,133.175171 1215.019653,135.355896 1216.763550,137.768936 
	C1219.951416,145.423508 1222.902710,152.845779 1225.558105,160.656281 
	C1223.070435,162.633728 1220.894653,164.245636 1218.682617,165.806091 
	C1216.194214,167.561462 1213.672974,169.270386 1211.166016,170.999512 
z"/>
<path fill="#FF7F6B" opacity="1.000000" stroke="none" 
	d="
M1013.062683,225.556335 
	C1008.981201,229.256622 1004.851135,232.558640 1000.378174,235.922363 
	C998.846069,232.505829 997.656799,229.027634 996.245667,225.275116 
	C995.019104,218.951172 994.014404,212.901535 993.020752,206.421921 
	C995.421448,204.427689 997.915405,202.998962 1000.172729,201.262680 
	C1002.625122,199.376251 1004.857544,197.203781 1007.509705,195.078293 
	C1009.560364,205.053024 1011.287231,215.105560 1013.062683,225.556335 
z"/>
<path fill="#FF9D56" opacity="1.000000" stroke="none" 
	d="
M1083.422119,308.988708 
	C1084.136963,307.004364 1085.151978,304.991211 1086.403442,303.137665 
	C1088.144043,300.559509 1090.061890,298.100952 1091.972900,295.237244 
	C1106.847168,296.854401 1121.548096,296.405365 1136.538574,292.934082 
	C1133.410889,296.982941 1129.769043,301.003540 1126.370483,305.220123 
	C1125.147705,306.737091 1124.509888,308.725464 1123.802734,310.750580 
	C1116.302734,311.293793 1108.588379,312.023071 1100.912720,311.732330 
	C1095.191895,311.515594 1089.520996,309.979584 1083.422119,308.988708 
z"/>
<path fill="#FF9D56" opacity="1.000000" stroke="none" 
	d="
M1211.094849,171.414825 
	C1213.672974,169.270386 1216.194214,167.561462 1218.682617,165.806091 
	C1220.894653,164.245636 1223.070435,162.633728 1225.620483,161.026901 
	C1226.181152,161.535797 1226.383667,162.062317 1226.782837,162.794556 
	C1228.321045,171.379257 1229.662598,179.758240 1231.019897,188.572693 
	C1231.007812,192.707291 1230.979980,196.406418 1230.917725,200.568878 
	C1228.843994,202.266022 1226.626831,203.282639 1224.800537,204.776825 
	C1220.391968,208.383713 1216.165894,212.213821 1211.516235,215.977219 
	C1211.777466,207.065475 1212.767456,198.134537 1212.864258,189.193924 
	C1212.927002,183.413315 1211.682373,177.618561 1211.094849,171.414825 
z"/>
</svg>