<svg width="1300" height="450" viewBox="0 0 1300 450" fill="none" xmlns="http://www.w3.org/2000/svg">
  <g clip-path="url(#clip0_1_15)">
    <g id="Vector" />
    <path d="M1109.69 52.6875C1111 52.6924 1112.32 52.6973 1113.68 52.7024C1123.73 52.8228 1133.24 53.5857 1143 56C1143.71 56.1716 1144.42 56.3432 1145.15 56.52C1155.7 59.1535 1165.36 63.0122 1175 68C1175.64 68.3245 1176.29 68.649 1176.95 68.9834C1208.97 85.2847 1233.24 114.404 1244.8 148.344C1249.43 163.006 1251.4 177.353 1251.31 192.75C1251.31 193.805 1251.31 193.805 1251.31 194.881C1251.26 205.531 1250.75 215.656 1248 226C1247.83 226.652 1247.66 227.305 1247.48 227.977C1241.87 248.776 1232.29 267.826 1218 284C1217.17 284.976 1216.34 285.952 1215.48 286.957C1191.64 314.446 1156.34 330.059 1120.4 332.661C1080.81 334.929 1043.76 321.692 1014.22 295.418C989.245 272.61 971.472 238.788 969.839 204.629C969.793 200.794 969.753 196.96 969.75 193.125C969.749 192.43 969.749 191.736 969.748 191.02C969.764 180.37 970.339 170.361 973 160C973.156 159.34 973.311 158.681 973.472 158.001C977.558 140.833 985.354 124.082 996 110C996.661 109.118 997.323 108.237 998.004 107.328C1017.47 82.5234 1042.86 65.8897 1073.12 57.25C1074.16 56.9517 1074.16 56.9517 1075.22 56.6475C1086.61 53.5607 1097.92 52.6352 1109.69 52.6875ZM1043 115C1042.44 115.44 1041.88 115.879 1041.3 116.332C1021.9 131.561 1010.38 157.733 1007.28 181.711C1005.02 208.192 1011.52 235.048 1028.4 255.973C1030.54 258.386 1032.73 260.711 1035 263L1037.5 265.625L1037.47 265.621C1039.66 267.719 1039.66 267.719 1041.84 269.817C1062.7 289.326 1089.47 295.885 1117.27 295.132C1144.04 293.84 1168.29 279.602 1186.57 260.715C1190.15 256.717 1193.15 252.541 1196 248C1196.58 247.099 1197.17 246.198 1197.77 245.27C1211.62 222.902 1216.1 195.186 1210.44 169.438C1203.75 142.263 1186.98 118.603 1163 104C1153.52 98.7339 1143.54 94.5972 1133 92C1132.1 91.7757 1131.2 91.5514 1130.27 91.3203C1099.05 84.8919 1066.89 94.5713 1043 115Z" fill="#FE8D60" id="Vector_2" />
    <path d="M276 271H310C310.205 274.71 310.41 278.42 310.621 282.242C310.822 285.86 311.025 289.477 311.227 293.095C311.366 295.597 311.505 298.099 311.643 300.602C311.842 304.211 312.044 307.82 312.246 311.43C312.307 312.537 312.367 313.645 312.429 314.786C312.793 321.212 313.295 327.603 314 334C314.311 333.372 314.622 332.744 314.943 332.097C319.862 322.177 324.813 312.282 330 302.5C335.485 292.078 340.733 281.534 346 271H403C403.713 274.565 404.138 277.339 404.205 280.882C404.225 281.823 404.245 282.763 404.266 283.732C404.291 285.236 404.291 285.236 404.316 286.77C404.337 287.806 404.358 288.842 404.379 289.909C404.445 293.21 404.504 296.511 404.562 299.813C404.606 302.054 404.649 304.296 404.693 306.537C404.8 312.025 404.902 317.512 405 323C405.294 322.408 405.588 321.815 405.891 321.205C408.952 315.038 412.019 308.874 415.089 302.712C416.234 300.412 417.378 298.111 418.52 295.81C420.162 292.501 421.809 289.196 423.457 285.891C424.221 284.347 424.221 284.347 425.001 282.772C425.721 281.331 425.721 281.331 426.456 279.86C426.876 279.017 427.296 278.173 427.728 277.303C429.002 274.997 430.255 272.976 432 271C434.911 270.546 434.911 270.546 438.418 270.609C440.298 270.629 440.298 270.629 442.217 270.648C443.527 270.682 444.837 270.715 446.188 270.75C447.523 270.77 448.858 270.788 450.193 270.805C453.463 270.852 456.731 270.918 460 271C461.223 273.445 461.196 275.175 461.297 277.909C461.337 278.93 461.377 279.951 461.418 281.002C461.457 282.108 461.495 283.213 461.535 284.352C461.578 285.481 461.621 286.61 461.665 287.773C461.802 291.39 461.932 295.008 462.062 298.625C462.154 301.073 462.246 303.521 462.338 305.969C462.563 311.979 462.784 317.989 463 324C464.643 320.591 466.286 317.181 467.929 313.772C468.517 312.551 469.105 311.33 469.694 310.11C472.89 303.477 476.08 296.841 479.242 290.191C479.74 289.145 480.238 288.099 480.751 287.022C481.693 285.04 482.633 283.058 483.572 281.074C483.995 280.183 484.419 279.293 484.855 278.375C485.223 277.599 485.591 276.823 485.969 276.023C487 274 487 274 489 271C491.554 270.733 493.863 270.652 496.414 270.707C497.144 270.711 497.873 270.716 498.625 270.72C500.959 270.737 503.292 270.774 505.625 270.813C507.206 270.828 508.786 270.841 510.367 270.854C514.245 270.887 518.122 270.938 522 271C520.551 274.852 518.782 278.385 516.797 281.988C516.483 282.559 516.169 283.13 515.845 283.719C514.817 285.585 513.784 287.449 512.75 289.313C512.394 289.957 512.037 290.601 511.67 291.265C506.329 300.924 500.845 310.49 495.244 320.001C488.829 330.924 482.717 342.011 476.609 353.108C474.766 356.42 472.881 359.709 471 363H437L435 320L430.625 328.813C425.886 338.323 420.979 347.739 415.986 357.119C414.965 359.066 413.983 361.034 413 363H377C376.651 358.149 376.301 353.299 375.941 348.301C375.718 345.225 375.495 342.148 375.271 339.072C374.916 334.192 374.562 329.311 374.212 324.43C373.929 320.494 373.644 316.558 373.356 312.623C373.247 311.123 373.139 309.622 373.032 308.122C372.882 306.018 372.728 303.914 372.573 301.81L372.31 298.183C372.038 295.391 371.612 292.735 371 290C370.33 291.145 370.33 291.145 369.646 292.313C352.768 321.134 352.768 321.134 344.32 335.383C342.21 338.944 340.114 342.513 338.029 346.089C310.056 394.05 310.056 394.05 286.117 402.188C274.701 405.163 261.593 406.507 250 404C251.398 395.153 253.605 386.616 256 378C256.899 377.941 256.899 377.941 257.817 377.88C260.567 377.688 263.314 377.469 266.062 377.25L268.92 377.062C274.98 376.556 279.08 375.66 284 372C290.772 362.591 286.189 347.752 284.594 336.977C284.346 335.259 284.1 333.542 283.854 331.825C283.21 327.338 282.557 322.853 281.901 318.368C280.849 311.171 279.809 303.972 278.774 296.772C278.412 294.269 278.045 291.767 277.677 289.264C277.454 287.727 277.232 286.189 277.01 284.651C276.907 283.962 276.804 283.273 276.698 282.563C276.132 278.606 276 275.047 276 271ZM99.9402 234.839C100.996 234.829 102.052 234.82 103.14 234.81C104.871 234.803 104.871 234.803 106.637 234.797C107.823 234.791 109.009 234.785 110.231 234.78C112.756 234.77 115.28 234.764 117.805 234.76C121.626 234.75 125.447 234.719 129.268 234.688C163.706 234.536 163.706 234.536 176.812 245.313C184.633 254.92 186.895 263.607 186 276C184.759 284.424 181.829 291.033 177 298L175.125 300.75C161.862 314.794 143.405 317.378 125.016 317.949C119.29 318.056 113.681 317.765 108 317C107.877 318.138 107.754 319.275 107.627 320.448C107.056 325 106.066 329.389 104.969 333.84C104.675 335.051 104.675 335.051 104.375 336.287C103.964 337.977 103.55 339.667 103.134 341.357C102.496 343.953 101.867 346.552 101.238 349.15C100.836 350.797 100.434 352.443 100.031 354.09C99.8427 354.869 99.6541 355.648 99.4598 356.451C98.1153 361.885 98.1153 361.885 97 363C94.4791 363.088 91.9857 363.115 89.4648 363.098C88.335 363.096 88.335 363.096 87.1823 363.093C84.7673 363.088 82.3524 363.075 79.9375 363.062C78.304 363.057 76.6706 363.053 75.0371 363.049C71.0247 363.038 67.0124 363.021 63 363C63.5842 357.686 64.4656 352.666 65.7908 347.475C65.9701 346.766 66.1494 346.058 66.3342 345.329C66.9253 342.999 67.5232 340.672 68.1211 338.344C68.5418 336.691 68.962 335.038 69.3818 333.385C70.4986 328.992 71.621 324.601 72.7447 320.21C73.8979 315.699 75.0462 311.187 76.1946 306.675C76.6511 304.882 77.1076 303.088 77.5642 301.294C77.9008 299.972 77.9008 299.972 78.2442 298.623C78.9198 295.969 79.596 293.316 80.2724 290.663C82.7128 281.086 85.136 271.506 87.5156 261.914C87.7566 260.943 87.9975 259.973 88.2457 258.973C89.2925 254.751 90.3342 250.527 91.3708 246.303C91.7198 244.892 92.0688 243.481 92.418 242.07C92.7044 240.903 92.9908 239.735 93.2859 238.532C94.4817 234.292 95.7776 234.869 99.9402 234.839ZM600.188 279.188C607.672 286.672 611.183 295.638 611.33 306.138C611.324 306.835 611.318 307.532 611.312 308.25C611.307 308.99 611.301 309.73 611.295 310.493C610.941 326.663 604.429 339.732 593 351C592.424 351.587 591.848 352.173 591.254 352.777C580.886 362.548 565.259 365.686 551.422 365.281C538.578 364.226 526.235 361.975 517.062 352.125C508.858 341.801 507.123 330.956 508 318C510.203 302.218 518.58 288.619 530.875 278.688C551.435 264.287 579.886 265.255 600.188 279.188ZM715 235H748C745.751 247.372 745.751 247.372 744.58 251.975C744.319 253.005 744.059 254.036 743.791 255.098C743.517 256.169 743.243 257.24 742.961 258.344C742.675 259.475 742.389 260.607 742.095 261.773C741.192 265.349 740.284 268.925 739.375 272.5C738.17 277.239 736.971 281.978 735.773 286.719C735.495 287.806 735.217 288.894 734.931 290.014C734.677 291.019 734.423 292.025 734.162 293.061C733.937 293.944 733.712 294.828 733.48 295.739C732.896 298.104 732.896 298.104 733 301C733.619 300.364 733.619 300.364 734.25 299.715C734.827 299.128 735.405 298.542 736 297.938C736.557 297.369 737.114 296.801 737.688 296.215C739.029 294.93 740.397 293.672 741.829 292.489C745.413 289.509 748.31 286.774 750.805 282.816C754.807 276.984 758.996 271.951 766.291 270.565C779.412 269.066 792.865 270.074 806 271C797.607 279.427 788.898 287.394 779.625 294.848C775.279 298.411 771.154 302.217 767 306C765.505 307.36 764.005 308.714 762.5 310.063C761.871 310.631 761.242 311.199 760.594 311.785C759 313 759 313 757 313C763.423 324.668 770.269 335.989 777.416 347.226C778.822 349.44 780.224 351.657 781.625 353.875C782.063 354.559 782.501 355.244 782.953 355.949C786 360.774 786 360.774 786 363H748C740.312 349.062 740.312 349.063 737.919 344.723C734.289 338.143 730.656 331.565 727 325C724.042 333.347 721.984 341.855 719.901 350.456C719.445 352.336 718.984 354.215 718.523 356.094C718.255 357.204 717.986 358.315 717.708 359.459C717 362 717 362 716 363C713.552 363.088 711.132 363.115 708.684 363.098C707.953 363.096 707.221 363.095 706.468 363.093C704.125 363.088 701.781 363.075 699.438 363.062C697.852 363.057 696.267 363.053 694.682 363.049C690.788 363.039 686.894 363.02 683 363C686.119 348.486 689.655 334.087 693.262 319.688C693.859 317.297 694.456 314.906 695.053 312.515C696.295 307.546 697.538 302.578 698.782 297.609C700.38 291.232 701.972 284.854 703.564 278.476C704.792 273.558 706.021 268.641 707.252 263.725C707.841 261.371 708.429 259.017 709.016 256.662C709.832 253.393 710.651 250.124 711.471 246.855C711.714 245.881 711.957 244.907 712.207 243.903C712.429 243.017 712.652 242.132 712.882 241.219C713.075 240.448 713.268 239.677 713.466 238.882C714 237 714 237 715 235ZM259.09 276.258C264.189 280.908 266.779 286.217 267.095 293.062C267.239 299.615 266.303 305.509 264.812 311.875C264.59 312.864 264.367 313.852 264.138 314.871C262.418 322.424 260.57 329.946 258.613 337.441C256.331 346.268 256 353.62 256 363H225L224 357C223.238 357.507 223.238 357.507 222.461 358.023C213.064 364.112 203.549 366.007 192.375 364.438C185.412 362.946 179.583 359.583 174.562 354.563C170.154 347.332 168.883 341.502 170 333C172.327 325.086 176.962 320.104 184 316C199.08 308.384 217.345 305.738 234 304C234.288 300.949 234.421 298.042 234 295C231.254 292.254 229.397 292.043 225.562 291.625C221.617 292.04 219.307 292.82 216 295C215.59 295.852 215.179 296.705 214.757 297.583C213 300 213 300 209.906 300.568C208.664 300.541 207.423 300.515 206.145 300.488C205.483 300.481 204.821 300.474 204.14 300.467C202.029 300.439 199.922 300.376 197.812 300.313C196.381 300.287 194.949 300.265 193.518 300.244C190.011 300.189 186.506 300.103 183 300C184.888 290.122 188.732 283.081 196.59 276.57C213.164 265.772 242.791 264.366 259.09 276.258Z" fill="white" id="Vector-most" />
    <path d="M870 278C873.993 281.619 876.354 285.889 878 291V300H850L847 293C844.116 290.808 841.498 290.729 837.938 290.75L835.34 290.734C832.729 290.85 832.729 290.85 830 293C829.75 295.584 829.75 295.584 830 298C831.997 299.027 833.998 300.046 836 301.063C836.934 301.537 836.934 301.537 837.887 302.022C841.948 304.056 846.048 305.875 850.253 307.589C859.342 311.334 867.217 315.417 871.562 324.75C873.986 332.02 874.261 339.625 871.438 346.813C866.664 355.946 859.653 359.949 850 363C835.213 366.806 816.404 366.764 802.312 360.063C794.907 355.451 790.803 350.723 787.688 342.563C787 339 787 339 787 330H816L818 339C821.32 342.542 824.688 342.903 829.375 343.25C833.377 342.974 835.671 342.219 839 340C840.41 338.193 840.41 338.193 840 336C835.947 330.925 831.309 329.238 825.312 327.063C803.231 318.609 803.231 318.609 797.871 307.703C795.593 300.635 795.921 292.345 798.938 285.563C804.092 276.769 812.426 272.6 822 270C838.334 266.449 856.379 267.901 870 278ZM698 272C697.347 278.881 695.735 285.335 693.938 292C693.656 293.061 693.374 294.122 693.084 295.215C692.394 297.811 691.699 300.406 691 303C688.251 301.929 685.672 300.826 683.062 299.438C678.499 297.295 675.413 296.727 670.438 297.688C662.193 300.835 658.781 307.196 655.109 314.86C651.182 323.873 649.166 333.551 646.812 343.063C646.139 345.768 645.464 348.472 644.784 351.176C644.364 352.848 643.948 354.522 643.535 356.197C642.112 361.888 642.112 361.888 641 363C638.552 363.088 636.132 363.115 633.684 363.098C632.953 363.096 632.221 363.095 631.468 363.093C629.125 363.088 626.781 363.075 624.438 363.063C622.852 363.057 621.267 363.053 619.682 363.049C615.788 363.038 611.894 363.021 608 363C610.353 351.798 613.045 340.689 615.855 329.594C616.208 328.199 616.561 326.805 616.913 325.411C618.373 319.642 619.836 313.875 621.308 308.109C622.22 304.537 623.125 300.963 624.026 297.388C624.366 296.044 624.708 294.702 625.053 293.36C625.536 291.483 626.009 289.604 626.481 287.725C626.751 286.664 627.021 285.604 627.299 284.511C628.188 280.06 628.548 275.517 629 271H659V284L661.438 280.875C671.465 269.216 683.964 266.542 698 272Z" fill="white" id="Vector_3" />
    <path d="M570.188 294.062C573.786 296.541 575.733 298.864 577 303C578.345 313.281 576.047 322.327 571.188 331.375C567.21 336.148 563.82 340.074 557.438 341.062C553.222 341.256 550.514 340.452 547 338C542.252 332.996 541.634 328.609 541.723 321.918C542.737 311.242 546.808 302.709 554.688 295.562C559.645 292.213 564.601 292.2 570.188 294.062ZM122 262C125.021 261.918 128.041 261.859 131.062 261.812C131.91 261.787 132.758 261.762 133.631 261.736C139.217 261.672 143.08 262.287 148 265C150.64 268.547 151.008 270.508 150.938 274.937C150.047 279.789 148.48 284.146 144.416 287.184C138.454 290.419 133.178 290.478 126.5 290.25C125.487 290.232 124.474 290.214 123.43 290.195C120.952 290.149 118.477 290.083 116 290C116.645 283.656 117.962 277.667 119.562 271.5C119.796 270.582 120.03 269.664 120.271 268.719C120.843 266.478 121.42 264.239 122 262ZM230 322C227.864 335.968 227.864 335.968 222.277 340.352C217.819 342.957 214.065 343.497 208.992 342.602C205.952 341.684 204.598 340.76 203 338C202.938 334.5 202.938 334.5 204 331C207.988 326.981 212.256 325.699 217.562 324.25C218.317 324.03 219.072 323.809 219.85 323.582C223.472 322.554 226.169 322 230 322Z" fill="#c0c5d6" id="Vector_4" />
  </g>
  <defs>
    <clipPath id="clip0_1_15">
      <rect fill="white" height="450" width="1300" />
    </clipPath>
  </defs>
</svg>