<svg width="1563" height="1553" viewBox="0 0 1563 1553" fill="none" xmlns="http://www.w3.org/2000/svg">
<g clip-path="url(#clip0_2323_2)">
<path d="M207 576.289C217.086 577.403 217.086 577.403 222.813 580.76C227.654 583.638 227.654 583.638 233 585.232V588.212C233.862 587.911 233.862 587.911 234.742 587.603C237.552 587.125 238.642 587.692 241.125 589.02C241.808 589.374 242.492 589.729 243.195 590.095C245 591.193 245 591.193 247 593.18C248.992 593.867 250.994 594.525 253 595.168C255.201 596.11 257.389 597.084 259.563 598.086C260.657 598.587 261.751 599.088 262.879 599.604C265.691 600.978 268.327 602.491 271 604.11C272.664 604.78 274.331 605.442 276 606.097C282.03 608.757 288.292 611.565 291.313 617.71L292 620.008L293 621.995L294 623.982L293 625.969H295V772.029H293C293.221 772.563 293.441 773.097 293.668 773.647C294.147 777.045 292.892 778.89 291.313 781.903C290.793 782.916 290.274 783.929 289.738 784.973C288.03 787.875 286.269 790.401 284 792.894H282C281.803 793.461 281.606 794.027 281.402 794.61C279.444 797.765 276.675 799.323 273.563 801.216C272.936 801.606 272.309 801.997 271.663 802.399C266.23 805.75 260.653 808.803 255 811.773C253.456 812.617 251.914 813.466 250.375 814.319C249.649 814.72 248.924 815.121 248.176 815.534C246.713 816.345 245.252 817.161 243.793 817.979C241.538 819.239 239.272 820.478 237 821.709C236.149 822.176 235.299 822.644 234.422 823.126C233.561 823.58 232.7 824.035 231.813 824.503C231.035 824.92 230.258 825.336 229.457 825.765C225.329 827.297 222.245 827.191 218.184 825.513C217.277 824.995 216.371 824.478 215.438 823.944L212.547 822.299C209.859 820.627 207.474 818.707 205 816.741C204.109 816.457 203.219 816.172 202.301 815.879C198.599 814.617 195.359 812.863 192 810.903C191.41 810.567 190.819 810.23 190.211 809.883C186.372 807.673 182.686 805.286 179 802.83C177.822 802.152 176.636 801.486 175.438 800.843C167.998 796.542 160.045 789.679 157.563 781.158L157 777.99C156.826 777.251 156.652 776.511 156.472 775.749C155.901 772.45 155.877 769.323 155.88 765.975C155.879 765.277 155.878 764.579 155.877 763.859C155.876 761.527 155.881 759.194 155.887 756.862C155.887 755.187 155.887 753.512 155.886 751.838C155.886 747.295 155.892 742.752 155.899 738.21C155.905 733.461 155.906 728.712 155.907 723.964C155.91 714.973 155.918 705.982 155.928 696.991C155.939 686.755 155.945 676.519 155.95 666.283C155.96 645.227 155.978 624.172 156 603.116C159.687 603.876 160.772 604.695 162.875 607.836C166.699 613.186 171.111 616.919 177 620.008H179V583.244C182.559 583.244 183.511 584.043 186.375 586.039C187.172 586.583 187.968 587.128 188.789 587.688C189.519 588.189 190.248 588.69 191 589.206C194.262 591.269 197.382 592.826 201 594.174L206 596.161L207 576.289Z" fill="#F9F9FA"/>
<path d="M329.905 649.696C330.737 649.698 331.57 649.701 332.428 649.703C333.369 649.703 334.31 649.703 335.279 649.703C336.302 649.708 337.325 649.713 338.379 649.719C339.421 649.72 340.463 649.722 341.536 649.723C344.878 649.729 348.22 649.741 351.562 649.754C353.822 649.759 356.082 649.763 358.342 649.767C363.895 649.778 369.447 649.795 375 649.816V655.777L373.062 656.15L371 656.771L370 658.758L367 659.752C366.954 669.658 366.918 679.565 366.896 689.472C366.886 694.072 366.872 698.672 366.849 703.272C366.827 707.711 366.815 712.149 366.81 716.588C366.807 718.282 366.799 719.976 366.789 721.67C366.774 724.042 366.772 726.413 366.773 728.785C366.766 729.486 366.759 730.187 366.751 730.909C366.766 734.52 367.009 737.163 369 740.234L368 741.227L370 742.221C370.35 743.873 370.682 745.53 371 747.189C372.669 750.211 372.669 750.211 375 751.163L376 754.144C377.965 755.205 379.969 756.196 382 757.125L385 759.112L388 760.106L389 759.112C395.525 758.876 395.525 758.876 398 760.106C402.994 759.5 408.593 758.595 413 756.131C413.68 754.813 414.345 753.487 415 752.157C416.536 750.062 418.143 748.036 419.758 746.001C421.189 744.298 421.189 744.298 421 742.221L423 741.227C425.967 732.096 425.132 721.912 425.098 712.44C425.096 710.916 425.094 709.391 425.093 707.867C425.09 703.883 425.08 699.899 425.069 695.915C425.058 691.839 425.054 687.762 425.049 683.686C425.038 675.708 425.021 667.73 425 659.752H422V657.765L416 658.758V656.771L409 655.777C408.957 654.122 408.959 652.465 409 650.809C410.685 649.135 412.763 649.697 415.011 649.692C416.086 649.697 416.086 649.697 417.182 649.703C417.933 649.703 418.684 649.703 419.458 649.703C421.953 649.703 424.447 649.711 426.941 649.719C428.666 649.721 430.391 649.722 432.116 649.723C436.665 649.727 441.214 649.737 445.763 649.748C450.401 649.758 455.039 649.762 459.678 649.767C468.785 649.778 477.893 649.795 487 649.816C487.273 650.625 487.273 650.625 487.551 651.45C487.928 652.516 487.928 652.516 488.312 653.604C488.556 654.307 488.8 655.01 489.051 655.735C490.072 657.919 491.276 659.085 493 660.745C493.66 663.175 493.66 663.175 494.062 665.838C494.422 668.444 494.422 668.444 495 670.681L497 671.675L496 676.643H498V681.611H500V685.585L502 687.573V690.553L504 692.541C504.583 695.042 504.952 697.544 505.34 700.082C506.086 702.788 507.021 703.547 509 705.457C509.695 707.565 509.695 707.565 510.125 709.867C510.272 710.624 510.419 711.38 510.57 712.16C510.712 712.899 510.854 713.638 511 714.4C511.373 716.555 511.373 716.555 512 718.374L514 719.368C514.406 721.342 514.729 723.333 515 725.329C515.377 728.037 515.377 728.037 516 730.298L518 731.291V735.266L520 737.253L521 740.234L523 739.24L522 737.253H524C524.29 735.656 524.29 735.656 524.586 734.027C524.849 732.639 525.112 731.251 525.375 729.863C525.501 729.16 525.628 728.458 525.758 727.734C526.106 725.925 526.547 724.134 527 722.349L529 721.355V718.374H531L530.875 715.58C531 712.413 531 712.413 533 709.432V706.451L534.375 704.278C536.869 699.989 538 695.541 538 690.553L540 689.56C540.629 687.242 541.155 684.897 541.625 682.543C541.885 681.26 542.146 679.978 542.414 678.657C542.607 677.665 542.801 676.672 543 675.649H545L544 671.675L546 670.681C546.654 668.448 546.654 668.448 547.062 665.838C547.563 663.02 548.087 660.486 549 657.765H551L551.375 656.026C552 653.79 552 653.79 554 649.816H590V655.777L585 656.771V658.758H581C579.961 663.831 579.871 668.668 579.902 673.816C579.904 674.712 579.905 675.608 579.907 676.53C579.911 678.468 579.917 680.405 579.925 682.342C579.938 685.407 579.944 688.472 579.949 691.537C579.96 698.04 579.98 704.543 580 711.046C580.024 718.59 580.044 726.133 580.056 733.677C580.062 736.698 580.075 739.718 580.088 742.739C580.091 744.588 580.095 746.437 580.098 748.286C580.103 749.126 580.108 749.966 580.113 750.832C580.114 754.426 579.979 757.641 579 761.099L584 762.093V763.086L590 764.08V770.042H543V764.08L546.875 763.645C549.257 763.378 550.845 763.164 553 762.093V684.592L551 691.547L549 692.541C548.38 694.64 548.38 694.64 548 697.136C547.222 701.345 546.389 705.377 545 709.432L543 710.425C542.386 712.729 542.386 712.729 542 715.393C541.5 717.877 541.5 717.877 541 720.361H539L540 725.329L538 726.323C537.385 728.593 537.385 728.593 537 731.229C536.22 736.041 536.22 736.041 534 738.246V742.221L532 743.214C531.598 745.522 531.273 747.843 531 750.17C530.562 753.026 530.562 753.026 530 755.138L528 756.131C527.593 758.438 527.256 760.758 527 763.086H525L525.125 765.446C525 768.054 525 768.054 523 770.042C520.937 770.267 520.937 770.267 518.43 770.236C517.534 770.229 516.638 770.223 515.715 770.216C514.309 770.191 514.309 770.191 512.875 770.166C511.458 770.152 511.458 770.152 510.012 770.139C507.674 770.115 505.337 770.082 503 770.042C497.825 759.378 497.825 759.378 497 753.15L495 752.157C494.438 749.921 494.438 749.921 494 747.189C493.573 744.704 493.199 742.616 492.062 740.358C490.598 737.447 489.87 734.424 489 731.291C487.927 727.828 487.032 725.378 485 722.349V719.368L484 718.374C483.959 716.719 483.957 715.062 484 713.406H482V709.432C481.519 708.975 481.038 708.517 480.543 708.046C478.339 705.768 478.496 703.903 478.312 700.8C478.247 699.812 478.181 698.825 478.113 697.808C478.057 696.676 478.057 696.676 478 695.521L475 694.528L473 685.585L472 762.093L482 764.08V770.042H451V764.08L453.75 763.707C456.623 763.158 458.466 762.446 461 761.099C460.916 748.308 460.821 735.517 460.712 722.726C460.662 716.787 460.616 710.848 460.578 704.909C460.541 699.182 460.495 693.455 460.442 687.727C460.423 685.538 460.408 683.349 460.397 681.16C460.38 678.102 460.351 675.045 460.319 671.988C460.317 671.075 460.315 670.163 460.312 669.222C460.301 668.392 460.29 667.561 460.278 666.706C460.273 665.982 460.267 665.259 460.262 664.513C460.145 662.481 460.145 662.481 458 660.745L454 656.771C451.789 656.53 451.789 656.53 449.375 656.647C448.149 656.674 448.149 656.674 446.898 656.701C445.959 656.736 445.959 656.736 445 656.771V658.758H441L440.125 660.683C439 662.733 439 662.733 437 663.726L436 727.317L438 728.31V730.298H436C435.951 731.161 435.902 732.024 435.852 732.913C435.777 734.059 435.702 735.204 435.625 736.383C435.555 737.513 435.486 738.643 435.414 739.807C435.006 743.169 434.19 746.012 433 749.176H430L429.562 752.033C429 755.138 429 755.138 428 757.125L425.5 758.553C422.708 759.92 422.708 759.92 422 763.086C420.348 763.784 418.681 764.447 417 765.074L416 767.061C414.352 767.769 412.682 768.426 411 769.048L409 770.166C406.553 771.229 404.651 771.035 402 771.035C401.391 771.359 400.782 771.683 400.155 772.017C397.595 773.211 395.833 773.251 393.016 773.216C392.081 773.21 391.146 773.204 390.184 773.197C389.216 773.18 388.247 773.164 387.25 773.147C385.775 773.133 385.775 773.133 384.27 773.119C381.846 773.096 379.423 773.063 377 773.022L376 770.042L373.625 770.663L371 771.035L369 769.048C365.625 767.51 365.625 767.51 362 767.061C360.645 765.758 359.313 764.431 358 763.086L355 761.099V759.112L353.062 758.367C351 757.125 351 757.125 350.25 755.013L350 753.15H348V750.17H346C345.329 748.391 344.664 746.61 344 744.829C343.629 743.838 343.257 742.846 342.875 741.825C342 739.24 342 739.24 342 737.253L340 736.259C339.99 735.332 339.979 734.405 339.969 733.45C339.871 724.722 339.768 715.993 339.661 707.265C339.605 702.777 339.552 698.29 339.503 693.802C339.455 689.473 339.403 685.144 339.347 680.814C339.327 679.161 339.308 677.508 339.291 675.855C339.267 673.543 339.237 671.23 339.205 668.918C339.2 668.232 339.194 667.546 339.188 666.839C339.142 663.874 338.952 661.596 338 658.758H334V656.771L331.125 656.336C328 655.777 328 655.777 326 654.784C327.116 649.871 327.116 649.871 329.905 649.696Z" fill="#42190E"/>
<path d="M246.969 676.981C249.69 678.462 252.36 679.991 255 681.611V679.624C258.511 677.88 262.319 678.074 266.016 679.298C267.7 680.019 269.353 680.81 271 681.611L270 684.592C270.733 685.135 270.733 685.135 271.48 685.69C273.666 688.397 273.364 690.418 273.312 693.845C273.309 694.947 273.305 696.05 273.301 697.186C272.991 700.584 272.322 703.308 271 706.451L269 707.445C268.166 709.514 268.166 709.514 267.5 711.916C266.781 714.369 266.781 714.369 266 716.387L264 717.381L263.125 715.456C262.172 713.255 262.172 713.255 260 712.413C255.76 712.179 252.638 712.086 249 714.4L251.312 715.083C254.636 716.696 255.581 717.987 257 721.355C256.889 725.779 254.76 727.981 252 731.291C271.246 725.489 271.246 725.489 286 712.413H287C287.14 720.109 287.246 727.805 287.311 735.502C287.342 739.078 287.384 742.653 287.453 746.228C287.519 749.687 287.554 753.146 287.569 756.606C287.586 758.548 287.632 760.489 287.68 762.431C287.684 773.149 284.552 781.293 277.312 789.293C273.014 793.242 266.089 798.856 260 798.856C259.11 797.398 258.289 795.899 257.5 794.385C248.557 779.449 230.085 773.733 213.977 769.487C210.15 768.524 206.315 767.596 202.478 766.679C198.239 765.632 194.093 764.343 189.934 763.02C187.789 762.342 185.634 761.697 183.473 761.072C181.723 760.563 181.723 760.563 179.938 760.043C178.895 759.745 177.852 759.447 176.777 759.139C174.053 758.138 172.205 756.992 170 755.138C172.245 753.968 174.495 752.811 176.75 751.66C177.384 751.328 178.018 750.996 178.672 750.655C182.12 748.906 184.048 748.182 188 748.182L188.438 745.139C188.77 742.824 189.119 740.511 189.504 738.204C190.263 732.188 190.392 726.16 190.605 720.105C190.643 719.16 190.68 718.215 190.719 717.241C190.749 716.385 190.779 715.529 190.811 714.647C191 712.413 191 712.413 192 709.432C189.921 709.839 189.921 709.839 188 711.419C187.772 713.389 187.55 715.361 187.387 717.338C186.711 720.887 184.897 722.333 182 724.336C178.188 724.646 178.188 724.646 175 724.336V722.349C175.748 721.941 176.495 721.534 177.266 721.114C180.656 718.949 181.833 716.779 183.75 713.282C186.979 707.466 186.979 707.466 188 706.451C190 706.41 192 706.409 194 706.451C194.237 705.864 194.474 705.278 194.719 704.673C196.285 701.988 197.916 700.854 200.5 699.123C201.398 698.519 202.297 697.914 203.223 697.291C205.759 695.675 208.327 694.159 210.938 692.665C215.877 689.79 220.138 686.308 224.516 682.659C231.335 677.055 238.198 673.048 246.969 676.981Z" fill="#3F1C0F"/>
<path d="M162 761.099L163.625 761.611C172.593 764.367 181.708 766.541 190.828 768.735C241.961 781.039 241.961 781.039 253.793 797.354C255 799.85 255 799.85 254.901 801.798C253.574 804.781 251.678 805.449 248.793 806.933C247.732 807.489 246.67 808.046 245.576 808.619C244.458 809.189 243.34 809.758 242.188 810.345C239.992 811.482 237.798 812.621 235.606 813.764C234.627 814.264 233.649 814.764 232.641 815.28C229.992 816.655 229.992 816.655 227.815 818.446C226.917 819.078 226.917 819.078 226 819.722C220.275 818.712 215.211 815.16 210.25 812.27C208.377 811.19 206.503 810.111 204.629 809.033C203.689 808.492 202.75 807.951 201.782 807.394C199.17 805.908 196.544 804.457 193.902 803.024C193.106 802.592 192.31 802.16 191.489 801.715C190.008 800.914 188.525 800.118 187.038 799.328C175.278 792.95 166.057 785.133 162 772.029C161.636 768.337 161.677 764.792 162 761.099Z" fill="#FCB416"/>
<path d="M185 595.168C189.765 596.968 194.337 599.141 198.938 601.316C200.196 601.908 200.196 601.908 201.479 602.513C207.672 605.442 213.812 608.459 219.922 611.554C221.967 612.55 224.041 613.49 226.138 614.371C230.451 616.197 234.653 618.232 238.863 620.279C239.695 620.682 240.527 621.085 241.385 621.501C243.137 622.35 244.889 623.2 246.641 624.051C249.293 625.339 251.946 626.625 254.6 627.91C257.951 629.534 261.3 631.163 264.647 632.796C267.196 634.039 269.75 635.265 272.316 636.472C276.597 638.507 280.041 640.216 283.063 643.978C283.61 644.637 284.158 645.295 284.723 645.973C287.205 649.579 287.118 652.73 287.098 656.969C287.093 658.77 287.093 658.77 287.088 660.608C287.075 662.489 287.075 662.489 287.063 664.409C287.056 666.328 287.056 666.328 287.049 668.246C287.037 671.376 287.021 674.506 287 677.637C286.252 676.892 285.505 676.148 284.734 675.382C283.832 674.486 282.93 673.591 282 672.669C281.386 672.05 280.773 671.431 280.141 670.794C269.909 661.111 256.612 654.874 244 648.822C242.798 648.224 241.598 647.624 240.398 647.021C239.781 646.711 239.164 646.402 238.528 646.083C237.617 645.625 237.617 645.625 236.688 645.158C233.344 643.48 230.018 641.874 226.57 640.415C222.687 638.752 218.95 636.889 215.188 634.974C210.645 632.681 206.142 630.506 201.375 628.702C195.172 626.344 189.174 622.966 185.898 617.011C184.609 612.757 184.789 608.711 184.875 604.296C184.884 603.418 184.893 602.54 184.902 601.636C184.926 599.48 184.962 597.324 185 595.168Z" fill="#2566B1"/>
<path d="M886 699.496L890.875 699.434C891.78 699.422 892.685 699.411 893.617 699.399C896 699.496 896 699.496 898 700.489V717.381H919C921 721.355 921 721.355 921 724.336L923 725.329L924 727.317L923 729.304L925 730.297V736.259H927V742.221L930 743.214L931 748.182L931.375 746.257L932 744.208L934 743.214C934.387 740.904 934.718 738.584 935 736.259C936 733.278 936 733.278 937 731.291H939L938 726.323L940 725.329C940.685 723.454 940.685 723.454 941.125 721.293L942 717.381H953C954.234 722.285 953.022 723.809 951 728.31V732.285L949 733.278C948.385 735.548 948.385 735.548 948 738.184C947.22 742.996 947.22 742.996 945 745.202V749.176L943 750.17C942.611 751.813 942.291 753.474 942 755.138C941.333 757.456 940.667 759.774 940 762.093L939.5 764.825C939 767.061 939 767.061 937 770.042C936.454 772.07 936.058 774.1 935.66 776.162C935 777.99 935 777.99 932 779.978L931.062 782.524L930 784.946C927.938 785.567 927.938 785.567 926 785.939L925 788.92L921 787.926L920 789.914H911C910.639 788.28 910.286 786.644 909.938 785.008C909.74 784.097 909.543 783.186 909.34 782.248C909.228 781.499 909.116 780.75 909 779.978C910 778.984 910 778.984 912.066 778.887C912.89 778.898 913.714 778.91 914.562 778.922C915.802 778.935 915.802 778.935 917.066 778.949C918.024 778.966 918.024 778.966 919 778.984L920 776.997L923 775.01L922 773.022L923.562 771.967C925.381 769.958 925.381 769.958 924.812 766.44L924 763.086L922 762.093L923 759.112H921L919 747.189H916L915 737.253L912 736.259L913 732.285H911C910.637 731.004 910.285 729.72 909.938 728.434C909.74 727.72 909.543 727.005 909.34 726.269C909 724.336 909 724.336 910 722.349H907V725.329L898 726.323V759.112L905 761.099L906 759.112C907.203 761.502 907.101 763.037 907.062 765.695C907.053 766.507 907.044 767.319 907.035 768.155C907.024 768.778 907.012 769.4 907 770.042H905L904 772.029L902 771.035L901 773.022C895.25 773.147 895.25 773.147 893 772.029V770.042L891.25 769.793C888.242 768.797 886.953 767.549 885 765.074C884.25 761.844 884.25 761.844 884 759.112H886V725.329H878V717.381H884V715.393H886V699.496Z" fill="#49180C"/>
<path d="M1010 717.381L1011 719.368L1013.56 720.796L1016 722.349V725.33L1018 726.323C1019 728.062 1019 728.062 1020 730.298C1020.54 731.304 1020.54 731.304 1021.08 732.331C1022.4 736.532 1022 740.355 1021.69 744.705C1021.64 745.541 1021.59 746.378 1021.54 747.239C1021.29 751.274 1020.95 755.169 1020 759.112H1017L1016.81 761.286C1015.73 765.016 1013.97 766.568 1011 769.048C1008.31 770.228 1008.31 770.228 1006 771.035L1004 773.022C1002.02 772.832 1000.03 772.635 998.07 772.316C995.688 771.937 995.688 771.937 992 772.029C986.809 770.796 983.756 768.717 980 765.074V762.093H978V757.125L975 756.131L975.062 753.275C975.225 750.262 975.225 750.262 974 748.182C973.413 741.893 974.053 735.322 976 729.304L978 728.31C978.652 726.299 978.652 726.299 979 724.336H981L981.75 722.597C983.249 719.916 984.56 718.287 987 716.387C994.207 714.633 1003.23 714.017 1010 717.381Z" fill="#4A180D"/>
<path d="M1098.71 695.366C1100.99 695.639 1100.99 695.639 1103.1 694.994C1105 694.528 1105 694.528 1108 695.521L1109 697.509L1110.75 697.881C1116.25 699.4 1119.23 703.746 1122 708.438V710.425H1124L1123 714.4L1121.12 714.772C1118.81 715.266 1118.81 715.266 1117 717.381C1114.51 717.142 1113.22 716.556 1111.25 715.021C1110 713.406 1110 713.406 1110 710.425L1108.19 709.991C1106.44 709.544 1104.71 709.006 1103 708.438H1100V706.451H1098V708.438L1091 707.445L1088 719.368L1091 721.355V723.342L1094 722.349L1096 724.336C1098.32 725.033 1100.66 725.692 1103 726.323C1109.44 728.703 1115.74 731.809 1121 736.259V738.246H1123L1123.38 740.668L1124 743.214L1126 744.208L1125 747.189C1125.09 749.469 1125.09 749.469 1125.44 751.846C1125.59 753.051 1125.59 753.051 1125.75 754.28C1125.83 754.891 1125.91 755.502 1126 756.131L1124 757.125C1123.34 759.636 1123.34 759.636 1123 762.093H1121V765.074H1119V767.061C1116.36 768.832 1114.03 770.032 1111 771.035C1108.81 770.6 1108.81 770.6 1107 770.042L1106 773.022C1105.41 772.939 1104.82 772.856 1104.21 772.77C1099.9 772.219 1096.24 771.798 1092 773.022L1091 770.042L1088.81 770.228C1085.42 770.003 1083.68 769.115 1081 767.061V764.08H1078C1075.22 760.428 1074.13 756.556 1073 752.157C1076.61 748.887 1079.13 747.639 1084 747.189C1085.46 749.819 1086 751.058 1086 754.144L1087.69 754.889C1090.4 756.346 1092.64 758.148 1095 760.106L1096 759.112C1097.75 759.197 1099.5 759.304 1101.25 759.422C1105.25 759.504 1105.25 759.504 1108.84 757.998C1111.1 755.491 1111.97 753.35 1112.44 750.045C1112.01 747.257 1111.69 745.478 1110 743.214C1108.12 742.457 1108.12 742.457 1106 742.221C1103.81 741.786 1103.81 741.786 1102 741.227L1101 739.24H1097L1096 737.253L1093.75 737.377C1089.78 737.198 1087.78 736.039 1085 733.278H1083C1081.78 731.792 1081.78 731.792 1080.5 729.863C1078.71 727.093 1078.71 727.093 1076 725.329C1074.55 719.294 1075.28 713.556 1076 707.445H1078L1079 703.47H1081L1082 700.489C1084.92 698.427 1086.38 697.509 1090 697.509V695.521C1092.97 694.045 1095.5 694.896 1098.71 695.366Z" fill="#49190D"/>
<path d="M747 720.361C749.873 725.018 750.452 729.022 750.476 734.373C750.492 735.127 750.508 735.881 750.524 736.658C750.571 739.05 750.599 741.442 750.625 743.835C750.662 746.235 750.702 748.635 750.748 751.034C750.775 752.523 750.796 754.011 750.811 755.5C750.862 758.853 751.112 761.843 752 765.074C751.562 767.806 751.562 767.806 751 770.042C749.417 770.096 747.833 770.134 746.25 770.166C744.927 770.2 744.927 770.2 743.578 770.236C740.886 770.033 739.301 769.411 737 768.054L735.812 769.545C733.449 771.488 731.986 771.276 729 771.035L728 773.022H725V771.035H722V773.022C719.038 772.414 717.619 771.777 715 770.042C713.344 769.353 711.679 768.686 710 768.054V765.074H708C706.667 753.626 706.667 753.626 708 748.182H710V745.202H713L714 742.221C715.652 741.523 717.319 740.86 719 740.233L720 738.246L724 739.24V737.253C729.38 736.069 734.453 734.975 740 735.265V730.297H738C737.776 729.657 737.551 729.017 737.32 728.357C736.171 726.081 736.171 726.081 733.617 725.718C732.26 725.648 732.26 725.648 730.875 725.578C729.965 725.522 729.055 725.465 728.117 725.407C727.418 725.381 726.72 725.356 726 725.329V727.317L724.125 728.186C721.867 729.241 721.867 729.241 720 731.291C718.35 731.994 716.684 732.662 715 733.278V731.291H713V729.304L710 728.31L711 724.336H713L713.75 722.597C715.213 719.981 716.638 718.251 719 716.387C721.25 716.635 721.25 716.635 723 717.381V715.393C725.04 715.171 727.082 714.968 729.125 714.772C730.262 714.657 731.399 714.542 732.57 714.423C738.541 714.383 742.744 716.248 747 720.361Z" fill="#48190E"/>
<path d="M1222.44 715.207C1224.11 715.186 1224.11 715.186 1225.81 715.165C1231.91 715.602 1235 717.848 1239 722.349C1240.02 723.991 1241.03 725.645 1242 727.317C1243.58 729.057 1243.58 729.057 1245 730.298L1244 732.285L1245 734.272C1245.1 736.278 1245.13 738.287 1245.13 740.296C1245.13 741.911 1245.13 741.911 1245.13 743.56C1245 746.195 1245 746.195 1244 747.189C1241.48 747.277 1238.99 747.303 1236.46 747.286C1235.34 747.284 1235.33 747.284 1234.18 747.282C1231.77 747.276 1229.35 747.264 1226.94 747.251C1225.3 747.246 1223.67 747.241 1222.04 747.237C1218.02 747.226 1214.01 747.209 1210 747.189V749.176H1212C1213.13 753.896 1213.13 753.896 1212 756.131H1214L1215 760.106H1220V762.093C1227.14 760.999 1227.14 760.999 1233 757.125V755.138C1234.63 753.399 1234.63 753.399 1237 752.157C1240.25 752.964 1240.25 752.964 1243 754.144C1244.1 757.968 1244.26 759.594 1242.44 763.211C1239.84 766.256 1237.53 768.142 1234 770.042H1230L1229 772.029C1225.72 773.31 1223.37 772.782 1220 772.029H1216C1213.99 771.413 1211.98 770.758 1210 770.042V768.054L1208.19 767.806C1205.3 766.822 1204.47 765.72 1203 763.086C1202.81 760.354 1202.81 760.354 1203 758.118H1200C1197.85 750.379 1199 741.294 1199 733.278C1199.99 731.948 1200.99 730.624 1202 729.304C1202.71 727.17 1202.71 727.17 1203 725.33H1205L1205.19 723.529C1206.32 720.492 1208.21 719.898 1211 718.374L1212 716.387C1215.4 715.139 1218.85 715.228 1222.44 715.207Z" fill="#4A180D"/>
<path d="M1384 716.387L1385 718.374L1387.37 719.678C1391.64 722.404 1393.36 726.237 1394.66 731.05C1395.43 736.037 1395.31 741.17 1395 746.195C1393.08 748.106 1389.53 747.44 1386.9 747.503C1385.84 747.534 1385.84 747.534 1384.75 747.566C1382.48 747.631 1380.21 747.689 1377.94 747.748C1376.4 747.791 1374.86 747.834 1373.33 747.878C1369.55 747.984 1365.78 748.085 1362 748.182C1362.34 749.117 1362.68 750.052 1363.02 751.016C1363.98 754.083 1364.13 755.206 1363 758.118L1364.75 758.553C1366.83 759.071 1368.92 759.588 1371 760.106V762.093H1376V760.106L1379.31 758.864C1382.51 757.519 1384.21 756.19 1386 753.15L1393 754.144C1395.12 758.739 1395.12 758.739 1394 762.093H1392L1391.94 763.832C1390.46 767.352 1387.28 768.428 1384 770.042L1381.81 771.221C1377.77 773.022 1375.31 772.993 1371 772.029H1367C1364.98 771.413 1362.98 770.757 1361 770.042V768.054L1358 767.061V765.074H1355C1350.92 757.16 1348.81 751.069 1348.75 742.159C1348.73 741.443 1348.71 740.728 1348.69 739.991C1348.65 734.675 1348.65 734.675 1350.52 732.537C1351.01 732.126 1351.5 731.715 1352 731.291V727.317H1354L1354.75 724.46C1356 721.355 1356 721.355 1358.06 720.113L1360 719.368L1361 717.381C1367.67 714.154 1376.92 714.419 1384 716.387Z" fill="#47180D"/>
<path d="M162 642.861C184.594 653.494 184.594 653.494 194.848 658.382C198.507 660.119 202.162 661.83 205.902 663.389C210.129 665.205 213.74 667.442 217 670.681C217.375 673.538 217.375 673.538 217 676.643C214.188 680.101 211.696 681.346 207.438 682.543C205.728 683.032 205.728 683.032 203.984 683.532C201.065 684.321 198.136 685.068 195.203 685.807C194.374 686.017 193.544 686.228 192.69 686.445C191.062 686.855 189.433 687.256 187.801 687.646C181.009 689.34 174.544 691.753 169.25 696.453C168.719 696.913 168.188 697.373 167.641 697.846C165.596 699.902 163.817 702.207 162 704.464V642.861Z" fill="#2465B0"/>
<path d="M915.562 911.195C920.639 914.038 923.908 917.46 926.148 922.827C928.421 931.392 928.122 940.992 924 948.89C921.283 953.08 918.747 955.179 914 956.839C907.365 957.623 904.192 956.934 898 953.858L897 972.737H890V911.133H897L898 914.114L901.062 912.127C906.12 909.285 910.036 909.558 915.562 911.195ZM288.562 911.195C293.639 914.038 296.908 917.46 299.148 922.827C301.421 931.392 301.122 940.992 297 948.89C294.283 953.08 291.747 955.179 287 956.839C280.365 957.623 277.192 956.934 271 953.858L270 972.737H263V911.133H270L271 914.114L274.062 912.127C279.12 909.285 283.036 909.558 288.562 911.195Z" fill="#40190A"/>
<path d="M666 697.509H713V707.445C709.47 708.614 706.864 708.458 703.145 708.318C702.483 708.295 701.821 708.271 701.14 708.247C699.03 708.171 696.921 708.087 694.812 708.004C693.381 707.951 691.949 707.898 690.518 707.846C687.011 707.719 683.506 707.582 680 707.445V727.317H703C703 737.253 703 737.253 702 739.24H680C680.017 742.45 680.017 742.45 680.035 745.726C680.043 747.791 680.049 749.856 680.055 751.921C680.06 753.36 680.067 754.799 680.075 756.238C680.088 758.302 680.093 760.366 680.098 762.43C680.103 763.674 680.108 764.918 680.114 766.199C680 769.048 680 769.048 679 770.042H666V697.509Z" fill="#40190D"/>
<path d="M649.25 911.816C654.884 915.004 657.008 918.471 658.812 924.609C660.713 933.044 660.633 941.537 656.246 949.2C653.774 952.526 650.733 954.984 647 956.839C639.592 957.52 633.939 957.536 628 952.864C622.719 946.624 621.554 939.51 621.75 931.587C622.465 924.235 624.521 918.193 630 913.12C636.506 909.461 642.486 908.749 649.25 911.816Z" fill="#401A0A"/>
<path d="M797.562 911.195C802.82 914.14 805.907 917.657 808.375 923.119C809.906 932.704 810.302 942.371 805 950.877C801.699 954.577 798.321 956.636 793.293 957.076C787.013 957.225 782.837 957.31 778 952.865C772.707 947.314 771.626 941.582 771.687 934.11C771.692 933.407 771.697 932.704 771.702 931.98C771.857 925.127 772.882 920.719 777.25 915.294C783.71 910.188 789.656 908.853 797.562 911.195Z" fill="#40190A"/>
<path d="M1285 715.393C1288.43 717.305 1291.21 719.603 1294 722.349L1293 725.329H1295L1294 770.042H1284C1283.98 768.959 1283.95 767.877 1283.92 766.761C1283.83 762.728 1283.73 758.695 1283.63 754.662C1283.58 752.92 1283.54 751.177 1283.5 749.435C1283.44 746.924 1283.38 744.413 1283.32 741.902C1283.3 741.129 1283.28 740.356 1283.27 739.559C1283.15 735.389 1282.81 731.425 1282 727.317C1277.96 726.687 1274.09 726.2 1270 726.323V729.304C1267 731.291 1267 731.291 1263 731.291V770.042H1251C1250.98 762.702 1250.96 755.362 1250.95 748.022C1250.94 745.522 1250.93 743.023 1250.92 740.524C1250.91 736.94 1250.91 733.357 1250.9 729.774C1250.9 728.648 1250.89 727.523 1250.89 726.364C1250.89 725.33 1250.89 724.296 1250.89 723.23C1250.88 722.314 1250.88 721.399 1250.88 720.455C1251 718.374 1251 718.374 1252 717.381C1254.02 717.309 1256.04 717.297 1258.06 717.319C1259.72 717.332 1259.72 717.332 1261.41 717.346C1262.26 717.357 1263.12 717.369 1264 717.381V720.361C1266.47 719.217 1268.05 718.327 1270 716.387C1274.97 714.739 1279.83 714.581 1285 715.393Z" fill="#40180C"/>
<path d="M809 717.381H819L820 758.118C830.938 760.973 830.938 760.973 836.688 758.292C839.49 756.155 840.518 754.581 841 751.108C841.04 749.537 841.038 747.964 841 746.393C841.011 745.562 841.022 744.731 841.033 743.875C841.059 741.231 841.03 738.592 841 735.949C841.008 734.152 841.02 732.356 841.035 730.559C841.065 726.166 841.046 721.774 841 717.381H851V770.042H841L840 768.054C836.85 768.75 833.935 769.695 831 771.035L830 773.022L826.75 772.463C823.596 772.098 821.902 771.984 819 773.022V771.035H815L814.188 769.11C813.113 766.732 813.113 766.732 810 766.067C807.932 760.099 807.787 754.686 808.023 748.431C808.048 747.538 808.073 746.645 808.099 745.725C808.181 742.9 808.278 740.077 808.375 737.253C808.433 735.326 808.491 733.4 808.547 731.473C808.686 726.775 808.839 722.078 809 717.381Z" fill="#42180C"/>
<path d="M1337.19 718.25C1338.48 719.264 1339.75 720.296 1341 721.355L1344 723.342C1345.77 725.89 1346.05 726.94 1345.62 730.049L1345 732.285H1342L1341 735.266L1337 734.272V732.285H1334C1330 727.97 1330 727.97 1330 725.33H1321L1319 729.304L1316 731.291C1314.79 733.225 1314.79 733.225 1313.81 735.39C1313.47 736.11 1313.12 736.829 1312.77 737.571C1312.52 738.122 1312.26 738.673 1312 739.24H1314V742.221H1312V746.195H1314V748.182H1312L1313.5 750.977C1315 754.144 1315 754.144 1315 757.125C1317.33 758.323 1319.5 759.276 1322 760.106V762.093H1328V760.106L1334 758.118V756.131H1337V753.15C1340.88 752.975 1343.76 752.869 1347 755.138L1348 758.118C1344.78 764.006 1340.24 768.376 1334 771.035L1332 772.029C1328.52 772.939 1326.43 772.909 1323 772.029C1320.81 772.406 1320.81 772.406 1319 773.023L1318 770.042L1311 769.048V767.061C1310.39 767.03 1309.79 766.999 1309.16 766.968C1307 766.067 1307 766.067 1305.59 763.18C1304.99 761.412 1304.99 761.412 1304.38 759.609C1303.2 755.052 1303.2 755.052 1300 752.157C1300.17 751.629 1300.35 751.101 1300.53 750.558C1301.12 747.573 1300.86 744.996 1300.56 741.972C1300.41 740.366 1300.41 740.366 1300.25 738.728C1300.17 737.913 1300.09 737.099 1300 736.259H1302V729.304H1305L1305.19 726.572C1306.2 722.546 1307.63 721.681 1311 719.368L1312.56 717.691C1318.38 712.413 1331.28 714.284 1337.19 718.25Z" fill="#4C180D"/>
<path d="M792 716.387C795.959 719.009 798.704 722.178 801 726.323V729.304H803V731.291L798 732.285V734.272H793V732.285H791V730.298L789.062 729.49C787 728.31 787 728.31 786 725.33C780.363 725.709 777.041 726.059 773 730.298C769.839 734.563 769.839 734.563 769.25 739.675L770 741.227H768V747.189H770L769.938 749.921C769.962 753.641 769.962 753.641 771 757.125C773.276 758.557 775.433 759.256 778 760.106V762.093H784V760.106H788V758.118H790L791 755.138L793 753.15C795.164 753.174 795.164 753.174 797.625 753.523C798.442 753.633 799.26 753.743 800.102 753.857C800.728 753.952 801.355 754.046 802 754.144C802.918 757.045 803.2 758.608 802.062 761.472C798.371 766.14 794.083 770.961 788 772.029L785.5 772.65C782.903 773.037 781.495 772.669 779 772.029C776.813 772.405 776.813 772.405 775 773.022L774 770.042H771.5C766.393 768.592 763.142 765.302 760 761.099C759.628 759.451 759.288 757.796 759 756.131L757 755.138V732.285L759 731.291V727.317H761L763 722.349H765V720.362C773.026 715.045 782.479 713.063 792 716.387Z" fill="#4A180D"/>
<path d="M164 894.242C194.6 894.242 194.6 894.242 202.465 901.469C208.735 908.476 210.489 918.229 210.246 927.353C209.446 935.999 207.427 943.726 201 949.883C188.885 959.002 182.397 955.845 164 955.845V894.242ZM172 901.197V949.883C185.075 950.207 185.075 950.207 195.875 944.605C202.098 936.784 202.669 928.741 202 919.082C200.835 912.717 198.055 907.362 193 903.184C186.422 900.213 186.422 900.213 172 901.197Z" fill="#3E1808"/>
<path d="M215 586.225C220.274 587.797 225.04 590.056 229.957 592.474C231.249 593.103 231.249 593.103 232.567 593.745C235.317 595.085 238.065 596.43 240.812 597.776C244.401 599.529 247.991 601.281 251.582 603.031C252.898 603.674 252.898 603.674 254.24 604.331C258.453 606.385 262.676 608.41 266.939 610.362C267.712 610.717 268.486 611.072 269.282 611.437C270.717 612.092 272.154 612.741 273.594 613.382C278.679 615.702 282.71 618.045 285.801 622.748C287.205 626.522 287.338 629.835 287.187 633.794C287.167 634.82 287.167 634.82 287.146 635.867C287.111 637.536 287.058 639.205 287 640.873L284.062 638.451C272.081 629.61 257.759 623.899 244.237 617.803C238.391 615.152 232.601 612.418 226.891 609.489C225.854 608.959 224.818 608.428 223.751 607.881C219.706 605.258 216.686 601.681 215 597.155C214.805 594.376 214.805 594.376 214.875 591.442C214.902 589.974 214.902 589.974 214.93 588.476C214.953 587.733 214.976 586.991 215 586.225Z" fill="#22AAE1"/>
<path d="M1153.31 715.269C1154.57 715.287 1155.82 715.305 1157.11 715.324C1158.54 715.358 1158.54 715.358 1160 715.394V717.381H1165L1166 719.368L1168.38 720.424C1172.22 723.245 1172.84 726.817 1174 731.291L1171.56 732.161C1168.87 733.013 1168.87 733.013 1168 735.266C1165.12 734.645 1165.12 734.645 1162 733.278C1160.75 730.235 1160.75 730.235 1160 727.317C1157.24 725.943 1154.95 726.229 1151.88 726.261C1150.78 726.27 1149.68 726.279 1148.55 726.288C1147.29 726.306 1147.29 726.306 1146 726.323C1145.87 726.948 1145.73 727.573 1145.6 728.217C1145 730.298 1145 730.298 1143.44 731.788C1141.54 733.413 1141.54 733.413 1142 737.253H1140V750.17H1142L1142.31 752.405C1143.06 755.383 1143.86 756.911 1146 759.112C1148.09 759.903 1148.09 759.903 1150 760.106V762.093H1155V760.106L1163 758.118V755.138C1167.22 752.157 1167.22 752.157 1170 752.157L1172 754.144L1175 756.131L1174 762.093H1171L1170 767.061H1166L1165 770.042C1159.77 772.952 1156.98 773.149 1151 772.029C1149.66 772.317 1148.32 772.635 1147 773.022L1145 772.029V770.042H1140V768.054H1138C1130.23 759.93 1128.08 752.405 1128 741.227C1128.23 734.402 1128.23 734.402 1129 731.291L1131 730.298L1131.31 728.559C1132.55 724.541 1135.72 722.077 1139.31 720.051L1141 719.368V717.381C1145.22 715.345 1148.65 715.183 1153.31 715.269Z" fill="#49190D"/>
<path d="M845.375 911.506C848 913.12 848 913.12 849 915.108L850.562 914.3L853 913.12L856.312 911.506C861.133 909.72 864.811 909.497 869.75 910.947C873.34 912.83 874.709 914.241 876 918.088C876.085 920.947 876.116 923.781 876.098 926.639C876.096 927.473 876.095 928.306 876.093 929.166C876.088 931.828 876.075 934.491 876.062 937.153C876.057 938.959 876.053 940.764 876.049 942.569C876.038 946.995 876.021 951.42 876 955.845H869L868 918.088C858.767 917.274 858.767 917.274 854.425 920.094C851.494 923.675 851.137 926.274 851.195 930.714C851.182 931.435 851.168 932.156 851.154 932.898C851.117 935.187 851.12 937.473 851.125 939.761C851.107 941.318 851.086 942.875 851.062 944.432C851.011 948.237 850.996 952.04 851 955.845H844C843.98 954.843 843.96 953.84 843.94 952.807C843.864 949.081 843.775 945.356 843.683 941.63C843.644 940.019 843.61 938.408 843.578 936.796C843.532 934.477 843.474 932.159 843.414 929.841C843.403 929.122 843.391 928.404 843.379 927.664C843.271 924.003 843.023 921.205 841 918.088L837.438 917.778C836.776 917.72 836.115 917.663 835.434 917.603C831.226 918.442 828.413 919.527 826 923.056C824.955 928.619 825.019 934.119 825.062 939.761C825.049 941.318 825.033 942.875 825.014 944.432C824.973 948.237 824.975 952.04 825 955.845H818V911.133H825L826 915.108L828.812 913.183C834.349 909.623 839.196 909.005 845.375 911.506ZM436.25 911.506C438.201 912.651 440.115 913.859 442 915.108C442.961 914.57 442.961 914.57 443.941 914.021C449.102 911.27 452.999 909.222 459 910.14C462.751 911.43 464.499 912.345 466.654 915.679C468.314 919.876 468.382 923.248 468.293 927.706C468.289 928.514 468.284 929.321 468.28 930.153C468.263 932.715 468.226 935.275 468.188 937.836C468.172 939.58 468.159 941.324 468.146 943.068C468.114 947.328 468.062 951.586 468 955.845H461C460.97 954.341 460.97 954.341 460.94 952.807C460.864 949.081 460.775 945.356 460.683 941.63C460.644 940.019 460.61 938.408 460.578 936.796C460.532 934.477 460.474 932.159 460.414 929.841C460.403 929.122 460.391 928.404 460.379 927.664C460.271 924.003 460.023 921.205 458 918.088L454.438 917.778C453.776 917.72 453.115 917.663 452.434 917.603C448.226 918.442 445.413 919.527 443 923.056C441.955 928.619 442.019 934.119 442.062 939.761C442.049 941.318 442.033 942.875 442.014 944.432C441.973 948.237 441.975 952.04 442 955.845H435L434 918.088C424.767 917.274 424.767 917.274 420.425 920.094C417.494 923.675 417.137 926.274 417.195 930.714C417.175 931.795 417.175 931.795 417.154 932.898C417.117 935.187 417.12 937.473 417.125 939.761C417.107 941.318 417.086 942.875 417.062 944.432C417.011 948.237 416.996 952.04 417 955.845H410V911.133H417V915.108L419.812 913.183C425.28 909.667 430.156 908.944 436.25 911.506Z" fill="#3F1808"/>
<path d="M337 913.12C341.057 918.038 341.6 921.614 341.609 927.706C341.626 928.514 341.642 929.321 341.66 930.153C341.708 932.714 341.729 935.275 341.75 937.836C341.778 939.58 341.808 941.324 341.84 943.068C341.914 947.327 341.963 951.586 342 955.845C338.625 956.031 338.625 956.031 335 955.845L333 952.864L330.188 954.851C325.317 957.621 320.463 957.528 315 956.839C311.737 955.555 310.438 954.368 308.188 951.746C306.524 947.745 306.428 944.219 307 939.947C308.94 935.381 312.222 932.179 316.857 930.22C318.933 929.513 321.017 928.879 323.125 928.273C323.84 928.054 324.556 927.835 325.293 927.609C328.289 926.713 330.855 926.037 334 926.037C333.541 922.573 333.541 922.573 332 919.082C327.99 917.129 325.647 916.988 321.25 917.716C317.941 919.107 316.743 920.001 315 923.056C310.25 922.187 310.25 922.187 308 921.069C309.181 916.505 311.424 914.718 315.148 912.142C321.6 908.626 330.872 909.053 337 913.12Z" fill="#3F190A"/>
<path d="M1139.21 895.127C1144.53 898.408 1147.53 903.164 1149 909.146C1146.29 910.492 1143.99 910.204 1141 910.139L1139.81 907.345C1137.76 903.752 1136.86 902.666 1133 901.197C1127.95 900.684 1123.42 900.419 1119 903.184C1117.44 906.293 1117.64 908.705 1118 912.127C1122.79 917.108 1129.81 918.999 1136.16 921.36C1142.66 923.952 1147.26 926.986 1151 932.992C1152.39 938.272 1151.87 943.98 1149.38 948.89C1146.14 952.946 1142.93 955.207 1138 956.839C1121.14 958.051 1121.14 958.051 1115 952.864C1111.39 949.076 1108.34 945.336 1108 939.947L1115 937.96C1115.33 938.571 1115.66 939.182 1116 939.812C1118.51 944.062 1120.56 947.269 1125.31 949.076C1130.16 950.283 1134.4 949.799 1139 947.896C1142.07 945.489 1142 943.909 1142.56 940.01C1142.82 938.002 1142.82 938.002 1142 935.973C1137.47 931.36 1132.49 929.306 1126.5 927.031C1113.78 922.197 1113.78 922.197 1109.65 916.093C1107.94 910.873 1108.25 905.724 1110.62 900.824C1118.11 892.601 1128.97 890.697 1139.21 895.127Z" fill="#3F1909"/>
<path d="M162 619.014L163.406 620.039C175.338 628.355 189.064 633.954 202.311 639.848C222.387 648.852 222.387 648.852 226 654.784L227.25 656.647C229.334 662.512 227.73 667.295 225.156 672.645C223.766 675.063 222.164 676.864 220 678.63L218 677.637L219 674.656C219.701 669.246 219.701 669.246 217.371 664.673C214.625 662.425 211.954 660.994 208.75 659.441C208.096 659.121 207.442 658.8 206.769 658.47C202.248 656.276 197.685 654.178 193.109 652.1C190.217 650.786 187.33 649.464 184.442 648.142C182.273 647.156 180.097 646.184 177.921 645.213C176.557 644.591 175.192 643.969 173.828 643.346C173.2 643.071 172.571 642.795 171.923 642.512C167.16 640.308 164.345 637.584 162 632.925C161.929 630.566 161.916 628.205 161.938 625.845C161.947 624.572 161.956 623.299 161.965 621.987C161.977 621.006 161.988 620.025 162 619.014Z" fill="#23ABE1"/>
<path d="M1384.69 911.257C1389.7 914.078 1392.74 917.405 1394.31 922.932C1395.3 927.071 1395 930.492 1395 934.979H1366C1368.32 944.648 1368.32 944.648 1375 949.884C1380.03 950.585 1382.95 949.918 1387 946.903L1388.5 945.164L1390 943.922C1392.69 944.232 1392.69 944.232 1395 944.915C1395 949.657 1394.26 950.539 1391 953.858C1385.4 957.992 1378.66 957.664 1372 956.839C1366.81 955.208 1363.79 952.153 1361 947.586C1357.55 939.857 1357.53 929.411 1360.19 921.38C1365.59 911.566 1374.03 908.027 1384.69 911.257ZM1251.69 911.257C1256.7 914.078 1259.74 917.405 1261.31 922.932C1262.3 927.071 1262 930.492 1262 934.979H1233C1235.32 944.648 1235.32 944.648 1242 949.884C1247.03 950.585 1249.95 949.918 1254 946.903L1255.5 945.164L1257 943.922C1259.69 944.232 1259.69 944.232 1262 944.915C1262 949.657 1261.26 950.539 1258 953.858C1252.4 957.992 1245.66 957.664 1239 956.839C1233.81 955.208 1230.79 952.153 1228 947.586C1224.55 939.857 1224.53 929.411 1227.19 921.38C1232.59 911.566 1241.03 908.027 1251.69 911.257Z" fill="#3F1809"/>
<path d="M245.238 912.849C249.325 915.784 250.812 919.327 252 924.05V934.98H223C225.836 944.336 225.836 944.336 233 949.884C238.691 950.427 241.561 949.48 246 945.909L247 943.922C249.938 944.295 249.938 944.295 253 944.916L254 946.903C252.925 948.193 251.84 949.475 250.75 950.753C250.147 951.468 249.544 952.182 248.922 952.919C246.027 955.83 244.091 956.731 239.977 957.138C232.039 957.165 227.183 956.947 221.313 951.25C216.109 944.462 214.977 936.338 216 928.024C217.664 920.925 219.727 916.07 226 912.127C232.485 908.566 238.991 909.41 245.238 912.849Z" fill="#40190A"/>
<path d="M1036.25 911.754C1041.01 914.365 1043.3 917.978 1045 923.056V934.98H1017C1018.5 942.971 1018.5 942.971 1023.19 948.642C1026.78 950.23 1029.09 950.36 1033 949.884C1036.1 948.14 1038.49 946.418 1041 943.922C1043.56 944.17 1043.56 944.17 1046 944.916L1047 946.903C1041.69 955.121 1041.69 955.121 1036 956.839C1028.34 957.624 1022.11 957.8 1016 952.864C1010.49 947.333 1008.99 940.781 1009 933.152C1009.51 925.347 1011.27 918.813 1017 913.12C1023.52 909.507 1029.46 908.762 1036.25 911.754ZM504.25 911.754C509.01 914.365 511.296 917.978 513 923.056V934.98H485C486.502 942.971 486.502 942.971 491.188 948.642C494.784 950.23 497.094 950.36 501 949.884C504.1 948.14 506.488 946.418 509 943.922C511.563 944.17 511.563 944.17 514 944.916L515 946.903C509.694 955.121 509.694 955.121 504 956.839C496.34 957.624 490.113 957.8 484 952.864C478.492 947.333 476.993 940.781 477.004 933.152C477.51 925.347 479.271 918.813 485 913.12C491.521 909.507 497.459 908.762 504.25 911.754Z" fill="#3F1909"/>
<path d="M1043 694.528V696.515L1052 694.528C1053.2 696.918 1053.1 698.453 1053.06 701.11C1053.05 701.922 1053.04 702.735 1053.04 703.571C1053.02 704.194 1053.01 704.816 1053 705.457H1045C1043 709.552 1042.82 712.862 1043 717.381H1053V725.329H1043V770.042H1032V725.329H1023V717.381H1032L1031.56 713.593C1031.48 712.889 1031.4 712.186 1031.32 711.462C1031.03 709.239 1031.03 709.239 1030 706.451L1032 705.457L1032.69 703.284C1034.47 699.494 1038.45 694.528 1043 694.528Z" fill="#40170C"/>
<path d="M754.438 894.863C759.668 897.92 763.295 902.299 765 908.152V912.127L758 914.114C757.697 913.431 757.394 912.748 757.082 912.045C754.569 906.606 754.569 906.606 750.75 902.066C745.769 900.492 741.122 900.447 736.188 902.191C731.765 906.208 729.327 912.14 728.839 918.052C728.254 932.768 728.254 932.768 734.188 945.847C737.69 948.399 740.673 949.545 745 949.883C750.079 948.993 752.754 946.851 756 942.928C757.194 940.642 758.092 938.396 759 935.973L766 936.967C765.479 943.867 762.09 949.325 756.875 953.796C750.887 958.064 744.104 957.379 737 956.839C731.219 955.423 727.529 952.051 724.254 947.202C718.475 936.666 718.067 921.874 721.25 910.388C723.932 903.162 728.244 897.503 735.328 894.125C741.423 892.124 748.562 892.199 754.438 894.863Z" fill="#3F1809"/>
<path d="M862 697.509H873V770.042H862V697.509Z" fill="#432217"/>
<path d="M551.25 911.381C554.439 913.398 556.311 915.136 557.568 918.71C558.199 922.154 558.122 925.577 558.098 929.064C558.096 929.831 558.095 930.597 558.093 931.386C558.088 933.826 558.075 936.266 558.062 938.705C558.057 940.363 558.053 942.02 558.049 943.677C558.038 947.733 558.021 951.789 558 955.845H551C550.98 954.878 550.96 953.911 550.94 952.914C550.864 949.312 550.775 945.711 550.683 942.109C550.644 940.553 550.61 938.996 550.578 937.44C550.532 935.198 550.474 932.956 550.414 930.714C550.403 930.022 550.391 929.331 550.379 928.618C550.26 924.699 549.719 921.627 548 918.088L544.438 917.84C543.776 917.794 543.115 917.748 542.434 917.7C538.778 918.283 535.756 919.633 533 922.063C532.267 925.001 532.039 926.901 532.098 929.841C532.079 930.957 532.079 930.957 532.06 932.096C532.029 934.466 532.045 936.832 532.062 939.202C532.049 940.812 532.033 942.421 532.014 944.031C531.973 947.969 531.975 951.906 532 955.845H524V911.133H532L533 914.114C533.744 913.683 533.744 913.683 534.504 913.244C540.388 910.05 544.73 908.89 551.25 911.381Z" fill="#3F1A0B"/>
<path d="M938 911.133H945C945.015 912.236 945.029 913.34 945.044 914.476C945.102 918.561 945.179 922.646 945.263 926.731C945.296 928.5 945.324 930.27 945.347 932.039C945.38 934.58 945.432 937.12 945.488 939.66C945.495 940.454 945.501 941.248 945.508 942.066C945.54 944.531 945.54 944.531 946 947.896C949.373 950.131 950.845 949.955 954.77 949.565C958.141 948.544 960.293 947.176 963 944.916C963.622 942.056 963.841 939.997 963.805 937.137C963.819 936.393 963.832 935.649 963.846 934.882C963.884 932.513 963.88 930.146 963.875 927.776C963.893 926.166 963.914 924.557 963.938 922.948C963.99 919.009 964.005 915.072 964 911.133H971V955.845H964L963 952.864L960.188 954.852C955.332 957.588 950.439 957.806 945 956.839C941.833 955.176 939.626 953.114 938 949.884C937.913 946.985 937.885 944.111 937.903 941.213C937.904 940.356 937.905 939.498 937.907 938.615C937.912 935.871 937.925 933.128 937.938 930.384C937.943 928.526 937.947 926.668 937.951 924.811C937.962 920.251 937.98 915.692 938 911.133Z" fill="#3E1808"/>
<path d="M1299.19 911.257C1302.64 913.545 1304.03 915.447 1306 919.082C1306.51 921.972 1306.47 924.779 1306.39 927.706C1306.38 928.514 1306.38 929.321 1306.37 930.153C1306.35 932.715 1306.3 935.275 1306.25 937.836C1306.23 939.58 1306.21 941.324 1306.2 943.068C1306.15 947.328 1306.08 951.586 1306 955.845H1299C1298.98 954.807 1298.96 953.769 1298.94 952.7C1298.86 948.85 1298.78 945.001 1298.68 941.151C1298.64 939.485 1298.61 937.818 1298.58 936.152C1298.53 933.757 1298.47 931.362 1298.41 928.967C1298.4 928.222 1298.39 927.477 1298.38 926.709C1298.27 922.995 1298.12 921.254 1296 918.088C1289.79 917.369 1287.06 918.229 1282 922.063H1280V955.845H1273V911.133H1280V915.107L1282.81 913.182C1288.26 909.682 1293.02 909.093 1299.19 911.257Z" fill="#3F1808"/>
<path d="M627 649.816L632 650.809V770.042H626C625.977 754.513 625.959 738.984 625.948 723.455C625.943 716.245 625.936 709.036 625.924 701.826C625.915 695.544 625.908 689.262 625.906 682.98C625.905 679.652 625.901 676.324 625.894 672.996C625.887 669.286 625.886 665.577 625.886 661.867C625.883 660.756 625.879 659.645 625.875 658.5C625.877 657.495 625.878 656.49 625.88 655.455C625.879 654.577 625.878 653.699 625.877 652.794C626 650.809 626 650.809 627 649.816Z" fill="#42150A"/>
<path d="M993 725.329C994.625 725.303 996.25 725.283 997.875 725.267C998.78 725.256 999.685 725.244 1000.62 725.232C1003 725.329 1003 725.329 1005 726.323V729.304H1007C1008.66 733.203 1009.87 737.144 1011 741.227H1009V746.195H1011L1010 753.15L1007 754.144L1006 760.106H1001L1000 763.086L995 762.093V760.106L993.187 759.795C990.575 758.979 989.606 758.335 988 756.131C987.594 754.157 987.27 752.166 987 750.17L985.75 747.002C984.562 741.004 986.178 735.121 989.488 729.968C989.987 729.421 990.486 728.874 991 728.31H993V725.329Z" fill="#C0C5D6"/>
<path d="M913 917.095C916.811 919.942 919.191 923.344 920 928.024C920.594 935.338 920.51 942.568 915.664 948.552C912.565 951.031 908.868 951.113 905 950.877C901.755 949.177 899.574 947.473 897 944.915C896.492 941.169 896.583 937.39 896.562 933.613C896.53 932.566 896.497 931.518 896.463 930.438C896.409 922.714 896.409 922.714 899.402 919.416C904.084 917.023 907.708 916.001 913 917.095ZM286 917.095C289.811 919.942 292.191 923.344 293 928.024C293.594 935.338 293.51 942.568 288.664 948.552C285.565 951.031 281.868 951.113 278 950.877C274.755 949.177 272.574 947.473 270 944.915C269.492 941.169 269.583 937.39 269.562 933.613C269.53 932.566 269.497 931.518 269.463 930.438C269.409 922.714 269.409 922.714 272.402 919.416C277.084 917.023 280.708 916.001 286 917.095Z" fill="#C0C5D6"/>
<path d="M1345 913.12C1347.3 915.244 1349.48 917.335 1351 920.075C1350.66 922.284 1350.66 922.284 1350 924.05L1344 925.043L1342.62 922.684C1340.91 919.925 1339.93 918.405 1336.81 917.343C1332.82 916.991 1330.62 917.286 1327 919.082C1323.36 925.612 1322.85 934.058 1324.54 941.24C1325.51 944.152 1326.69 946.541 1328.69 948.89C1332.13 950.368 1335.36 950.545 1339 949.884C1342.28 947.829 1343.85 946.136 1346 942.928L1351 943.922C1352 946.903 1352 946.903 1351.21 948.61C1348.27 952.688 1345.98 955.31 1341 956.839C1334.53 957.467 1328.46 957.794 1323 953.858C1317.23 948.121 1315.81 941.891 1315.62 934.048C1315.82 927.215 1316.12 921.301 1320.84 916.035C1327.9 909.566 1336.57 907.475 1345 913.12ZM1188 913.12C1190.3 915.244 1192.48 917.335 1194 920.075C1193.66 922.284 1193.66 922.284 1193 924.05L1187 925.043L1185.62 922.684C1183.91 919.925 1182.93 918.405 1179.81 917.343C1175.82 916.991 1173.62 917.286 1170 919.082C1166.36 925.612 1165.85 934.058 1167.54 941.24C1168.51 944.152 1169.69 946.541 1171.69 948.89C1175.13 950.368 1178.36 950.545 1182 949.884C1185.28 947.829 1186.85 946.136 1189 942.928L1194 943.922C1195 946.903 1195 946.903 1194.21 948.61C1191.27 952.688 1188.98 955.31 1184 956.839C1177.53 957.467 1171.46 957.794 1166 953.858C1160.23 948.121 1158.81 941.891 1158.62 934.048C1158.82 927.215 1159.12 921.301 1163.84 916.035C1170.9 909.566 1179.57 907.475 1188 913.12Z" fill="#401A0B"/>
<path d="M796 918.088C800.053 921.109 801.05 924.14 802 929.018C802.598 935.413 802.27 941.238 799 946.903C796.201 949.992 794.694 950.764 790.562 951.436C785.979 950.717 784.149 949.257 781 945.909C778.199 939.146 777.8 931.626 779.652 924.531C781.324 920.681 782.733 919.249 786.375 916.97C790.55 915.969 792.206 916.162 796 918.088ZM647 918.088C651.768 922.951 652.223 927.261 652.312 933.799C652.341 934.494 652.37 935.189 652.4 935.905C652.463 941.026 651.321 943.798 648 947.896C645.598 950.283 644.455 950.819 641.062 951.25C637.507 950.817 635.781 950.137 633 947.896C629.136 941.59 627.921 934.997 629.496 927.718C630.947 922.755 632.372 919.854 637 917.095C641.056 915.751 643.049 916.573 647 918.088Z" fill="#C0C5D6"/>
<path d="M986 896.229H993V911.133H1004V917.095H993C993.118 921.605 993.242 926.115 993.372 930.624C993.416 932.16 993.457 933.695 993.497 935.231C993.555 937.433 993.619 939.635 993.684 941.838C993.7 942.528 993.717 943.218 993.734 943.93C993.565 947.188 993.565 947.188 995 949.883C996.515 950.114 998.038 950.293 999.562 950.442C1000.39 950.526 1001.22 950.609 1002.07 950.695C1003.02 950.785 1003.02 950.785 1004 950.877V956.839C1001.73 956.892 999.458 956.931 997.188 956.963C995.291 956.997 995.291 956.997 993.355 957.033C990 956.839 990 956.839 987 954.851C985.768 951.18 985.876 947.794 985.902 943.972C985.904 943.205 985.905 942.437 985.907 941.646C985.912 939.196 985.925 936.746 985.938 934.296C985.943 932.635 985.947 930.973 985.951 929.311C985.962 925.239 985.979 921.167 986 917.095H979V911.133H986V896.229ZM683.75 893.124C684.735 893.142 685.72 893.16 686.734 893.178C687.856 893.213 687.856 893.213 689 893.248V900.203L685.625 900.141C682.168 899.941 682.168 899.941 680 901.197C679.532 903.538 679.532 903.538 679.375 906.227C679.3 907.14 679.225 908.054 679.148 908.994C679.099 909.7 679.05 910.406 679 911.133H688V917.095H679V955.845H672V917.095H664V911.133H672C671.977 910.318 671.954 909.504 671.93 908.665C671.912 907.594 671.894 906.523 671.875 905.42C671.852 904.359 671.829 903.299 671.805 902.206C672 899.212 672.255 897.656 674 895.235C677.178 893.014 679.94 893.034 683.75 893.124ZM573 896.229H580V911.133H590V917.095H580C580.118 921.605 580.242 926.115 580.372 930.624C580.416 932.16 580.457 933.695 580.497 935.231C580.555 937.433 580.619 939.635 580.684 941.838C580.7 942.528 580.717 943.218 580.734 943.93C580.565 947.188 580.565 947.188 582 949.883C583.515 950.114 585.038 950.293 586.562 950.442C587.389 950.526 588.215 950.609 589.066 950.695C590.024 950.785 590.024 950.785 591 950.877V956.839C588.751 956.946 586.501 957.023 584.25 957.087L580.453 957.227C577 956.839 577 956.839 574.809 955.341C572.283 951.882 572.498 948.757 572.609 944.652C572.615 943.863 572.621 943.075 572.627 942.263C572.649 939.752 572.699 937.242 572.75 934.731C572.77 933.026 572.788 931.321 572.805 929.616C572.849 925.441 572.918 921.268 573 917.095H566V911.133H573V896.229ZM383 896.229H390V911.133H400V917.095H390C390.118 921.605 390.242 926.115 390.372 930.624C390.416 932.16 390.457 933.695 390.497 935.231C390.555 937.433 390.619 939.635 390.684 941.838C390.7 942.528 390.717 943.218 390.734 943.93C390.565 947.188 390.565 947.188 392 949.883C393.515 950.114 395.038 950.293 396.562 950.442C397.389 950.526 398.215 950.609 399.066 950.695C400.024 950.785 400.024 950.785 401 950.877V956.839C398.751 956.946 396.501 957.023 394.25 957.087L390.453 957.227C387 956.839 387 956.839 384.809 955.341C382.283 951.882 382.498 948.757 382.609 944.652C382.615 943.863 382.621 943.075 382.627 942.263C382.649 939.752 382.699 937.242 382.75 934.731C382.77 933.026 382.788 931.321 382.805 929.616C382.849 925.441 382.918 921.268 383 917.095H376V911.133H383V896.229Z" fill="#3E1707"/>
<path d="M264 738.246L264.5 742.034C266.059 749.18 270.994 754.679 275.727 760.094C278.213 763.997 277.583 768.587 277 773.022C274.822 777.43 272.086 780.218 268 782.958C265.688 783.704 265.688 783.704 264 783.952L263.813 782.089L263 779.978C261.337 779.308 259.669 778.646 258 777.99C253.73 773.276 252.726 770.47 252.766 764.278C253.063 761.511 253.99 760.033 256 758.118L256.688 761.223C258.317 766.896 262.087 770.761 267 774.016C266.517 768.927 264.86 766.003 261.938 761.844C258.767 757.037 256.95 753.191 257.457 747.352C258.177 744.502 260.472 738.246 264 738.246Z" fill="#F3AD14"/>
<path d="M1182 717.381H1192V770.042H1182V717.381Z" fill="#3C180C"/>
<path d="M374 910.139V917.095C373.408 917.266 372.817 917.438 372.207 917.615C367.474 919.287 364.59 920.865 362.25 925.385C359.382 931.52 359.223 937.37 359.188 944.046C359.162 945.186 359.137 946.326 359.111 947.5C359.053 950.282 359.016 953.063 359 955.845H352V911.133H359L360 917.095L362.188 914.735C366.163 911.048 368.585 910.139 374 910.139Z" fill="#3F1808"/>
<path d="M1077 910.139V917.095C1076.4 917.301 1075.79 917.507 1075.17 917.72C1069.02 920.077 1066.68 922.033 1064 928.024L1063 930.011C1062.85 931.957 1062.75 933.907 1062.68 935.857C1062.64 937.016 1062.6 938.175 1062.56 939.369C1062.5 941.192 1062.5 941.192 1062.44 943.052C1062.39 944.276 1062.35 945.499 1062.31 946.759C1062.2 949.788 1062.1 952.816 1062 955.845H1055V911.133H1062L1063 916.101L1065.75 913.679C1069.62 910.484 1071.94 910.139 1077 910.139Z" fill="#3F1809"/>
<path d="M1207 911.133H1214V955.845H1207V911.133Z" fill="#3E1707"/>
<path d="M739 744.208C739.054 745.946 739.093 747.685 739.125 749.424C739.148 750.393 739.171 751.361 739.195 752.359C738.994 755.223 738.717 756.808 737 759.112C734.322 759.946 731.826 759.924 729 760.106L728 763.086C725.812 763.397 725.812 763.397 723 763.086C718.181 759.363 718.181 759.363 717.641 755.654C718 753.15 718 753.15 719.504 751.466C725.774 747.139 731.05 743.63 739 744.208Z" fill="#C0C5D6"/>
<path d="M334 932.992C335.042 942.229 335.042 942.229 332.758 945.94C329.001 949.45 325.153 950.866 320.023 951.11C318 950.877 318 950.877 315.438 949.262C314 946.903 314 946.903 313.312 944.543C314.433 940.293 317.356 938.272 321 935.973C325.433 933.993 329.123 932.992 334 932.992Z" fill="#C0C5D6"/>
<path d="M225 720.362C225.147 721.209 225.147 721.209 225.297 722.073C226.363 727.544 227.983 731.563 231 736.259C229.421 736.789 227.836 737.304 226.25 737.812C225.368 738.1 224.487 738.388 223.578 738.685C220.861 739.27 219.562 739.239 217 738.246C215.293 736.974 213.617 735.656 212 734.272C212.551 730.348 213.389 726.97 215 723.342L211 722.349C211.957 722.258 211.957 722.258 212.934 722.166C214.173 722.041 214.173 722.041 215.438 721.914C216.261 721.833 217.085 721.753 217.934 721.67C221.551 721.119 220.426 720.362 225 720.362Z" fill="#F4F2F1"/>
<path d="M1383 918.088C1386.89 921.847 1387.05 923.372 1388 929.018H1366C1368 921.069 1368 921.069 1370.38 918.647C1375.24 915.769 1377.73 915.686 1383 918.088ZM1250 918.088C1253.89 921.847 1254.05 923.372 1255 929.018H1233C1235 921.069 1235 921.069 1237.38 918.647C1242.24 915.769 1244.73 915.686 1250 918.088ZM236.844 916.617C240.484 917.423 241.94 919.057 244 922.063L245 929.018H224C225 922.063 225 922.063 227 919.144C230.54 916.726 232.625 916.359 236.844 916.617ZM1027.5 916.412C1030.95 916.663 1032.03 917.117 1035 919.144C1037 922.063 1037 922.063 1038 929.018H1017C1018.15 922.162 1019.81 916.857 1027.5 916.412ZM495.5 916.412C498.95 916.663 500.033 917.117 503 919.144C505 922.063 505 922.063 506 929.018H485C486.15 922.162 487.808 916.857 495.5 916.412Z" fill="#C0C5D6"/>
<path d="M203 721.355H210V722.349H205L206 724.336C205.943 725.931 205.856 727.525 205.75 729.118C205.678 733.234 205.715 733.932 208.5 737.253L211 739.24V741.227C208.73 741.894 206.46 742.556 204.187 743.214C202.291 743.768 202.291 743.768 200.355 744.332C197 745.202 197 745.202 194 745.202C193.509 739.167 194.802 735.963 197.937 731.043C200.849 726.388 200.849 726.388 203 721.355Z" fill="#F3F1F0"/>
<path d="M1370.5 725.232C1372.02 725.25 1372.02 725.25 1373.56 725.267C1374.57 725.276 1375.59 725.285 1376.63 725.295C1377.8 725.312 1377.8 725.312 1379 725.329L1380 728.31C1382 729.985 1382 729.985 1384 731.291L1383 736.259H1362C1363.12 729.575 1363.12 729.575 1367 726.323C1368 725.329 1368 725.329 1370.5 725.232Z" fill="#C0C5D6"/>
<path d="M1217 725.33C1221.52 725.254 1225.59 725.228 1230 726.323C1232 732.036 1232 732.036 1232 734.272H1234V736.259H1211L1213 735.266L1212 731.291L1215 730.298V728.31H1217V725.33Z" fill="#C0C5D6"/>
<path d="M1182 695.521H1192C1193.31 698.128 1193.13 700.129 1193.12 703.036C1193.13 704.021 1193.13 705.005 1193.13 706.02C1193 708.438 1193 708.438 1192 709.432C1190.15 709.504 1188.29 709.515 1186.44 709.494C1185.43 709.485 1184.41 709.476 1183.37 709.467C1182.59 709.455 1181.81 709.444 1181 709.432C1180.97 707.486 1180.95 705.54 1180.94 703.595C1180.93 702.511 1180.91 701.427 1180.9 700.311C1181 697.509 1181 697.509 1182 695.521Z" fill="#5A261D"/>
<path d="M239 720.362L240.563 721.231C243.624 722.635 246.75 723.466 250 724.336L249.125 726.013C247.959 728.395 246.966 730.81 246 733.278L238 734.272C235.775 729.98 235.936 727.02 237 722.349L239 720.362Z" fill="#F1EFEE"/>
<path d="M678 737.253H702V739.24H680V769.048L678 770.042V737.253Z" fill="#B70600"/>
<path d="M191.062 706.389L194 706.451V707.445H189C188.914 708.248 188.827 709.051 188.738 709.878C187.6 718.483 187.6 718.483 184.812 722.597C181.316 724.759 179.046 724.73 175 724.336V722.349C175.748 721.941 176.495 721.534 177.266 721.114C180.656 718.949 181.833 716.779 183.75 713.282C187.537 706.46 187.537 706.46 191.062 706.389Z" fill="#61443A"/>
<path d="M1207 893.248H1214V901.197H1207V893.248Z" fill="#3E1707"/>
<path d="M192 709.432L191 734.272H190L189 715.393H187C188.077 709.432 188.077 709.432 192 709.432Z" fill="#E9E5E3"/>
<path d="M251 727.317C253 731.167 253 731.167 253 732.285L246 733.278L247 728.31L251 727.317Z" fill="#513126"/>
<path d="M260 711.419V712.413L257.062 713.344C254.159 714.097 254.159 714.097 253 715.393C251.334 715.434 249.666 715.436 248 715.393C251.922 711.32 254.316 711.314 260 711.419Z" fill="#AC9C97"/>
<path d="M184 715.394H186V720.362L180 722.349L184 715.394Z" fill="#3E1B0F"/>
<path d="M255 758.118H256C256.125 761.472 256.125 761.472 256 765.074L254 767.061C253.19 764.165 252.781 762.628 253.937 759.795L255 758.118Z" fill="#D49516"/>
<path d="M259 684.592C260.206 686.909 261.165 689.059 262 691.547H259C258.619 689.568 258.287 687.58 258 685.585L259 684.592Z" fill="#DCD5D2"/>
<path d="M188 706.451H194V707.445H189L188 711.419L186 710.425L188 706.451Z" fill="#6D524A"/>
<path d="M1098 705.458H1105V707.445L1100 708.438V706.451L1098 705.458Z" fill="#761710"/>
<path d="M1358 720.362L1360 722.349C1358.62 723.839 1358.62 723.839 1357 725.33H1355C1355.38 723.404 1355.38 723.404 1356 721.355L1358 720.362Z" fill="#7D190D"/>
<path d="M1361 748.182C1363.57 750.731 1363.54 752.631 1364 756.131L1361 755.138V748.182Z" fill="#891809"/>
<path d="M1102 694.528H1105V696.515L1107 697.509H1100L1102 696.515V694.528Z" fill="#85120D"/>
<path d="M1096 694.528L1095 697.509H1090V695.521C1092 694.528 1092 694.528 1096 694.528Z" fill="#B90302"/>
<path d="M263 681.611V684.592H261L260 688.566C259.375 686.206 259.375 686.206 259 683.598C261 681.611 261 681.611 263 681.611Z" fill="#6D5249"/>
<path d="M413 655.777H419V658.758H416V656.771L413 655.777Z" fill="#890E06"/>
<path d="M776 770.042C778.125 770.414 778.125 770.414 780 771.035H778V773.022L774 772.029L776 770.042Z" fill="#A10904"/>
<path d="M1386 719.368L1390 721.355V724.336C1388.65 723.032 1387.31 721.707 1386 720.362V719.368Z" fill="#AF110E"/>
<path d="M1300 749.176H1303L1302 753.15L1300 752.157V749.176Z" fill="#960B08"/>
</g>
<defs>
<clipPath id="clip0_2323_2">
<rect width="1563" height="1553" fill="white"/>
</clipPath>
</defs>
</svg>
